<?xml version="1.0" encoding="UTF-8" standalone="no"?>
<!DOCTYPE svg PUBLIC "-//W3C//DTD SVG 1.1//EN" "http://www.w3.org/Graphics/SVG/1.1/DTD/svg11.dtd">
<svg xmlns="http://www.w3.org/2000/svg" version="1.1" viewBox="0.00 0.00 300.00 216.00">
<g stroke-width="2.00" fill="none" stroke-linecap="butt">
<path stroke="#918f90" vector-effect="non-scaling-stroke" d="
  M 123.43 0.00
  C 109.35 2.59 98.76 14.13 95.02 27.56
  C 88.89 49.58 106.20 78.69 131.72 74.09"
/>
<path stroke="#f18c9b" vector-effect="non-scaling-stroke" d="
  M 131.72 74.09
  Q 131.95 86.60 132.09 99.25
  Q 132.18 107.57 138.05 112.43
  C 146.24 119.21 161.43 119.22 170.48 114.96
  Q 176.87 111.95 179.83 104.91
  Q 181.26 101.50 181.08 90.92
  Q 180.98 85.65 181.03 50.40
  A 1.23 1.23 0.0 0 1 181.16 49.85
  Q 181.59 49.03 182.25 49.18"
/>
<path stroke="#918f90" vector-effect="non-scaling-stroke" d="
  M 182.25 49.18
  L 189.29 69.52
  A 0.43 0.43 0.0 0 1 188.88 70.09
  L 184.70 70.09
  A 0.93 0.93 0.0 0 0 183.77 71.02
  L 183.77 71.64
  A 0.95 0.95 0.0 0 0 184.72 72.59
  L 210.75 72.59
  A 0.80 0.80 0.0 0 0 211.55 71.79
  L 211.55 70.88
  A 0.83 0.83 0.0 0 0 210.72 70.05
  L 206.23 70.05
  A 1.65 1.65 0.0 0 1 204.67 68.93
  L 181.60 1.12
  A 0.82 0.82 0.0 0 0 180.04 1.12
  Q 174.91 16.29 170.35 27.36
  Q 164.07 42.61 160.59 48.07
  C 154.34 57.86 146.18 66.91 134.88 70.60"
/>
<path stroke="#f18c9b" vector-effect="non-scaling-stroke" d="
  M 134.88 70.60
  Q 134.63 62.55 134.69 54.50
  Q 134.70 52.11 135.76 50.09
  A 2.95 2.93 13.6 0 1 138.37 48.51
  L 142.59 48.51
  A 0.71 0.71 0.0 0 0 143.30 47.80
  L 143.30 46.98
  A 0.80 0.79 0.0 0 0 142.50 46.19
  L 124.05 46.19
  A 0.75 0.74 0.0 0 0 123.30 46.93
  L 123.30 47.85
  A 0.76 0.75 0.8 0 0 124.04 48.60
  C 125.40 48.64 127.45 48.44 128.36 48.72
  Q 131.41 49.69 131.56 53.39
  Q 131.91 62.36 131.71 71.24"
/>
<path stroke="#918f90" vector-effect="non-scaling-stroke" d="
  M 131.71 71.24
  Q 118.53 72.95 114.41 60.97
  Q 112.71 56.04 112.60 52.23
  Q 112.29 42.36 112.48 21.78
  C 112.57 11.95 115.61 1.20 127.80 2.97
  C 136.75 4.27 142.40 11.62 145.06 19.87
  Q 145.37 20.83 145.78 20.95
  Q 146.29 21.10 147.02 20.94
  A 0.54 0.53 -6.9 0 0 147.43 20.42
  L 147.43 2.21
  A 0.99 0.99 0.0 0 0 145.81 1.44
  L 142.01 4.55
  A 1.08 1.08 0.0 0 1 140.72 4.61
  Q 135.29 1.00 128.49 0.00"
/>
<path stroke="#918f90" vector-effect="non-scaling-stroke" d="
  M 111.86 216.00
  L 110.21 213.58
  A 2.45 2.40 28.4 0 1 109.79 212.22
  L 109.79 189.80
  A 1.57 1.53 -26.9 0 1 110.11 188.86
  C 113.23 184.79 115.38 188.96 116.52 191.98
  Q 120.36 202.20 124.79 214.83
  A 0.79 0.77 -9.4 0 0 125.53 215.35
  L 130.28 215.35
  A 0.75 0.74 -80.6 0 0 130.98 214.84
  L 139.37 189.88
  A 1.24 1.14 76.4 0 1 139.57 189.52
  L 141.53 187.18
  A 0.25 0.25 0.0 0 0 141.33 186.77
  L 133.78 186.77
  A 0.24 0.24 0.0 0 0 133.71 187.24
  Q 135.05 187.67 135.61 188.79
  A 1.34 1.30 -49.8 0 1 135.68 189.79
  L 129.28 208.82
  A 0.32 0.32 0.0 0 1 128.67 208.83
  L 121.51 189.49
  A 0.72 0.71 36.4 0 1 121.46 189.18
  Q 121.48 188.04 122.85 187.17
  A 0.25 0.25 0.0 0 0 122.72 186.70
  Q 114.22 186.57 106.42 187.14
  Q 106.13 187.16 104.66 186.97
  Q 102.80 186.73 102.62 186.80
  A 0.28 0.28 0.0 0 0 102.59 187.31
  Q 103.32 187.72 104.48 189.30
  A 1.60 1.54 -64.0 0 1 104.78 190.23
  L 104.78 212.67
  A 2.09 2.07 -31.9 0 1 104.56 213.60
  Q 104.05 214.60 102.98 215.27
  A 0.31 0.31 0.0 0 0 103.14 215.85
  L 110.13 216.00"
/>
<path stroke="#918f90" vector-effect="non-scaling-stroke" d="
  M 59.64 216.00
  C 69.86 213.95 69.64 206.50 69.56 196.96
  Q 69.52 191.86 69.68 183.76
  A 1.19 1.15 71.9 0 1 70.10 182.90
  L 71.54 181.72
  A 0.30 0.29 25.1 0 0 71.35 181.20
  L 63.32 181.20
  A 0.17 0.16 64.7 0 0 63.22 181.49
  L 65.21 183.15
  A 1.10 1.10 0.0 0 1 65.61 184.00
  Q 65.71 202.30 65.52 204.72
  C 65.14 209.46 61.79 212.93 56.71 212.57
  C 50.13 212.11 49.62 206.42 49.65 200.54
  Q 49.72 184.37 49.66 183.99
  A 1.26 1.25 -25.0 0 1 50.10 182.80
  L 51.94 181.31
  A 0.15 0.15 0.0 0 0 51.85 181.04
  L 41.30 181.04
  A 0.15 0.15 0.0 0 0 41.21 181.30
  L 43.15 182.92
  A 1.48 1.44 21.1 0 1 43.67 184.05
  Q 43.63 191.27 43.74 203.24
  Q 43.83 214.03 54.12 216.00"
/>
<path stroke="#918f90" vector-effect="non-scaling-stroke" d="
  M 0.00 160.27
  Q 2.39 171.95 13.41 174.76
  C 16.40 175.53 20.88 175.71 23.92 174.87
  Q 25.18 174.53 25.68 174.38
  A 0.62 0.61 85.8 0 0 26.12 173.86
  L 26.94 167.02
  A 0.20 0.20 0.0 0 0 26.58 166.89
  C 23.77 171.21 22.72 172.09 17.43 171.63
  C 7.98 170.79 5.86 162.68 6.36 154.61
  C 6.87 146.32 12.43 143.05 20.20 143.10
  C 23.30 143.12 24.86 145.61 25.67 148.07
  A 0.15 0.15 0.0 0 0 25.96 148.02
  L 25.96 140.70
  A 0.76 0.76 0.0 0 0 25.40 139.97
  C 13.99 136.99 2.40 142.69 0.00 154.80"
/>
<path stroke="#918f90" vector-effect="non-scaling-stroke" d="
  M 152.71 174.81
  L 163.66 174.81
  A 0.10 0.10 0.0 0 0 163.72 174.63
  C 161.44 172.72 160.69 171.88 159.70 168.98
  Q 156.62 159.94 150.79 141.69
  A 1.15 1.14 -17.2 0 0 149.35 140.94
  Q 148.18 141.30 146.85 140.90
  A 1.14 1.14 0.0 0 0 145.44 141.66
  Q 139.97 159.12 136.77 168.75
  C 135.86 171.49 134.86 172.44 133.05 174.53
  A 0.18 0.18 0.0 0 0 133.19 174.83
  L 142.11 174.83
  A 0.23 0.23 0.0 0 0 142.26 174.42
  L 139.67 172.25
  A 1.38 1.37 -61.1 0 1 139.24 170.75
  L 142.14 162.12
  A 0.69 0.68 -80.5 0 1 142.79 161.65
  L 150.33 161.65
  A 1.05 1.04 80.7 0 1 151.32 162.37
  L 154.42 171.49
  A 1.41 1.40 -34.6 0 1 154.17 172.85
  L 152.65 174.67
  A 0.09 0.08 -69.9 0 0 152.71 174.81"
/>
<path stroke="#918f90" vector-effect="non-scaling-stroke" d="
  M 170.91 146.23
  Q 163.74 146.26 161.73 145.91
  A 0.53 0.53 0.0 0 0 161.11 146.43
  L 161.11 151.61
  A 0.25 0.25 0.0 0 0 161.57 151.75
  Q 161.76 151.47 162.42 149.99
  A 1.17 1.16 12.2 0 1 163.48 149.31
  L 167.94 149.31
  A 0.57 0.57 0.0 0 1 168.51 149.88
  L 168.51 172.04
  A 1.20 1.18 -20.0 0 1 168.07 172.96
  L 165.89 174.74
  A 0.18 0.18 0.0 0 0 166.02 175.06
  Q 168.53 174.84 171.02 174.83
  Q 173.52 174.82 176.03 175.02
  A 0.18 0.18 0.0 0 0 176.16 174.70
  L 173.97 172.94
  A 1.20 1.18 19.5 0 1 173.52 172.02
  L 173.34 149.86
  A 0.57 0.57 0.0 0 1 173.91 149.29
  L 178.37 149.25
  A 1.17 1.16 -12.7 0 1 179.43 149.92
  Q 180.11 151.40 180.30 151.68
  A 0.25 0.25 0.0 0 0 180.76 151.53
  L 180.72 146.35
  A 0.53 0.53 0.0 0 0 180.09 145.84
  Q 178.08 146.20 170.91 146.23"
/>
<path stroke="#918f90" vector-effect="non-scaling-stroke" d="
  M 266.30 146.22
  Q 259.14 146.20 257.13 145.84
  A 0.53 0.53 0.0 0 0 256.50 146.35
  L 256.47 151.53
  A 0.25 0.25 0.0 0 0 256.93 151.67
  Q 257.12 151.39 257.79 149.92
  A 1.17 1.16 12.6 0 1 258.85 149.25
  L 263.31 149.27
  A 0.57 0.57 0.0 0 1 263.88 149.85
  L 263.74 171.99
  A 1.20 1.18 -19.6 0 1 263.29 172.90
  L 261.10 174.67
  A 0.18 0.18 0.0 0 0 261.23 174.99
  Q 263.74 174.78 266.23 174.79
  Q 268.72 174.79 271.23 175.01
  A 0.18 0.18 0.0 0 0 271.36 174.69
  L 269.18 172.92
  A 1.20 1.18 19.9 0 1 268.74 172.00
  L 268.71 149.86
  A 0.57 0.57 0.0 0 1 269.27 149.29
  L 273.73 149.28
  A 1.17 1.16 -12.3 0 1 274.79 149.96
  Q 275.45 151.44 275.64 151.72
  A 0.25 0.25 0.0 0 0 276.10 151.58
  L 276.09 146.40
  A 0.53 0.53 0.0 0 0 275.48 145.88
  Q 273.46 146.23 266.30 146.22"
/>
<path stroke="#918f90" vector-effect="non-scaling-stroke" d="
  M 62.43 175.07
  Q 66.79 174.22 71.40 175.13
  A 0.87 0.78 48.2 0 0 71.58 175.15
  L 82.84 175.01
  A 0.04 0.04 0.0 0 0 82.86 174.94
  L 80.05 172.60
  A 0.44 0.41 21.5 0 1 79.90 172.28
  L 79.90 161.72
  A 0.44 0.43 -62.3 0 1 80.69 161.47
  Q 84.97 167.73 88.68 172.61
  Q 91.01 175.68 95.26 175.28
  Q 102.44 174.60 107.93 175.15
  A 0.23 0.23 0.0 0 0 108.10 174.75
  L 105.71 172.76
  A 0.78 0.76 -70.8 0 1 105.43 172.16
  L 105.43 162.87
  A 0.37 0.37 0.0 0 1 106.09 162.64
  L 114.15 172.48
  A 6.29 6.26 -16.1 0 0 118.27 174.74
  L 122.91 175.30
  A 0.72 0.72 0.0 0 0 123.47 174.04
  Q 116.19 167.66 109.90 158.25
  A 0.74 0.72 -43.5 0 1 109.93 157.40
  Q 115.18 150.50 120.29 146.62
  A 0.39 0.39 0.0 0 0 119.99 145.92
  Q 115.39 146.61 111.58 145.89
  A 0.23 0.22 -19.6 0 0 111.39 146.28
  L 112.50 147.21
  A 1.73 1.73 0.0 0 1 112.73 149.64
  L 106.16 157.52
  A 0.42 0.41 65.0 0 1 105.43 157.25
  L 105.43 148.64
  A 0.86 0.84 -32.1 0 1 105.52 148.26
  Q 105.89 147.58 106.89 147.22
  A 0.40 0.40 0.0 0 0 106.76 146.45
  L 98.20 146.45
  A 0.08 0.08 0.0 0 0 98.12 146.52
  L 98.09 146.79
  A 0.35 0.34 -83.4 0 0 98.39 147.18
  Q 99.40 147.30 99.85 147.93
  A 0.43 0.41 -64.2 0 1 99.93 148.18
  L 99.93 172.05
  A 0.96 0.87 56.2 0 1 99.89 172.32
  Q 99.52 173.41 98.57 174.39
  A 0.96 0.95 47.6 0 1 97.14 174.32
  L 86.91 161.84
  A 0.20 0.20 0.0 0 1 87.00 161.52
  Q 92.39 159.78 92.85 154.30
  Q 93.44 147.22 87.22 145.89
  A 1.92 1.77 -36.0 0 0 86.79 145.84
  L 72.30 145.81
  A 0.37 0.36 57.5 0 0 72.15 146.51
  L 73.85 147.31
  A 1.62 1.61 -78.5 0 1 74.78 148.73
  Q 74.86 151.19 74.81 171.49
  Q 74.80 173.09 72.23 174.58
  A 0.80 0.80 0.0 0 1 71.35 174.52
  Q 69.24 172.89 68.20 169.78
  Q 64.90 159.91 60.61 146.62
  A 0.96 0.96 0.0 0 0 59.69 145.94
  L 57.25 145.94
  A 1.36 1.35 8.8 0 0 55.96 146.88
  L 48.28 170.90
  A 4.42 4.37 -16.5 0 1 47.48 172.35
  L 45.54 174.68
  A 0.22 0.21 -75.2 0 0 45.74 175.03
  Q 49.47 174.37 53.07 175.05
  A 0.35 0.35 0.0 0 0 53.36 174.43
  L 50.97 172.44
  A 0.82 0.82 0.0 0 1 50.72 171.55
  L 53.21 164.15
  A 0.84 0.84 0.0 0 1 54.01 163.57
  L 60.22 163.57
  A 0.90 0.90 0.0 0 1 61.07 164.18
  L 63.69 171.89
  A 1.38 1.38 0.0 0 1 63.45 173.20
  L 62.20 174.69
  A 0.24 0.24 0.0 0 0 62.43 175.07"
/>
<path stroke="#918f90" vector-effect="non-scaling-stroke" d="
  M 246.33 146.74
  Q 247.36 147.30 248.01 147.54
  A 1.07 1.05 -79.6 0 1 248.68 148.53
  L 248.68 165.64
  A 0.32 0.31 -64.5 0 1 248.12 165.84
  L 232.57 146.87
  A 1.84 1.82 70.1 0 0 231.16 146.20
  L 228.10 146.20
  A 0.57 0.57 0.0 0 0 227.53 146.77
  L 227.53 170.71
  A 2.24 2.23 -28.4 0 1 227.16 171.94
  Q 226.41 173.10 224.78 174.16
  A 0.70 0.69 -40.6 0 1 223.95 174.10
  Q 222.08 172.49 221.60 171.13
  Q 219.47 165.02 213.50 146.48
  A 0.92 0.92 0.0 0 0 212.43 145.87
  Q 211.29 146.13 210.09 145.92
  A 0.96 0.95 -75.9 0 0 209.02 146.57
  L 201.19 170.85
  A 4.74 4.73 73.7 0 1 200.32 172.44
  L 198.75 174.32
  A 0.40 0.40 0.0 0 0 199.12 174.97
  Q 202.39 174.41 206.21 175.04
  A 0.27 0.27 0.0 0 0 206.42 174.57
  L 203.94 172.51
  A 0.96 0.95 30.0 0 1 203.65 171.46
  L 206.12 164.09
  A 0.75 0.75 0.0 0 1 206.83 163.58
  L 213.27 163.58
  A 0.72 0.71 -9.0 0 1 213.95 164.07
  L 216.52 171.64
  A 1.98 1.96 -48.3 0 1 216.58 172.74
  Q 216.37 173.59 214.95 174.71
  A 0.06 0.06 0.0 0 0 214.99 174.81
  L 234.05 174.81
  A 0.09 0.09 0.0 0 0 234.11 174.65
  L 231.23 172.25
  A 1.08 1.06 -70.6 0 1 230.84 171.42
  L 230.84 154.64
  A 0.37 0.37 0.0 0 1 231.49 154.41
  L 247.76 174.28
  A 0.98 0.97 -19.5 0 0 248.51 174.63
  L 251.76 174.63
  A 0.56 0.56 0.0 0 0 252.32 174.07
  L 252.32 148.64
  A 1.11 1.10 80.9 0 1 253.07 147.59
  L 254.31 147.16
  A 0.46 0.46 0.0 0 0 254.16 146.26
  L 246.45 146.26
  A 0.26 0.25 59.3 0 0 246.33 146.74"
/>
<path stroke="#918f90" vector-effect="non-scaling-stroke" d="
  M 290.11 174.79
  L 299.45 174.79
  A 0.09 0.08 64.5 0 0 299.50 174.64
  C 297.55 173.01 296.91 172.29 296.07 169.82
  Q 293.44 162.12 288.47 146.56
  A 0.98 0.98 0.0 0 0 287.24 145.92
  Q 286.24 146.23 285.11 145.89
  A 0.97 0.97 0.0 0 0 283.91 146.54
  Q 279.25 161.42 276.52 169.63
  C 275.75 171.97 274.89 172.78 273.35 174.56
  A 0.16 0.15 20.3 0 0 273.47 174.82
  L 281.08 174.81
  A 0.20 0.20 0.0 0 0 281.20 174.46
  L 278.99 172.61
  A 1.18 1.17 -61.1 0 1 278.63 171.34
  L 281.10 163.98
  A 0.59 0.58 -80.5 0 1 281.65 163.58
  L 288.08 163.58
  A 0.90 0.89 80.7 0 1 288.92 164.19
  L 291.57 171.96
  A 1.20 1.20 0.0 0 1 291.36 173.12
  L 290.06 174.67
  A 0.07 0.07 0.0 0 0 290.11 174.79"
/>
<path stroke="#918f90" vector-effect="non-scaling-stroke" d="
  M 43.84 169.23
  C 42.93 171.05 42.67 172.14 40.13 172.19
  Q 37.29 172.25 36.52 172.08
  A 0.75 0.75 0.0 0 1 35.93 171.35
  L 35.93 149.55
  A 1.62 1.57 -29.1 0 1 36.19 148.68
  Q 36.73 147.84 37.96 147.24
  A 0.33 0.33 0.0 0 0 37.82 146.62
  L 28.87 146.62
  A 0.35 0.35 0.0 0 0 28.76 147.30
  Q 30.12 147.78 30.63 148.66
  A 1.93 1.88 30.8 0 1 30.88 149.60
  Q 30.83 159.58 30.91 170.74
  C 30.92 172.93 30.15 173.76 28.36 174.80
  A 0.26 0.26 0.0 0 0 28.49 175.28
  L 43.23 175.28
  A 0.97 0.97 0.0 0 0 44.20 174.31
  L 44.20 169.31
  A 0.19 0.19 0.0 0 0 43.84 169.23"
/>
<path stroke="#918f90" vector-effect="non-scaling-stroke" d="
  M 197.42 169.24
  C 196.50 171.06 196.24 172.14 193.70 172.19
  Q 190.87 172.24 190.10 172.07
  A 0.75 0.75 0.0 0 1 189.51 171.34
  L 189.55 149.57
  A 1.62 1.57 -29.0 0 1 189.81 148.70
  Q 190.36 147.87 191.59 147.27
  A 0.33 0.32 -57.8 0 0 191.45 146.65
  L 182.51 146.63
  A 0.35 0.35 0.0 0 0 182.40 147.31
  Q 183.75 147.79 184.26 148.67
  A 1.92 1.88 30.9 0 1 184.51 149.61
  Q 184.44 159.58 184.50 170.72
  C 184.51 172.91 183.74 173.74 181.95 174.77
  A 0.26 0.26 0.0 0 0 182.07 175.25
  L 196.79 175.28
  A 0.97 0.97 0.0 0 0 197.77 174.31
  L 197.77 169.32
  A 0.19 0.19 0.0 0 0 197.42 169.24"
/>
<path stroke="#918f90" vector-effect="non-scaling-stroke" d="
  M 187.80 208.02
  L 187.80 213.24
  A 1.80 1.79 7.0 0 0 189.17 214.98
  C 194.74 216.39 201.21 216.88 203.90 210.66
  C 208.42 200.21 190.35 196.32 192.99 190.12
  C 194.37 186.88 197.88 187.02 200.28 189.07
  Q 201.69 190.28 202.80 192.29
  A 0.27 0.27 0.0 0 0 203.31 192.16
  L 203.31 187.16
  A 1.24 1.24 0.0 0 0 202.50 186.00
  C 197.50 184.17 191.99 183.95 188.80 188.42
  C 186.42 191.78 187.08 196.46 190.15 199.01
  C 194.40 202.52 196.83 204.19 199.02 207.30
  A 2.13 2.08 23.8 0 1 199.40 208.25
  Q 199.94 212.09 195.68 212.45
  Q 190.27 212.91 188.26 207.93
  A 0.24 0.24 0.0 0 0 187.80 208.02"
/>
<path stroke="#918f90" vector-effect="non-scaling-stroke" d="
  M 254.98 214.90
  L 252.88 213.91
  A 1.20 1.19 13.2 0 1 252.20 212.82
  L 252.35 200.74
  A 2.20 2.15 59.0 0 1 252.56 199.85
  L 257.60 189.16
  A 1.16 1.10 -9.7 0 1 257.84 188.84
  L 260.56 186.40
  A 0.24 0.24 0.0 0 0 260.40 185.98
  L 253.53 185.98
  A 0.18 0.17 62.9 0 0 253.43 186.30
  Q 254.39 187.02 254.61 187.63
  A 1.46 1.44 48.4 0 1 254.55 188.74
  L 251.20 195.52
  A 0.40 0.40 0.0 0 1 250.50 195.54
  L 246.26 188.21
  A 5.67 5.64 -11.4 0 0 242.03 185.42
  L 239.18 185.08
  A 0.95 0.94 -18.8 0 0 238.39 186.68
  Q 241.37 189.72 244.23 195.42
  C 245.13 197.22 246.83 200.24 246.85 202.58
  Q 246.90 207.85 246.91 212.31
  A 1.71 1.66 -28.0 0 1 246.60 213.28
  Q 245.93 214.23 244.68 214.81
  A 0.29 0.29 0.0 0 0 244.80 215.36
  L 254.87 215.36
  A 0.24 0.24 0.0 0 0 254.98 214.90"
/>
<path stroke="#918f90" vector-effect="non-scaling-stroke" d="
  M 172.20 214.88
  Q 170.41 214.23 169.49 213.42
  A 1.46 1.44 -69.3 0 1 169.01 212.34
  L 169.01 201.97
  A 0.40 0.40 0.0 0 1 169.73 201.74
  L 178.12 213.40
  A 4.80 4.77 75.4 0 0 181.43 215.36
  L 185.46 215.84
  A 0.82 0.82 0.0 0 0 186.19 214.51
  L 176.36 202.51
  A 0.51 0.51 0.0 0 1 176.56 201.71
  Q 183.52 198.83 181.84 191.43
  Q 180.69 186.37 175.80 186.31
  Q 162.67 186.15 161.82 186.10
  A 0.54 0.54 0.0 0 0 161.66 187.17
  Q 162.81 187.46 163.52 188.19
  A 1.36 1.35 -66.9 0 1 163.89 189.12
  L 163.89 212.11
  A 1.84 1.82 -31.4 0 1 163.68 212.96
  Q 163.01 214.21 161.61 214.67
  A 0.35 0.35 0.0 0 0 161.72 215.36
  L 172.12 215.36
  A 0.25 0.25 0.0 0 0 172.20 214.88"
/>
<path stroke="#918f90" vector-effect="non-scaling-stroke" d="
  M 226.17 186.49
  Q 219.01 186.51 217.00 186.16
  A 0.53 0.53 0.0 0 0 216.38 186.68
  L 216.37 191.85
  A 0.25 0.25 0.0 0 0 216.83 191.99
  Q 217.02 191.71 217.69 190.23
  A 1.16 1.16 0.0 0 1 218.75 189.56
  L 223.20 189.56
  A 0.57 0.57 0.0 0 1 223.77 190.13
  L 223.73 212.26
  A 1.20 1.18 -19.9 0 1 223.29 213.18
  L 221.11 214.95
  A 0.18 0.18 0.0 0 0 221.24 215.27
  Q 223.75 215.06 226.24 215.05
  Q 228.72 215.05 231.23 215.25
  A 0.18 0.18 0.0 0 0 231.36 214.93
  L 229.18 213.17
  A 1.20 1.18 19.6 0 1 228.73 212.25
  L 228.59 190.12
  A 0.57 0.57 0.0 0 1 229.16 189.55
  L 233.61 189.52
  A 1.16 1.16 0.0 0 1 234.68 190.19
  Q 235.34 191.67 235.54 191.95
  A 0.25 0.25 0.0 0 0 235.99 191.80
  L 235.96 186.63
  A 0.53 0.53 0.0 0 0 235.34 186.12
  Q 233.33 186.48 226.17 186.49"
/>
<path stroke="#918f90" vector-effect="non-scaling-stroke" d="
  M 210.33 215.34
  Q 212.60 215.33 214.85 215.37
  A 0.31 0.31 0.0 0 0 214.98 214.78
  Q 213.80 214.24 213.16 213.29
  A 1.91 1.87 -62.8 0 1 212.83 212.22
  L 212.77 189.28
  A 0.96 0.87 56.2 0 1 212.81 189.01
  Q 213.12 187.95 214.69 187.10
  A 0.39 0.39 0.0 0 0 214.47 186.37
  Q 213.51 186.47 210.22 186.48
  Q 206.93 186.50 205.97 186.40
  A 0.39 0.39 0.0 0 0 205.75 187.13
  Q 207.33 187.97 207.65 189.03
  A 0.96 0.87 -56.7 0 1 207.69 189.30
  L 207.80 212.24
  A 1.91 1.87 62.4 0 1 207.48 213.31
  Q 206.84 214.27 205.67 214.81
  A 0.31 0.31 0.0 0 0 205.81 215.40
  Q 208.05 215.35 210.33 215.34"
/>
<path stroke="#918f90" vector-effect="non-scaling-stroke" d="
  M 99.61 186.91
  C 97.15 187.31 95.64 187.27 92.32 186.94
  A 0.21 0.20 -21.7 0 0 92.16 187.30
  L 94.02 188.85
  A 1.07 1.05 20.4 0 1 94.40 189.66
  L 94.40 206.45
  A 0.36 0.36 0.0 0 1 93.76 206.68
  L 77.95 187.38
  A 1.20 1.19 -24.0 0 0 76.85 186.96
  Q 75.44 187.19 73.87 186.86
  A 0.45 0.45 0.0 0 0 73.32 187.30
  Q 73.29 202.11 73.33 210.09
  C 73.34 212.94 72.39 213.95 69.99 215.12
  A 0.31 0.31 0.0 0 0 70.13 215.71
  L 79.78 215.71
  A 0.13 0.13 0.0 0 0 79.87 215.48
  L 76.89 213.00
  A 1.22 1.20 -70.0 0 1 76.47 212.08
  L 76.47 195.68
  A 0.44 0.44 0.0 0 1 77.26 195.40
  L 93.53 215.25
  A 0.84 0.83 -19.3 0 0 94.18 215.56
  L 97.21 215.56
  A 0.58 0.58 0.0 0 0 97.79 214.98
  L 97.79 189.87
  A 1.48 1.46 78.5 0 1 98.67 188.52
  Q 99.53 188.14 99.99 187.55
  A 0.40 0.40 0.0 0 0 99.61 186.91"
/>
<path stroke="#918f90" vector-effect="non-scaling-stroke" d="
  M 159.03 210.86
  L 158.15 211.93
  A 1.17 1.17 0.0 0 1 157.27 212.33
  L 151.09 212.33
  A 0.59 0.58 0.0 0 1 150.50 211.75
  L 150.50 202.64
  A 0.58 0.57 0.0 0 1 151.08 202.07
  L 154.86 202.07
  A 1.28 1.26 -19.3 0 1 155.85 202.54
  L 157.03 203.98
  A 0.27 0.27 0.0 0 0 157.50 203.81
  L 157.50 198.55
  A 0.44 0.44 0.0 0 0 156.84 198.17
  Q 156.48 198.38 156.01 199.06
  A 1.21 1.21 0.0 0 1 155.01 199.59
  L 150.98 199.59
  A 0.58 0.58 0.0 0 1 150.40 199.01
  L 150.40 189.81
  A 0.66 0.66 0.0 0 1 151.06 189.15
  L 156.62 189.15
  A 1.25 1.23 74.8 0 1 157.69 189.77
  L 158.85 191.78
  A 0.31 0.30 30.1 0 0 159.42 191.63
  L 159.42 187.63
  A 0.70 0.69 0.0 0 0 158.72 186.94
  L 143.46 186.94
  A 0.10 0.10 0.0 0 0 143.39 187.12
  L 144.93 188.40
  A 1.52 1.50 -70.3 0 1 145.47 189.56
  L 145.47 212.74
  A 1.16 1.11 59.0 0 1 145.36 213.23
  Q 144.89 214.19 143.66 214.65
  A 0.41 0.41 0.0 0 0 143.81 215.44
  L 158.63 215.44
  A 0.65 0.64 3.5 0 0 159.27 214.88
  L 159.71 211.15
  A 0.39 0.38 -21.7 0 0 159.03 210.86"
/>
<path stroke="#831c2b" vector-effect="non-scaling-stroke" d="
  M 131.71 71.24
  Q 132.04 72.40 131.72 74.09"
/>
<path stroke="#831c2b" vector-effect="non-scaling-stroke" d="
  M 182.25 49.18
  L 181.05 45.68"
/>
<path stroke="#918f90" vector-effect="non-scaling-stroke" d="
  M 181.05 45.68
  L 174.39 26.08
  A 0.31 0.31 0.0 0 0 173.80 26.08
  Q 170.38 36.16 164.91 45.73"
/>
<path stroke="#831c2b" vector-effect="non-scaling-stroke" d="
  M 164.91 45.73
  L 163.49 48.33"
/>
<path stroke="#918f90" vector-effect="non-scaling-stroke" d="
  M 163.49 48.33
  Q 159.13 55.23 153.59 61.32
  Q 146.04 69.62 134.87 73.47"
/>
<path stroke="#831c2b" vector-effect="non-scaling-stroke" d="
  M 134.87 73.47
  L 134.88 70.60"
/>
<path stroke="#f18c9b" vector-effect="non-scaling-stroke" d="
  M 181.05 45.68
  L 164.91 45.73"
/>
<path stroke="#f18c9b" vector-effect="non-scaling-stroke" d="
  M 134.87 73.47
  Q 134.70 83.16 134.76 93.25
  Q 134.82 102.17 136.35 105.37
  C 139.93 112.82 148.46 115.66 156.11 113.35
  Q 161.32 111.78 163.83 106.93
  Q 165.39 103.91 165.42 94.33
  Q 165.48 79.12 165.40 49.75
  Q 165.40 48.73 163.49 48.33"
/>
<path stroke="#918f90" vector-effect="non-scaling-stroke" d="
  M 143.42 158.44
  A 0.34 0.34 0.0 0 0 143.76 158.87
  L 149.51 158.68
  A 0.34 0.34 0.0 0 0 149.82 158.23
  L 146.65 149.32
  A 0.34 0.34 0.0 0 0 146.00 149.35
  L 143.42 158.44"
/>
<path stroke="#918f90" vector-effect="non-scaling-stroke" d="
  M 79.93 148.54
  L 79.87 158.92
  A 0.45 0.45 0.0 0 0 80.32 159.37
  L 82.41 159.38
  A 5.36 5.24 -89.7 0 0 87.68 154.05
  L 87.68 153.49
  A 5.36 5.24 -89.7 0 0 82.47 148.10
  L 80.38 148.09
  A 0.45 0.45 0.0 0 0 79.93 148.54"
/>
<path stroke="#918f90" vector-effect="non-scaling-stroke" d="
  M 54.31 160.91
  A 0.35 0.35 0.0 0 0 54.65 161.35
  L 59.43 161.26
  A 0.35 0.35 0.0 0 0 59.76 160.80
  L 57.22 153.04
  A 0.35 0.35 0.0 0 0 56.55 153.06
  L 54.31 160.91"
/>
<path stroke="#918f90" vector-effect="non-scaling-stroke" d="
  M 207.20 160.95
  A 0.30 0.30 0.0 0 0 207.50 161.33
  L 212.43 161.26
  A 0.30 0.30 0.0 0 0 212.71 160.87
  L 210.13 153.01
  A 0.30 0.30 0.0 0 0 209.56 153.02
  L 207.20 160.95"
/>
<path stroke="#918f90" vector-effect="non-scaling-stroke" d="
  M 282.18 160.89
  A 0.35 0.35 0.0 0 0 282.52 161.34
  L 287.29 161.27
  A 0.35 0.35 0.0 0 0 287.62 160.81
  L 285.11 153.13
  A 0.35 0.35 0.0 0 0 284.45 153.14
  L 282.18 160.89"
/>
<path stroke="#918f90" vector-effect="non-scaling-stroke" d="
  M 169.29 188.81
  L 169.31 199.37
  A 0.41 0.41 0.0 0 0 169.72 199.78
  L 171.59 199.77
  A 5.28 5.25 -0.1 0 0 176.86 194.51
  L 176.86 193.63
  A 5.28 5.25 -0.1 0 0 171.57 188.39
  L 169.70 188.40
  A 0.41 0.41 0.0 0 0 169.29 188.81"
/>
</g>
<g>
<path fill="#ffffff" d="
  M 123.43 0.00
  C 109.35 2.59 98.76 14.13 95.02 27.56
  C 88.89 49.58 106.20 78.69 131.72 74.09
  Q 131.95 86.60 132.09 99.25
  Q 132.18 107.57 138.05 112.43
  C 146.24 119.21 161.43 119.22 170.48 114.96
  Q 176.87 111.95 179.83 104.91
  Q 181.26 101.50 181.08 90.92
  Q 180.98 85.65 181.03 50.40
  A 1.23 1.23 0.0 0 1 181.16 49.85
  Q 181.59 49.03 182.25 49.18
  L 189.29 69.52
  A 0.43 0.43 0.0 0 1 188.88 70.09
  L 184.70 70.09
  A 0.93 0.93 0.0 0 0 183.77 71.02
  L 183.77 71.64
  A 0.95 0.95 0.0 0 0 184.72 72.59
  L 210.75 72.59
  A 0.80 0.80 0.0 0 0 211.55 71.79
  L 211.55 70.88
  A 0.83 0.83 0.0 0 0 210.72 70.05
  L 206.23 70.05
  A 1.65 1.65 0.0 0 1 204.67 68.93
  L 181.60 1.12
  A 0.82 0.82 0.0 0 0 180.04 1.12
  Q 174.91 16.29 170.35 27.36
  Q 164.07 42.61 160.59 48.07
  C 154.34 57.86 146.18 66.91 134.88 70.60
  Q 134.63 62.55 134.69 54.50
  Q 134.70 52.11 135.76 50.09
  A 2.95 2.93 13.6 0 1 138.37 48.51
  L 142.59 48.51
  A 0.71 0.71 0.0 0 0 143.30 47.80
  L 143.30 46.98
  A 0.80 0.79 0.0 0 0 142.50 46.19
  L 124.05 46.19
  A 0.75 0.74 0.0 0 0 123.30 46.93
  L 123.30 47.85
  A 0.76 0.75 0.8 0 0 124.04 48.60
  C 125.40 48.64 127.45 48.44 128.36 48.72
  Q 131.41 49.69 131.56 53.39
  Q 131.91 62.36 131.71 71.24
  Q 118.53 72.95 114.41 60.97
  Q 112.71 56.04 112.60 52.23
  Q 112.29 42.36 112.48 21.78
  C 112.57 11.95 115.61 1.20 127.80 2.97
  C 136.75 4.27 142.40 11.62 145.06 19.87
  Q 145.37 20.83 145.78 20.95
  Q 146.29 21.10 147.02 20.94
  A 0.54 0.53 -6.9 0 0 147.43 20.42
  L 147.43 2.21
  A 0.99 0.99 0.0 0 0 145.81 1.44
  L 142.01 4.55
  A 1.08 1.08 0.0 0 1 140.72 4.61
  Q 135.29 1.00 128.49 0.00
  L 300.00 0.00
  L 300.00 216.00
  L 111.86 216.00
  L 110.21 213.58
  A 2.45 2.40 28.4 0 1 109.79 212.22
  L 109.79 189.80
  A 1.57 1.53 -26.9 0 1 110.11 188.86
  C 113.23 184.79 115.38 188.96 116.52 191.98
  Q 120.36 202.20 124.79 214.83
  A 0.79 0.77 -9.4 0 0 125.53 215.35
  L 130.28 215.35
  A 0.75 0.74 -80.6 0 0 130.98 214.84
  L 139.37 189.88
  A 1.24 1.14 76.4 0 1 139.57 189.52
  L 141.53 187.18
  A 0.25 0.25 0.0 0 0 141.33 186.77
  L 133.78 186.77
  A 0.24 0.24 0.0 0 0 133.71 187.24
  Q 135.05 187.67 135.61 188.79
  A 1.34 1.30 -49.8 0 1 135.68 189.79
  L 129.28 208.82
  A 0.32 0.32 0.0 0 1 128.67 208.83
  L 121.51 189.49
  A 0.72 0.71 36.4 0 1 121.46 189.18
  Q 121.48 188.04 122.85 187.17
  A 0.25 0.25 0.0 0 0 122.72 186.70
  Q 114.22 186.57 106.42 187.14
  Q 106.13 187.16 104.66 186.97
  Q 102.80 186.73 102.62 186.80
  A 0.28 0.28 0.0 0 0 102.59 187.31
  Q 103.32 187.72 104.48 189.30
  A 1.60 1.54 -64.0 0 1 104.78 190.23
  L 104.78 212.67
  A 2.09 2.07 -31.9 0 1 104.56 213.60
  Q 104.05 214.60 102.98 215.27
  A 0.31 0.31 0.0 0 0 103.14 215.85
  L 110.13 216.00
  L 59.64 216.00
  C 69.86 213.95 69.64 206.50 69.56 196.96
  Q 69.52 191.86 69.68 183.76
  A 1.19 1.15 71.9 0 1 70.10 182.90
  L 71.54 181.72
  A 0.30 0.29 25.1 0 0 71.35 181.20
  L 63.32 181.20
  A 0.17 0.16 64.7 0 0 63.22 181.49
  L 65.21 183.15
  A 1.10 1.10 0.0 0 1 65.61 184.00
  Q 65.71 202.30 65.52 204.72
  C 65.14 209.46 61.79 212.93 56.71 212.57
  C 50.13 212.11 49.62 206.42 49.65 200.54
  Q 49.72 184.37 49.66 183.99
  A 1.26 1.25 -25.0 0 1 50.10 182.80
  L 51.94 181.31
  A 0.15 0.15 0.0 0 0 51.85 181.04
  L 41.30 181.04
  A 0.15 0.15 0.0 0 0 41.21 181.30
  L 43.15 182.92
  A 1.48 1.44 21.1 0 1 43.67 184.05
  Q 43.63 191.27 43.74 203.24
  Q 43.83 214.03 54.12 216.00
  L 0.00 216.00
  L 0.00 160.27
  Q 2.39 171.95 13.41 174.76
  C 16.40 175.53 20.88 175.71 23.92 174.87
  Q 25.18 174.53 25.68 174.38
  A 0.62 0.61 85.8 0 0 26.12 173.86
  L 26.94 167.02
  A 0.20 0.20 0.0 0 0 26.58 166.89
  C 23.77 171.21 22.72 172.09 17.43 171.63
  C 7.98 170.79 5.86 162.68 6.36 154.61
  C 6.87 146.32 12.43 143.05 20.20 143.10
  C 23.30 143.12 24.86 145.61 25.67 148.07
  A 0.15 0.15 0.0 0 0 25.96 148.02
  L 25.96 140.70
  A 0.76 0.76 0.0 0 0 25.40 139.97
  C 13.99 136.99 2.40 142.69 0.00 154.80
  L 0.00 0.00
  L 123.43 0.00
  Z
  M 152.71 174.81
  L 163.66 174.81
  A 0.10 0.10 0.0 0 0 163.72 174.63
  C 161.44 172.72 160.69 171.88 159.70 168.98
  Q 156.62 159.94 150.79 141.69
  A 1.15 1.14 -17.2 0 0 149.35 140.94
  Q 148.18 141.30 146.85 140.90
  A 1.14 1.14 0.0 0 0 145.44 141.66
  Q 139.97 159.12 136.77 168.75
  C 135.86 171.49 134.86 172.44 133.05 174.53
  A 0.18 0.18 0.0 0 0 133.19 174.83
  L 142.11 174.83
  A 0.23 0.23 0.0 0 0 142.26 174.42
  L 139.67 172.25
  A 1.38 1.37 -61.1 0 1 139.24 170.75
  L 142.14 162.12
  A 0.69 0.68 -80.5 0 1 142.79 161.65
  L 150.33 161.65
  A 1.05 1.04 80.7 0 1 151.32 162.37
  L 154.42 171.49
  A 1.41 1.40 -34.6 0 1 154.17 172.85
  L 152.65 174.67
  A 0.09 0.08 -69.9 0 0 152.71 174.81
  Z
  M 170.91 146.23
  Q 163.74 146.26 161.73 145.91
  A 0.53 0.53 0.0 0 0 161.11 146.43
  L 161.11 151.61
  A 0.25 0.25 0.0 0 0 161.57 151.75
  Q 161.76 151.47 162.42 149.99
  A 1.17 1.16 12.2 0 1 163.48 149.31
  L 167.94 149.31
  A 0.57 0.57 0.0 0 1 168.51 149.88
  L 168.51 172.04
  A 1.20 1.18 -20.0 0 1 168.07 172.96
  L 165.89 174.74
  A 0.18 0.18 0.0 0 0 166.02 175.06
  Q 168.53 174.84 171.02 174.83
  Q 173.52 174.82 176.03 175.02
  A 0.18 0.18 0.0 0 0 176.16 174.70
  L 173.97 172.94
  A 1.20 1.18 19.5 0 1 173.52 172.02
  L 173.34 149.86
  A 0.57 0.57 0.0 0 1 173.91 149.29
  L 178.37 149.25
  A 1.17 1.16 -12.7 0 1 179.43 149.92
  Q 180.11 151.40 180.30 151.68
  A 0.25 0.25 0.0 0 0 180.76 151.53
  L 180.72 146.35
  A 0.53 0.53 0.0 0 0 180.09 145.84
  Q 178.08 146.20 170.91 146.23
  Z
  M 266.30 146.22
  Q 259.14 146.20 257.13 145.84
  A 0.53 0.53 0.0 0 0 256.50 146.35
  L 256.47 151.53
  A 0.25 0.25 0.0 0 0 256.93 151.67
  Q 257.12 151.39 257.79 149.92
  A 1.17 1.16 12.6 0 1 258.85 149.25
  L 263.31 149.27
  A 0.57 0.57 0.0 0 1 263.88 149.85
  L 263.74 171.99
  A 1.20 1.18 -19.6 0 1 263.29 172.90
  L 261.10 174.67
  A 0.18 0.18 0.0 0 0 261.23 174.99
  Q 263.74 174.78 266.23 174.79
  Q 268.72 174.79 271.23 175.01
  A 0.18 0.18 0.0 0 0 271.36 174.69
  L 269.18 172.92
  A 1.20 1.18 19.9 0 1 268.74 172.00
  L 268.71 149.86
  A 0.57 0.57 0.0 0 1 269.27 149.29
  L 273.73 149.28
  A 1.17 1.16 -12.3 0 1 274.79 149.96
  Q 275.45 151.44 275.64 151.72
  A 0.25 0.25 0.0 0 0 276.10 151.58
  L 276.09 146.40
  A 0.53 0.53 0.0 0 0 275.48 145.88
  Q 273.46 146.23 266.30 146.22
  Z
  M 62.43 175.07
  Q 66.79 174.22 71.40 175.13
  A 0.87 0.78 48.2 0 0 71.58 175.15
  L 82.84 175.01
  A 0.04 0.04 0.0 0 0 82.86 174.94
  L 80.05 172.60
  A 0.44 0.41 21.5 0 1 79.90 172.28
  L 79.90 161.72
  A 0.44 0.43 -62.3 0 1 80.69 161.47
  Q 84.97 167.73 88.68 172.61
  Q 91.01 175.68 95.26 175.28
  Q 102.44 174.60 107.93 175.15
  A 0.23 0.23 0.0 0 0 108.10 174.75
  L 105.71 172.76
  A 0.78 0.76 -70.8 0 1 105.43 172.16
  L 105.43 162.87
  A 0.37 0.37 0.0 0 1 106.09 162.64
  L 114.15 172.48
  A 6.29 6.26 -16.1 0 0 118.27 174.74
  L 122.91 175.30
  A 0.72 0.72 0.0 0 0 123.47 174.04
  Q 116.19 167.66 109.90 158.25
  A 0.74 0.72 -43.5 0 1 109.93 157.40
  Q 115.18 150.50 120.29 146.62
  A 0.39 0.39 0.0 0 0 119.99 145.92
  Q 115.39 146.61 111.58 145.89
  A 0.23 0.22 -19.6 0 0 111.39 146.28
  L 112.50 147.21
  A 1.73 1.73 0.0 0 1 112.73 149.64
  L 106.16 157.52
  A 0.42 0.41 65.0 0 1 105.43 157.25
  L 105.43 148.64
  A 0.86 0.84 -32.1 0 1 105.52 148.26
  Q 105.89 147.58 106.89 147.22
  A 0.40 0.40 0.0 0 0 106.76 146.45
  L 98.20 146.45
  A 0.08 0.08 0.0 0 0 98.12 146.52
  L 98.09 146.79
  A 0.35 0.34 -83.4 0 0 98.39 147.18
  Q 99.40 147.30 99.85 147.93
  A 0.43 0.41 -64.2 0 1 99.93 148.18
  L 99.93 172.05
  A 0.96 0.87 56.2 0 1 99.89 172.32
  Q 99.52 173.41 98.57 174.39
  A 0.96 0.95 47.6 0 1 97.14 174.32
  L 86.91 161.84
  A 0.20 0.20 0.0 0 1 87.00 161.52
  Q 92.39 159.78 92.85 154.30
  Q 93.44 147.22 87.22 145.89
  A 1.92 1.77 -36.0 0 0 86.79 145.84
  L 72.30 145.81
  A 0.37 0.36 57.5 0 0 72.15 146.51
  L 73.85 147.31
  A 1.62 1.61 -78.5 0 1 74.78 148.73
  Q 74.86 151.19 74.81 171.49
  Q 74.80 173.09 72.23 174.58
  A 0.80 0.80 0.0 0 1 71.35 174.52
  Q 69.24 172.89 68.20 169.78
  Q 64.90 159.91 60.61 146.62
  A 0.96 0.96 0.0 0 0 59.69 145.94
  L 57.25 145.94
  A 1.36 1.35 8.8 0 0 55.96 146.88
  L 48.28 170.90
  A 4.42 4.37 -16.5 0 1 47.48 172.35
  L 45.54 174.68
  A 0.22 0.21 -75.2 0 0 45.74 175.03
  Q 49.47 174.37 53.07 175.05
  A 0.35 0.35 0.0 0 0 53.36 174.43
  L 50.97 172.44
  A 0.82 0.82 0.0 0 1 50.72 171.55
  L 53.21 164.15
  A 0.84 0.84 0.0 0 1 54.01 163.57
  L 60.22 163.57
  A 0.90 0.90 0.0 0 1 61.07 164.18
  L 63.69 171.89
  A 1.38 1.38 0.0 0 1 63.45 173.20
  L 62.20 174.69
  A 0.24 0.24 0.0 0 0 62.43 175.07
  Z
  M 246.33 146.74
  Q 247.36 147.30 248.01 147.54
  A 1.07 1.05 -79.6 0 1 248.68 148.53
  L 248.68 165.64
  A 0.32 0.31 -64.5 0 1 248.12 165.84
  L 232.57 146.87
  A 1.84 1.82 70.1 0 0 231.16 146.20
  L 228.10 146.20
  A 0.57 0.57 0.0 0 0 227.53 146.77
  L 227.53 170.71
  A 2.24 2.23 -28.4 0 1 227.16 171.94
  Q 226.41 173.10 224.78 174.16
  A 0.70 0.69 -40.6 0 1 223.95 174.10
  Q 222.08 172.49 221.60 171.13
  Q 219.47 165.02 213.50 146.48
  A 0.92 0.92 0.0 0 0 212.43 145.87
  Q 211.29 146.13 210.09 145.92
  A 0.96 0.95 -75.9 0 0 209.02 146.57
  L 201.19 170.85
  A 4.74 4.73 73.7 0 1 200.32 172.44
  L 198.75 174.32
  A 0.40 0.40 0.0 0 0 199.12 174.97
  Q 202.39 174.41 206.21 175.04
  A 0.27 0.27 0.0 0 0 206.42 174.57
  L 203.94 172.51
  A 0.96 0.95 30.0 0 1 203.65 171.46
  L 206.12 164.09
  A 0.75 0.75 0.0 0 1 206.83 163.58
  L 213.27 163.58
  A 0.72 0.71 -9.0 0 1 213.95 164.07
  L 216.52 171.64
  A 1.98 1.96 -48.3 0 1 216.58 172.74
  Q 216.37 173.59 214.95 174.71
  A 0.06 0.06 0.0 0 0 214.99 174.81
  L 234.05 174.81
  A 0.09 0.09 0.0 0 0 234.11 174.65
  L 231.23 172.25
  A 1.08 1.06 -70.6 0 1 230.84 171.42
  L 230.84 154.64
  A 0.37 0.37 0.0 0 1 231.49 154.41
  L 247.76 174.28
  A 0.98 0.97 -19.5 0 0 248.51 174.63
  L 251.76 174.63
  A 0.56 0.56 0.0 0 0 252.32 174.07
  L 252.32 148.64
  A 1.11 1.10 80.9 0 1 253.07 147.59
  L 254.31 147.16
  A 0.46 0.46 0.0 0 0 254.16 146.26
  L 246.45 146.26
  A 0.26 0.25 59.3 0 0 246.33 146.74
  Z
  M 290.11 174.79
  L 299.45 174.79
  A 0.09 0.08 64.5 0 0 299.50 174.64
  C 297.55 173.01 296.91 172.29 296.07 169.82
  Q 293.44 162.12 288.47 146.56
  A 0.98 0.98 0.0 0 0 287.24 145.92
  Q 286.24 146.23 285.11 145.89
  A 0.97 0.97 0.0 0 0 283.91 146.54
  Q 279.25 161.42 276.52 169.63
  C 275.75 171.97 274.89 172.78 273.35 174.56
  A 0.16 0.15 20.3 0 0 273.47 174.82
  L 281.08 174.81
  A 0.20 0.20 0.0 0 0 281.20 174.46
  L 278.99 172.61
  A 1.18 1.17 -61.1 0 1 278.63 171.34
  L 281.10 163.98
  A 0.59 0.58 -80.5 0 1 281.65 163.58
  L 288.08 163.58
  A 0.90 0.89 80.7 0 1 288.92 164.19
  L 291.57 171.96
  A 1.20 1.20 0.0 0 1 291.36 173.12
  L 290.06 174.67
  A 0.07 0.07 0.0 0 0 290.11 174.79
  Z
  M 43.84 169.23
  C 42.93 171.05 42.67 172.14 40.13 172.19
  Q 37.29 172.25 36.52 172.08
  A 0.75 0.75 0.0 0 1 35.93 171.35
  L 35.93 149.55
  A 1.62 1.57 -29.1 0 1 36.19 148.68
  Q 36.73 147.84 37.96 147.24
  A 0.33 0.33 0.0 0 0 37.82 146.62
  L 28.87 146.62
  A 0.35 0.35 0.0 0 0 28.76 147.30
  Q 30.12 147.78 30.63 148.66
  A 1.93 1.88 30.8 0 1 30.88 149.60
  Q 30.83 159.58 30.91 170.74
  C 30.92 172.93 30.15 173.76 28.36 174.80
  A 0.26 0.26 0.0 0 0 28.49 175.28
  L 43.23 175.28
  A 0.97 0.97 0.0 0 0 44.20 174.31
  L 44.20 169.31
  A 0.19 0.19 0.0 0 0 43.84 169.23
  Z
  M 197.42 169.24
  C 196.50 171.06 196.24 172.14 193.70 172.19
  Q 190.87 172.24 190.10 172.07
  A 0.75 0.75 0.0 0 1 189.51 171.34
  L 189.55 149.57
  A 1.62 1.57 -29.0 0 1 189.81 148.70
  Q 190.36 147.87 191.59 147.27
  A 0.33 0.32 -57.8 0 0 191.45 146.65
  L 182.51 146.63
  A 0.35 0.35 0.0 0 0 182.40 147.31
  Q 183.75 147.79 184.26 148.67
  A 1.92 1.88 30.9 0 1 184.51 149.61
  Q 184.44 159.58 184.50 170.72
  C 184.51 172.91 183.74 173.74 181.95 174.77
  A 0.26 0.26 0.0 0 0 182.07 175.25
  L 196.79 175.28
  A 0.97 0.97 0.0 0 0 197.77 174.31
  L 197.77 169.32
  A 0.19 0.19 0.0 0 0 197.42 169.24
  Z
  M 187.80 208.02
  L 187.80 213.24
  A 1.80 1.79 7.0 0 0 189.17 214.98
  C 194.74 216.39 201.21 216.88 203.90 210.66
  C 208.42 200.21 190.35 196.32 192.99 190.12
  C 194.37 186.88 197.88 187.02 200.28 189.07
  Q 201.69 190.28 202.80 192.29
  A 0.27 0.27 0.0 0 0 203.31 192.16
  L 203.31 187.16
  A 1.24 1.24 0.0 0 0 202.50 186.00
  C 197.50 184.17 191.99 183.95 188.80 188.42
  C 186.42 191.78 187.08 196.46 190.15 199.01
  C 194.40 202.52 196.83 204.19 199.02 207.30
  A 2.13 2.08 23.8 0 1 199.40 208.25
  Q 199.94 212.09 195.68 212.45
  Q 190.27 212.91 188.26 207.93
  A 0.24 0.24 0.0 0 0 187.80 208.02
  Z
  M 254.98 214.90
  L 252.88 213.91
  A 1.20 1.19 13.2 0 1 252.20 212.82
  L 252.35 200.74
  A 2.20 2.15 59.0 0 1 252.56 199.85
  L 257.60 189.16
  A 1.16 1.10 -9.7 0 1 257.84 188.84
  L 260.56 186.40
  A 0.24 0.24 0.0 0 0 260.40 185.98
  L 253.53 185.98
  A 0.18 0.17 62.9 0 0 253.43 186.30
  Q 254.39 187.02 254.61 187.63
  A 1.46 1.44 48.4 0 1 254.55 188.74
  L 251.20 195.52
  A 0.40 0.40 0.0 0 1 250.50 195.54
  L 246.26 188.21
  A 5.67 5.64 -11.4 0 0 242.03 185.42
  L 239.18 185.08
  A 0.95 0.94 -18.8 0 0 238.39 186.68
  Q 241.37 189.72 244.23 195.42
  C 245.13 197.22 246.83 200.24 246.85 202.58
  Q 246.90 207.85 246.91 212.31
  A 1.71 1.66 -28.0 0 1 246.60 213.28
  Q 245.93 214.23 244.68 214.81
  A 0.29 0.29 0.0 0 0 244.80 215.36
  L 254.87 215.36
  A 0.24 0.24 0.0 0 0 254.98 214.90
  Z
  M 172.20 214.88
  Q 170.41 214.23 169.49 213.42
  A 1.46 1.44 -69.3 0 1 169.01 212.34
  L 169.01 201.97
  A 0.40 0.40 0.0 0 1 169.73 201.74
  L 178.12 213.40
  A 4.80 4.77 75.4 0 0 181.43 215.36
  L 185.46 215.84
  A 0.82 0.82 0.0 0 0 186.19 214.51
  L 176.36 202.51
  A 0.51 0.51 0.0 0 1 176.56 201.71
  Q 183.52 198.83 181.84 191.43
  Q 180.69 186.37 175.80 186.31
  Q 162.67 186.15 161.82 186.10
  A 0.54 0.54 0.0 0 0 161.66 187.17
  Q 162.81 187.46 163.52 188.19
  A 1.36 1.35 -66.9 0 1 163.89 189.12
  L 163.89 212.11
  A 1.84 1.82 -31.4 0 1 163.68 212.96
  Q 163.01 214.21 161.61 214.67
  A 0.35 0.35 0.0 0 0 161.72 215.36
  L 172.12 215.36
  A 0.25 0.25 0.0 0 0 172.20 214.88
  Z
  M 226.17 186.49
  Q 219.01 186.51 217.00 186.16
  A 0.53 0.53 0.0 0 0 216.38 186.68
  L 216.37 191.85
  A 0.25 0.25 0.0 0 0 216.83 191.99
  Q 217.02 191.71 217.69 190.23
  A 1.16 1.16 0.0 0 1 218.75 189.56
  L 223.20 189.56
  A 0.57 0.57 0.0 0 1 223.77 190.13
  L 223.73 212.26
  A 1.20 1.18 -19.9 0 1 223.29 213.18
  L 221.11 214.95
  A 0.18 0.18 0.0 0 0 221.24 215.27
  Q 223.75 215.06 226.24 215.05
  Q 228.72 215.05 231.23 215.25
  A 0.18 0.18 0.0 0 0 231.36 214.93
  L 229.18 213.17
  A 1.20 1.18 19.6 0 1 228.73 212.25
  L 228.59 190.12
  A 0.57 0.57 0.0 0 1 229.16 189.55
  L 233.61 189.52
  A 1.16 1.16 0.0 0 1 234.68 190.19
  Q 235.34 191.67 235.54 191.95
  A 0.25 0.25 0.0 0 0 235.99 191.80
  L 235.96 186.63
  A 0.53 0.53 0.0 0 0 235.34 186.12
  Q 233.33 186.48 226.17 186.49
  Z
  M 210.33 215.34
  Q 212.60 215.33 214.85 215.37
  A 0.31 0.31 0.0 0 0 214.98 214.78
  Q 213.80 214.24 213.16 213.29
  A 1.91 1.87 -62.8 0 1 212.83 212.22
  L 212.77 189.28
  A 0.96 0.87 56.2 0 1 212.81 189.01
  Q 213.12 187.95 214.69 187.10
  A 0.39 0.39 0.0 0 0 214.47 186.37
  Q 213.51 186.47 210.22 186.48
  Q 206.93 186.50 205.97 186.40
  A 0.39 0.39 0.0 0 0 205.75 187.13
  Q 207.33 187.97 207.65 189.03
  A 0.96 0.87 -56.7 0 1 207.69 189.30
  L 207.80 212.24
  A 1.91 1.87 62.4 0 1 207.48 213.31
  Q 206.84 214.27 205.67 214.81
  A 0.31 0.31 0.0 0 0 205.81 215.40
  Q 208.05 215.35 210.33 215.34
  Z
  M 99.61 186.91
  C 97.15 187.31 95.64 187.27 92.32 186.94
  A 0.21 0.20 -21.7 0 0 92.16 187.30
  L 94.02 188.85
  A 1.07 1.05 20.4 0 1 94.40 189.66
  L 94.40 206.45
  A 0.36 0.36 0.0 0 1 93.76 206.68
  L 77.95 187.38
  A 1.20 1.19 -24.0 0 0 76.85 186.96
  Q 75.44 187.19 73.87 186.86
  A 0.45 0.45 0.0 0 0 73.32 187.30
  Q 73.29 202.11 73.33 210.09
  C 73.34 212.94 72.39 213.95 69.99 215.12
  A 0.31 0.31 0.0 0 0 70.13 215.71
  L 79.78 215.71
  A 0.13 0.13 0.0 0 0 79.87 215.48
  L 76.89 213.00
  A 1.22 1.20 -70.0 0 1 76.47 212.08
  L 76.47 195.68
  A 0.44 0.44 0.0 0 1 77.26 195.40
  L 93.53 215.25
  A 0.84 0.83 -19.3 0 0 94.18 215.56
  L 97.21 215.56
  A 0.58 0.58 0.0 0 0 97.79 214.98
  L 97.79 189.87
  A 1.48 1.46 78.5 0 1 98.67 188.52
  Q 99.53 188.14 99.99 187.55
  A 0.40 0.40 0.0 0 0 99.61 186.91
  Z
  M 159.03 210.86
  L 158.15 211.93
  A 1.17 1.17 0.0 0 1 157.27 212.33
  L 151.09 212.33
  A 0.59 0.58 0.0 0 1 150.50 211.75
  L 150.50 202.64
  A 0.58 0.57 0.0 0 1 151.08 202.07
  L 154.86 202.07
  A 1.28 1.26 -19.3 0 1 155.85 202.54
  L 157.03 203.98
  A 0.27 0.27 0.0 0 0 157.50 203.81
  L 157.50 198.55
  A 0.44 0.44 0.0 0 0 156.84 198.17
  Q 156.48 198.38 156.01 199.06
  A 1.21 1.21 0.0 0 1 155.01 199.59
  L 150.98 199.59
  A 0.58 0.58 0.0 0 1 150.40 199.01
  L 150.40 189.81
  A 0.66 0.66 0.0 0 1 151.06 189.15
  L 156.62 189.15
  A 1.25 1.23 74.8 0 1 157.69 189.77
  L 158.85 191.78
  A 0.31 0.30 30.1 0 0 159.42 191.63
  L 159.42 187.63
  A 0.70 0.69 0.0 0 0 158.72 186.94
  L 143.46 186.94
  A 0.10 0.10 0.0 0 0 143.39 187.12
  L 144.93 188.40
  A 1.52 1.50 -70.3 0 1 145.47 189.56
  L 145.47 212.74
  A 1.16 1.11 59.0 0 1 145.36 213.23
  Q 144.89 214.19 143.66 214.65
  A 0.41 0.41 0.0 0 0 143.81 215.44
  L 158.63 215.44
  A 0.65 0.64 3.5 0 0 159.27 214.88
  L 159.71 211.15
  A 0.39 0.38 -21.7 0 0 159.03 210.86
  Z"
/>
<path fill="#231f20" d="
  M 128.49 0.00
  Q 135.29 1.00 140.72 4.61
  A 1.08 1.08 0.0 0 0 142.01 4.55
  L 145.81 1.44
  A 0.99 0.99 0.0 0 1 147.43 2.21
  L 147.43 20.42
  A 0.54 0.53 -6.9 0 1 147.02 20.94
  Q 146.29 21.10 145.78 20.95
  Q 145.37 20.83 145.06 19.87
  C 142.40 11.62 136.75 4.27 127.80 2.97
  C 115.61 1.20 112.57 11.95 112.48 21.78
  Q 112.29 42.36 112.60 52.23
  Q 112.71 56.04 114.41 60.97
  Q 118.53 72.95 131.71 71.24
  Q 132.04 72.40 131.72 74.09
  C 106.20 78.69 88.89 49.58 95.02 27.56
  C 98.76 14.13 109.35 2.59 123.43 0.00
  L 128.49 0.00
  Z"
/>
<path fill="#231f20" d="
  M 182.25 49.18
  L 181.05 45.68
  L 174.39 26.08
  A 0.31 0.31 0.0 0 0 173.80 26.08
  Q 170.38 36.16 164.91 45.73
  L 163.49 48.33
  Q 159.13 55.23 153.59 61.32
  Q 146.04 69.62 134.87 73.47
  L 134.88 70.60
  C 146.18 66.91 154.34 57.86 160.59 48.07
  Q 164.07 42.61 170.35 27.36
  Q 174.91 16.29 180.04 1.12
  A 0.82 0.82 0.0 0 1 181.60 1.12
  L 204.67 68.93
  A 1.65 1.65 0.0 0 0 206.23 70.05
  L 210.72 70.05
  A 0.83 0.83 0.0 0 1 211.55 70.88
  L 211.55 71.79
  A 0.80 0.80 0.0 0 1 210.75 72.59
  L 184.72 72.59
  A 0.95 0.95 0.0 0 1 183.77 71.64
  L 183.77 71.02
  A 0.93 0.93 0.0 0 1 184.70 70.09
  L 188.88 70.09
  A 0.43 0.43 0.0 0 0 189.29 69.52
  L 182.25 49.18
  Z"
/>
<path fill="#ffffff" d="
  M 181.05 45.68
  L 164.91 45.73
  Q 170.38 36.16 173.80 26.08
  A 0.31 0.31 0.0 0 1 174.39 26.08
  L 181.05 45.68
  Z"
/>
<path fill="#e31836" d="
  M 181.05 45.68
  L 182.25 49.18
  Q 181.59 49.03 181.16 49.85
  A 1.23 1.23 0.0 0 0 181.03 50.40
  Q 180.98 85.65 181.08 90.92
  Q 181.26 101.50 179.83 104.91
  Q 176.87 111.95 170.48 114.96
  C 161.43 119.22 146.24 119.21 138.05 112.43
  Q 132.18 107.57 132.09 99.25
  Q 131.95 86.60 131.72 74.09
  Q 132.04 72.40 131.71 71.24
  Q 131.91 62.36 131.56 53.39
  Q 131.41 49.69 128.36 48.72
  C 127.45 48.44 125.40 48.64 124.04 48.60
  A 0.76 0.75 0.8 0 1 123.30 47.85
  L 123.30 46.93
  A 0.75 0.74 -0.0 0 1 124.05 46.19
  L 142.50 46.19
  A 0.80 0.79 0.0 0 1 143.30 46.98
  L 143.30 47.80
  A 0.71 0.71 0.0 0 1 142.59 48.51
  L 138.37 48.51
  A 2.95 2.93 13.6 0 0 135.76 50.09
  Q 134.70 52.11 134.69 54.50
  Q 134.63 62.55 134.88 70.60
  L 134.87 73.47
  Q 134.70 83.16 134.76 93.25
  Q 134.82 102.17 136.35 105.37
  C 139.93 112.82 148.46 115.66 156.11 113.35
  Q 161.32 111.78 163.83 106.93
  Q 165.39 103.91 165.42 94.33
  Q 165.48 79.12 165.40 49.75
  Q 165.40 48.73 163.49 48.33
  L 164.91 45.73
  L 181.05 45.68
  Z"
/>
<path fill="#ffffff" d="
  M 163.49 48.33
  Q 165.40 48.73 165.40 49.75
  Q 165.48 79.12 165.42 94.33
  Q 165.39 103.91 163.83 106.93
  Q 161.32 111.78 156.11 113.35
  C 148.46 115.66 139.93 112.82 136.35 105.37
  Q 134.82 102.17 134.76 93.25
  Q 134.70 83.16 134.87 73.47
  Q 146.04 69.62 153.59 61.32
  Q 159.13 55.23 163.49 48.33
  Z"
/>
<path fill="#231f20" d="
  M 0.00 160.27
  L 0.00 154.80
  C 2.40 142.69 13.99 136.99 25.40 139.97
  A 0.76 0.76 0.0 0 1 25.96 140.70
  L 25.96 148.02
  A 0.15 0.15 0.0 0 1 25.67 148.07
  C 24.86 145.61 23.30 143.12 20.20 143.10
  C 12.43 143.05 6.87 146.32 6.36 154.61
  C 5.86 162.68 7.98 170.79 17.43 171.63
  C 22.72 172.09 23.77 171.21 26.58 166.89
  A 0.20 0.20 0.0 0 1 26.94 167.02
  L 26.12 173.86
  A 0.62 0.61 85.8 0 1 25.68 174.38
  Q 25.18 174.53 23.92 174.87
  C 20.88 175.71 16.40 175.53 13.41 174.76
  Q 2.39 171.95 0.00 160.27
  Z"
/>
<path fill="#231f20" d="
  M 59.64 216.00
  L 54.12 216.00
  Q 43.83 214.03 43.74 203.24
  Q 43.63 191.27 43.67 184.05
  A 1.48 1.44 21.1 0 0 43.15 182.92
  L 41.21 181.30
  A 0.15 0.15 0.0 0 1 41.30 181.04
  L 51.85 181.04
  A 0.15 0.15 0.0 0 1 51.94 181.31
  L 50.10 182.80
  A 1.26 1.25 -25.0 0 0 49.66 183.99
  Q 49.72 184.37 49.65 200.54
  C 49.62 206.42 50.13 212.11 56.71 212.57
  C 61.79 212.93 65.14 209.46 65.52 204.72
  Q 65.71 202.30 65.61 184.00
  A 1.10 1.10 0.0 0 0 65.21 183.15
  L 63.22 181.49
  A 0.17 0.16 64.7 0 1 63.32 181.20
  L 71.35 181.20
  A 0.30 0.29 25.1 0 1 71.54 181.72
  L 70.10 182.90
  A 1.19 1.15 71.9 0 0 69.68 183.76
  Q 69.52 191.86 69.56 196.96
  C 69.64 206.50 69.86 213.95 59.64 216.00
  Z"
/>
<path fill="#231f20" d="
  M 111.86 216.00
  L 110.13 216.00
  L 103.14 215.85
  A 0.31 0.31 0.0 0 1 102.98 215.27
  Q 104.05 214.60 104.56 213.60
  A 2.09 2.07 -31.9 0 0 104.78 212.67
  L 104.78 190.23
  A 1.60 1.54 -64.0 0 0 104.48 189.30
  Q 103.32 187.72 102.59 187.31
  A 0.28 0.28 0.0 0 1 102.62 186.80
  Q 102.80 186.73 104.66 186.97
  Q 106.13 187.16 106.42 187.14
  Q 114.22 186.57 122.72 186.70
  A 0.25 0.25 0.0 0 1 122.85 187.17
  Q 121.48 188.04 121.46 189.18
  A 0.72 0.71 36.4 0 0 121.51 189.49
  L 128.67 208.83
  A 0.32 0.32 0.0 0 0 129.28 208.82
  L 135.68 189.79
  A 1.34 1.30 -49.8 0 0 135.61 188.79
  Q 135.05 187.67 133.71 187.24
  A 0.24 0.24 0.0 0 1 133.78 186.77
  L 141.33 186.77
  A 0.25 0.25 0.0 0 1 141.53 187.18
  L 139.57 189.52
  A 1.24 1.14 76.4 0 0 139.37 189.88
  L 130.98 214.84
  A 0.75 0.74 -80.6 0 1 130.28 215.35
  L 125.53 215.35
  A 0.79 0.77 -9.4 0 1 124.79 214.83
  Q 120.36 202.20 116.52 191.98
  C 115.38 188.96 113.23 184.79 110.11 188.86
  A 1.57 1.53 -26.9 0 0 109.79 189.80
  L 109.79 212.22
  A 2.45 2.40 28.4 0 0 110.21 213.58
  L 111.86 216.00
  Z"
/>
</g>
<g>
<path fill="#231f20" d="
  M 152.65 174.67
  L 154.17 172.85
  A 1.41 1.40 -34.6 0 0 154.42 171.49
  L 151.32 162.37
  A 1.05 1.04 80.7 0 0 150.33 161.65
  L 142.79 161.65
  A 0.69 0.68 -80.5 0 0 142.14 162.12
  L 139.24 170.75
  A 1.38 1.37 -61.1 0 0 139.67 172.25
  L 142.26 174.42
  A 0.23 0.23 0.0 0 1 142.11 174.83
  L 133.19 174.83
  A 0.18 0.18 0.0 0 1 133.05 174.53
  C 134.86 172.44 135.86 171.49 136.77 168.75
  Q 139.97 159.12 145.44 141.66
  A 1.14 1.14 0.0 0 1 146.85 140.90
  Q 148.18 141.30 149.35 140.94
  A 1.15 1.14 -17.2 0 1 150.79 141.69
  Q 156.62 159.94 159.70 168.98
  C 160.69 171.88 161.44 172.72 163.72 174.63
  A 0.10 0.10 0.0 0 1 163.66 174.81
  L 152.71 174.81
  A 0.09 0.08 -69.9 0 1 152.65 174.67
  Z
  M 143.42 158.44
  A 0.34 0.34 0.0 0 0 143.76 158.87
  L 149.51 158.68
  A 0.34 0.34 0.0 0 0 149.82 158.23
  L 146.65 149.32
  A 0.34 0.34 0.0 0 0 146.00 149.35
  L 143.42 158.44
  Z"
/>
<path fill="#231f20" d="
  M 171.02 174.83
  Q 168.53 174.84 166.02 175.06
  A 0.18 0.18 0.0 0 1 165.89 174.74
  L 168.07 172.96
  A 1.20 1.18 -20.0 0 0 168.51 172.04
  L 168.51 149.88
  A 0.57 0.57 0.0 0 0 167.94 149.31
  L 163.48 149.31
  A 1.17 1.16 12.2 0 0 162.42 149.99
  Q 161.76 151.47 161.57 151.75
  A 0.25 0.25 0.0 0 1 161.11 151.61
  L 161.11 146.43
  A 0.53 0.53 0.0 0 1 161.73 145.91
  Q 163.74 146.26 170.91 146.23
  Q 178.08 146.20 180.09 145.84
  A 0.53 0.53 0.0 0 1 180.72 146.35
  L 180.76 151.53
  A 0.25 0.25 0.0 0 1 180.30 151.68
  Q 180.11 151.40 179.43 149.92
  A 1.17 1.16 -12.7 0 0 178.37 149.25
  L 173.91 149.29
  A 0.57 0.57 0.0 0 0 173.34 149.86
  L 173.52 172.02
  A 1.20 1.18 19.5 0 0 173.97 172.94
  L 176.16 174.70
  A 0.18 0.18 0.0 0 1 176.03 175.02
  Q 173.52 174.82 171.02 174.83
  Z"
/>
<path fill="#231f20" d="
  M 266.30 146.22
  Q 273.46 146.23 275.48 145.88
  A 0.53 0.53 0.0 0 1 276.09 146.40
  L 276.10 151.58
  A 0.25 0.25 0.0 0 1 275.64 151.72
  Q 275.45 151.44 274.79 149.96
  A 1.17 1.16 -12.3 0 0 273.73 149.28
  L 269.27 149.29
  A 0.57 0.57 0.0 0 0 268.71 149.86
  L 268.74 172.00
  A 1.20 1.18 19.9 0 0 269.18 172.92
  L 271.36 174.69
  A 0.18 0.18 0.0 0 1 271.23 175.01
  Q 268.72 174.79 266.23 174.79
  Q 263.74 174.78 261.23 174.99
  A 0.18 0.18 0.0 0 1 261.10 174.67
  L 263.29 172.90
  A 1.20 1.18 -19.6 0 0 263.74 171.99
  L 263.88 149.85
  A 0.57 0.57 0.0 0 0 263.31 149.27
  L 258.85 149.25
  A 1.17 1.16 12.6 0 0 257.79 149.92
  Q 257.12 151.39 256.93 151.67
  A 0.25 0.25 0.0 0 1 256.47 151.53
  L 256.50 146.35
  A 0.53 0.53 0.0 0 1 257.13 145.84
  Q 259.14 146.20 266.30 146.22
  Z"
/>
<path fill="#231f20" d="
  M 62.20 174.69
  L 63.45 173.20
  A 1.38 1.38 0.0 0 0 63.69 171.89
  L 61.07 164.18
  A 0.90 0.90 0.0 0 0 60.22 163.57
  L 54.01 163.57
  A 0.84 0.84 0.0 0 0 53.21 164.15
  L 50.72 171.55
  A 0.82 0.82 0.0 0 0 50.97 172.44
  L 53.36 174.43
  A 0.35 0.35 0.0 0 1 53.07 175.05
  Q 49.47 174.37 45.74 175.03
  A 0.22 0.21 -75.2 0 1 45.54 174.68
  L 47.48 172.35
  A 4.42 4.37 -16.5 0 0 48.28 170.90
  L 55.96 146.88
  A 1.36 1.35 8.8 0 1 57.25 145.94
  L 59.69 145.94
  A 0.96 0.96 0.0 0 1 60.61 146.62
  Q 64.90 159.91 68.20 169.78
  Q 69.24 172.89 71.35 174.52
  A 0.80 0.80 0.0 0 0 72.23 174.58
  Q 74.80 173.09 74.81 171.49
  Q 74.86 151.19 74.78 148.73
  A 1.62 1.61 -78.5 0 0 73.85 147.31
  L 72.15 146.51
  A 0.37 0.36 57.5 0 1 72.30 145.81
  L 86.79 145.84
  A 1.92 1.77 -36.0 0 1 87.22 145.89
  Q 93.44 147.22 92.85 154.30
  Q 92.39 159.78 87.00 161.52
  A 0.20 0.20 0.0 0 0 86.91 161.84
  L 97.14 174.32
  A 0.96 0.95 47.6 0 0 98.57 174.39
  Q 99.52 173.41 99.89 172.32
  A 0.96 0.87 56.2 0 0 99.93 172.05
  L 99.93 148.18
  A 0.43 0.41 -64.2 0 0 99.85 147.93
  Q 99.40 147.30 98.39 147.18
  A 0.35 0.34 -83.4 0 1 98.09 146.79
  L 98.12 146.52
  A 0.08 0.08 0.0 0 1 98.20 146.45
  L 106.76 146.45
  A 0.40 0.40 0.0 0 1 106.89 147.22
  Q 105.89 147.58 105.52 148.26
  A 0.86 0.84 -32.1 0 0 105.43 148.64
  L 105.43 157.25
  A 0.42 0.41 65.0 0 0 106.16 157.52
  L 112.73 149.64
  A 1.73 1.73 0.0 0 0 112.50 147.21
  L 111.39 146.28
  A 0.23 0.22 -19.6 0 1 111.58 145.89
  Q 115.39 146.61 119.99 145.92
  A 0.39 0.39 0.0 0 1 120.29 146.62
  Q 115.18 150.50 109.93 157.40
  A 0.74 0.72 -43.5 0 0 109.90 158.25
  Q 116.19 167.66 123.47 174.04
  A 0.72 0.72 0.0 0 1 122.91 175.30
  L 118.27 174.74
  A 6.29 6.26 -16.1 0 1 114.15 172.48
  L 106.09 162.64
  A 0.37 0.37 0.0 0 0 105.43 162.87
  L 105.43 172.16
  A 0.78 0.76 -70.8 0 0 105.71 172.76
  L 108.10 174.75
  A 0.23 0.23 0.0 0 1 107.93 175.15
  Q 102.44 174.60 95.26 175.28
  Q 91.01 175.68 88.68 172.61
  Q 84.97 167.73 80.69 161.47
  A 0.44 0.43 -62.3 0 0 79.90 161.72
  L 79.90 172.28
  A 0.44 0.41 21.5 0 0 80.05 172.60
  L 82.86 174.94
  A 0.04 0.04 0.0 0 1 82.84 175.01
  L 71.58 175.15
  A 0.87 0.78 48.2 0 1 71.40 175.13
  Q 66.79 174.22 62.43 175.07
  A 0.24 0.24 0.0 0 1 62.20 174.69
  Z
  M 79.93 148.54
  L 79.87 158.92
  A 0.45 0.45 0.0 0 0 80.32 159.37
  L 82.41 159.38
  A 5.36 5.24 -89.7 0 0 87.68 154.05
  L 87.68 153.49
  A 5.36 5.24 -89.7 0 0 82.47 148.10
  L 80.38 148.09
  A 0.45 0.45 0.0 0 0 79.93 148.54
  Z
  M 54.31 160.91
  A 0.35 0.35 0.0 0 0 54.65 161.35
  L 59.43 161.26
  A 0.35 0.35 0.0 0 0 59.76 160.80
  L 57.22 153.04
  A 0.35 0.35 0.0 0 0 56.55 153.06
  L 54.31 160.91
  Z"
/>
<path fill="#231f20" d="
  M 246.45 146.26
  L 254.16 146.26
  A 0.46 0.46 0.0 0 1 254.31 147.16
  L 253.07 147.59
  A 1.11 1.10 80.9 0 0 252.32 148.64
  L 252.32 174.07
  A 0.56 0.56 0.0 0 1 251.76 174.63
  L 248.51 174.63
  A 0.98 0.97 -19.5 0 1 247.76 174.28
  L 231.49 154.41
  A 0.37 0.37 0.0 0 0 230.84 154.64
  L 230.84 171.42
  A 1.08 1.06 -70.6 0 0 231.23 172.25
  L 234.11 174.65
  A 0.09 0.09 0.0 0 1 234.05 174.81
  L 214.99 174.81
  A 0.06 0.06 0.0 0 1 214.95 174.71
  Q 216.37 173.59 216.58 172.74
  A 1.98 1.96 -48.3 0 0 216.52 171.64
  L 213.95 164.07
  A 0.72 0.71 -9.0 0 0 213.27 163.58
  L 206.83 163.58
  A 0.75 0.75 0.0 0 0 206.12 164.09
  L 203.65 171.46
  A 0.96 0.95 30.0 0 0 203.94 172.51
  L 206.42 174.57
  A 0.27 0.27 0.0 0 1 206.21 175.04
  Q 202.39 174.41 199.12 174.97
  A 0.40 0.40 0.0 0 1 198.75 174.32
  L 200.32 172.44
  A 4.74 4.73 73.7 0 0 201.19 170.85
  L 209.02 146.57
  A 0.96 0.95 -75.9 0 1 210.09 145.92
  Q 211.29 146.13 212.43 145.87
  A 0.92 0.92 0.0 0 1 213.50 146.48
  Q 219.47 165.02 221.60 171.13
  Q 222.08 172.49 223.95 174.10
  A 0.70 0.69 -40.6 0 0 224.78 174.16
  Q 226.41 173.10 227.16 171.94
  A 2.24 2.23 -28.4 0 0 227.53 170.71
  L 227.53 146.77
  A 0.57 0.57 0.0 0 1 228.10 146.20
  L 231.16 146.20
  A 1.84 1.82 70.1 0 1 232.57 146.87
  L 248.12 165.84
  A 0.32 0.31 -64.5 0 0 248.68 165.64
  L 248.68 148.53
  A 1.07 1.05 -79.6 0 0 248.01 147.54
  Q 247.36 147.30 246.33 146.74
  A 0.26 0.25 59.3 0 1 246.45 146.26
  Z
  M 207.20 160.95
  A 0.30 0.30 0.0 0 0 207.50 161.33
  L 212.43 161.26
  A 0.30 0.30 0.0 0 0 212.71 160.87
  L 210.13 153.01
  A 0.30 0.30 0.0 0 0 209.56 153.02
  L 207.20 160.95
  Z"
/>
<path fill="#231f20" d="
  M 290.11 174.79
  A 0.07 0.07 0.0 0 1 290.06 174.67
  L 291.36 173.12
  A 1.20 1.20 0.0 0 0 291.57 171.96
  L 288.92 164.19
  A 0.90 0.89 80.7 0 0 288.08 163.58
  L 281.65 163.58
  A 0.59 0.58 -80.5 0 0 281.10 163.98
  L 278.63 171.34
  A 1.18 1.17 -61.1 0 0 278.99 172.61
  L 281.20 174.46
  A 0.20 0.20 0.0 0 1 281.08 174.81
  L 273.47 174.82
  A 0.16 0.15 20.3 0 1 273.35 174.56
  C 274.89 172.78 275.75 171.97 276.52 169.63
  Q 279.25 161.42 283.91 146.54
  A 0.97 0.97 0.0 0 1 285.11 145.89
  Q 286.24 146.23 287.24 145.92
  A 0.98 0.98 0.0 0 1 288.47 146.56
  Q 293.44 162.12 296.07 169.82
  C 296.91 172.29 297.55 173.01 299.50 174.64
  A 0.09 0.08 64.5 0 1 299.45 174.79
  L 290.11 174.79
  Z
  M 282.18 160.89
  A 0.35 0.35 0.0 0 0 282.52 161.34
  L 287.29 161.27
  A 0.35 0.35 0.0 0 0 287.62 160.81
  L 285.11 153.13
  A 0.35 0.35 0.0 0 0 284.45 153.14
  L 282.18 160.89
  Z"
/>
<path fill="#231f20" d="
  M 44.20 169.31
  L 44.20 174.31
  A 0.97 0.97 0.0 0 1 43.23 175.28
  L 28.49 175.28
  A 0.26 0.26 0.0 0 1 28.36 174.80
  C 30.15 173.76 30.92 172.93 30.91 170.74
  Q 30.83 159.58 30.88 149.60
  A 1.93 1.88 30.8 0 0 30.63 148.66
  Q 30.12 147.78 28.76 147.30
  A 0.35 0.35 0.0 0 1 28.87 146.62
  L 37.82 146.62
  A 0.33 0.33 0.0 0 1 37.96 147.24
  Q 36.73 147.84 36.19 148.68
  A 1.62 1.57 -29.1 0 0 35.93 149.55
  L 35.93 171.35
  A 0.75 0.75 0.0 0 0 36.52 172.08
  Q 37.29 172.25 40.13 172.19
  C 42.67 172.14 42.93 171.05 43.84 169.23
  A 0.19 0.19 0.0 0 1 44.20 169.31
  Z"
/>
<path fill="#231f20" d="
  M 197.42 169.24
  A 0.19 0.19 0.0 0 1 197.77 169.32
  L 197.77 174.31
  A 0.97 0.97 0.0 0 1 196.79 175.28
  L 182.07 175.25
  A 0.26 0.26 0.0 0 1 181.95 174.77
  C 183.74 173.74 184.51 172.91 184.50 170.72
  Q 184.44 159.58 184.51 149.61
  A 1.92 1.88 30.9 0 0 184.26 148.67
  Q 183.75 147.79 182.40 147.31
  A 0.35 0.35 0.0 0 1 182.51 146.63
  L 191.45 146.65
  A 0.33 0.32 -57.8 0 1 191.59 147.27
  Q 190.36 147.87 189.81 148.70
  A 1.62 1.57 -29.0 0 0 189.55 149.57
  L 189.51 171.34
  A 0.75 0.75 0.0 0 0 190.10 172.07
  Q 190.87 172.24 193.70 172.19
  C 196.24 172.14 196.50 171.06 197.42 169.24
  Z"
/>
<path fill="#231f20" d="
  M 188.26 207.93
  Q 190.27 212.91 195.68 212.45
  Q 199.94 212.09 199.40 208.25
  A 2.13 2.08 23.8 0 0 199.02 207.30
  C 196.83 204.19 194.40 202.52 190.15 199.01
  C 187.08 196.46 186.42 191.78 188.80 188.42
  C 191.99 183.95 197.50 184.17 202.50 186.00
  A 1.24 1.24 0.0 0 1 203.31 187.16
  L 203.31 192.16
  A 0.27 0.27 0.0 0 1 202.80 192.29
  Q 201.69 190.28 200.28 189.07
  C 197.88 187.02 194.37 186.88 192.99 190.12
  C 190.35 196.32 208.42 200.21 203.90 210.66
  C 201.21 216.88 194.74 216.39 189.17 214.98
  A 1.80 1.79 7.0 0 1 187.80 213.24
  L 187.80 208.02
  A 0.24 0.24 0.0 0 1 188.26 207.93
  Z"
/>
<path fill="#231f20" d="
  M 254.98 214.90
  A 0.24 0.24 0.0 0 1 254.87 215.36
  L 244.80 215.36
  A 0.29 0.29 0.0 0 1 244.68 214.81
  Q 245.93 214.23 246.60 213.28
  A 1.71 1.66 -28.0 0 0 246.91 212.31
  Q 246.90 207.85 246.85 202.58
  C 246.83 200.24 245.13 197.22 244.23 195.42
  Q 241.37 189.72 238.39 186.68
  A 0.95 0.94 -18.8 0 1 239.18 185.08
  L 242.03 185.42
  A 5.67 5.64 -11.4 0 1 246.26 188.21
  L 250.50 195.54
  A 0.40 0.40 0.0 0 0 251.20 195.52
  L 254.55 188.74
  A 1.46 1.44 48.4 0 0 254.61 187.63
  Q 254.39 187.02 253.43 186.30
  A 0.18 0.17 62.9 0 1 253.53 185.98
  L 260.40 185.98
  A 0.24 0.24 0.0 0 1 260.56 186.40
  L 257.84 188.84
  A 1.16 1.10 -9.7 0 0 257.60 189.16
  L 252.56 199.85
  A 2.20 2.15 59.0 0 0 252.35 200.74
  L 252.20 212.82
  A 1.20 1.19 13.2 0 0 252.88 213.91
  L 254.98 214.90
  Z"
/>
<path fill="#231f20" d="
  M 172.20 214.88
  A 0.25 0.25 0.0 0 1 172.12 215.36
  L 161.72 215.36
  A 0.35 0.35 0.0 0 1 161.61 214.67
  Q 163.01 214.21 163.68 212.96
  A 1.84 1.82 -31.4 0 0 163.89 212.11
  L 163.89 189.12
  A 1.36 1.35 -66.9 0 0 163.52 188.19
  Q 162.81 187.46 161.66 187.17
  A 0.54 0.54 0.0 0 1 161.82 186.10
  Q 162.67 186.15 175.80 186.31
  Q 180.69 186.37 181.84 191.43
  Q 183.52 198.83 176.56 201.71
  A 0.51 0.51 0.0 0 0 176.36 202.51
  L 186.19 214.51
  A 0.82 0.82 0.0 0 1 185.46 215.84
  L 181.43 215.36
  A 4.80 4.77 75.4 0 1 178.12 213.40
  L 169.73 201.74
  A 0.40 0.40 0.0 0 0 169.01 201.97
  L 169.01 212.34
  A 1.46 1.44 -69.3 0 0 169.49 213.42
  Q 170.41 214.23 172.20 214.88
  Z
  M 169.29 188.81
  L 169.31 199.37
  A 0.41 0.41 0.0 0 0 169.72 199.78
  L 171.59 199.77
  A 5.28 5.25 -0.1 0 0 176.86 194.51
  L 176.86 193.63
  A 5.28 5.25 -0.1 0 0 171.57 188.39
  L 169.70 188.40
  A 0.41 0.41 0.0 0 0 169.29 188.81
  Z"
/>
<path fill="#231f20" d="
  M 226.17 186.49
  Q 233.33 186.48 235.34 186.12
  A 0.53 0.53 0.0 0 1 235.96 186.63
  L 235.99 191.80
  A 0.25 0.25 0.0 0 1 235.54 191.95
  Q 235.34 191.67 234.68 190.19
  A 1.16 1.16 0.0 0 0 233.61 189.52
  L 229.16 189.55
  A 0.57 0.57 0.0 0 0 228.59 190.12
  L 228.73 212.25
  A 1.20 1.18 19.6 0 0 229.18 213.17
  L 231.36 214.93
  A 0.18 0.18 0.0 0 1 231.23 215.25
  Q 228.72 215.05 226.24 215.05
  Q 223.75 215.06 221.24 215.27
  A 0.18 0.18 0.0 0 1 221.11 214.95
  L 223.29 213.18
  A 1.20 1.18 -19.9 0 0 223.73 212.26
  L 223.77 190.13
  A 0.57 0.57 0.0 0 0 223.20 189.56
  L 218.75 189.56
  A 1.16 1.16 0.0 0 0 217.69 190.23
  Q 217.02 191.71 216.83 191.99
  A 0.25 0.25 0.0 0 1 216.37 191.85
  L 216.38 186.68
  A 0.53 0.53 0.0 0 1 217.00 186.16
  Q 219.01 186.51 226.17 186.49
  Z"
/>
<path fill="#231f20" d="
  M 210.22 186.48
  Q 213.51 186.47 214.47 186.37
  A 0.39 0.39 0.0 0 1 214.69 187.10
  Q 213.12 187.95 212.81 189.01
  A 0.96 0.87 56.2 0 0 212.77 189.28
  L 212.83 212.22
  A 1.91 1.87 -62.8 0 0 213.16 213.29
  Q 213.80 214.24 214.98 214.78
  A 0.31 0.31 0.0 0 1 214.85 215.37
  Q 212.60 215.33 210.33 215.34
  Q 208.05 215.35 205.81 215.40
  A 0.31 0.31 0.0 0 1 205.67 214.81
  Q 206.84 214.27 207.48 213.31
  A 1.91 1.87 62.4 0 0 207.80 212.24
  L 207.69 189.30
  A 0.96 0.87 -56.7 0 0 207.65 189.03
  Q 207.33 187.97 205.75 187.13
  A 0.39 0.39 0.0 0 1 205.97 186.40
  Q 206.93 186.50 210.22 186.48
  Z"
/>
<path fill="#231f20" d="
  M 99.99 187.55
  Q 99.53 188.14 98.67 188.52
  A 1.48 1.46 78.5 0 0 97.79 189.87
  L 97.79 214.98
  A 0.58 0.58 0.0 0 1 97.21 215.56
  L 94.18 215.56
  A 0.84 0.83 -19.3 0 1 93.53 215.25
  L 77.26 195.40
  A 0.44 0.44 0.0 0 0 76.47 195.68
  L 76.47 212.08
  A 1.22 1.20 -70.0 0 0 76.89 213.00
  L 79.87 215.48
  A 0.13 0.13 0.0 0 1 79.78 215.71
  L 70.13 215.71
  A 0.31 0.31 0.0 0 1 69.99 215.12
  C 72.39 213.95 73.34 212.94 73.33 210.09
  Q 73.29 202.11 73.32 187.30
  A 0.45 0.45 0.0 0 1 73.87 186.86
  Q 75.44 187.19 76.85 186.96
  A 1.20 1.19 -24.0 0 1 77.95 187.38
  L 93.76 206.68
  A 0.36 0.36 0.0 0 0 94.40 206.45
  L 94.40 189.66
  A 1.07 1.05 20.4 0 0 94.02 188.85
  L 92.16 187.30
  A 0.21 0.20 -21.7 0 1 92.32 186.94
  C 95.64 187.27 97.15 187.31 99.61 186.91
  A 0.40 0.40 0.0 0 1 99.99 187.55
  Z"
/>
<path fill="#231f20" d="
  M 159.71 211.15
  L 159.27 214.88
  A 0.65 0.64 3.5 0 1 158.63 215.44
  L 143.81 215.44
  A 0.41 0.41 0.0 0 1 143.66 214.65
  Q 144.89 214.19 145.36 213.23
  A 1.16 1.11 59.0 0 0 145.47 212.74
  L 145.47 189.56
  A 1.52 1.50 -70.3 0 0 144.93 188.40
  L 143.39 187.12
  A 0.10 0.10 0.0 0 1 143.46 186.94
  L 158.72 186.94
  A 0.70 0.69 0.0 0 1 159.42 187.63
  L 159.42 191.63
  A 0.31 0.30 30.1 0 1 158.85 191.78
  L 157.69 189.77
  A 1.25 1.23 74.8 0 0 156.62 189.15
  L 151.06 189.15
  A 0.66 0.66 0.0 0 0 150.40 189.81
  L 150.40 199.01
  A 0.58 0.58 0.0 0 0 150.98 199.59
  L 155.01 199.59
  A 1.21 1.21 0.0 0 0 156.01 199.06
  Q 156.48 198.38 156.84 198.17
  A 0.44 0.44 0.0 0 1 157.50 198.55
  L 157.50 203.81
  A 0.27 0.27 0.0 0 1 157.03 203.98
  L 155.85 202.54
  A 1.28 1.26 -19.3 0 0 154.86 202.07
  L 151.08 202.07
  A 0.58 0.57 0.0 0 0 150.50 202.64
  L 150.50 211.75
  A 0.59 0.58 -0.0 0 0 151.09 212.33
  L 157.27 212.33
  A 1.17 1.17 0.0 0 0 158.15 211.93
  L 159.03 210.86
  A 0.39 0.38 -21.7 0 1 159.71 211.15
  Z"
/>
</g>
<g>
<path fill="#ffffff" d="
  M 79.93 148.54
  A 0.45 0.45 0.0 0 1 80.38 148.09
  L 82.47 148.10
  A 5.36 5.24 -89.7 0 1 87.68 153.49
  L 87.68 154.05
  A 5.36 5.24 -89.7 0 1 82.41 159.38
  L 80.32 159.37
  A 0.45 0.45 0.0 0 1 79.87 158.92
  L 79.93 148.54
  Z"
/>
<path fill="#ffffff" d="
  M 143.42 158.44
  L 146.00 149.35
  A 0.34 0.34 0.0 0 1 146.65 149.32
  L 149.82 158.23
  A 0.34 0.34 0.0 0 1 149.51 158.68
  L 143.76 158.87
  A 0.34 0.34 0.0 0 1 143.42 158.44
  Z"
/>
<path fill="#ffffff" d="
  M 54.31 160.91
  L 56.55 153.06
  A 0.35 0.35 0.0 0 1 57.22 153.04
  L 59.76 160.80
  A 0.35 0.35 0.0 0 1 59.43 161.26
  L 54.65 161.35
  A 0.35 0.35 0.0 0 1 54.31 160.91
  Z"
/>
<path fill="#ffffff" d="
  M 207.20 160.95
  L 209.56 153.02
  A 0.30 0.30 0.0 0 1 210.13 153.01
  L 212.71 160.87
  A 0.30 0.30 0.0 0 1 212.43 161.26
  L 207.50 161.33
  A 0.30 0.30 0.0 0 1 207.20 160.95
  Z"
/>
<path fill="#ffffff" d="
  M 282.18 160.89
  L 284.45 153.14
  A 0.35 0.35 0.0 0 1 285.11 153.13
  L 287.62 160.81
  A 0.35 0.35 0.0 0 1 287.29 161.27
  L 282.52 161.34
  A 0.35 0.35 0.0 0 1 282.18 160.89
  Z"
/>
<path fill="#ffffff" d="
  M 169.29 188.81
  A 0.41 0.41 0.0 0 1 169.70 188.40
  L 171.57 188.39
  A 5.28 5.25 -0.1 0 1 176.86 193.63
  L 176.86 194.51
  A 5.28 5.25 -0.1 0 1 171.59 199.77
  L 169.72 199.78
  A 0.41 0.41 0.0 0 1 169.31 199.37
  L 169.29 188.81
  Z"
/>
</g>
</svg>
