<?xml version="1.0" encoding="UTF-8" standalone="no"?>
<!DOCTYPE svg PUBLIC "-//W3C//DTD SVG 1.1//EN" "http://www.w3.org/Graphics/SVG/1.1/DTD/svg11.dtd">
<svg xmlns="http://www.w3.org/2000/svg" version="1.1" viewBox="0.00 0.00 512.00 270.00">
<g stroke-width="2.00" fill="none" stroke-linecap="butt">
<path stroke="#807f7f" vector-effect="non-scaling-stroke" d="
  M 141.7415 137.2057
  A 107.77 107.61 -179.7 0 0 248.9466 245.3785
  A 107.77 107.61 -179.7 0 0 357.2785 138.3343
  A 107.77 107.61 -179.7 0 0 250.0734 30.1615
  A 107.77 107.61 -179.7 0 0 141.7415 137.2057"
/>
<path stroke="#807f7f" vector-effect="non-scaling-stroke" d="
  M 243.87 31.65
  C 211.97 33.35 183.42 48.09 164.08 73.74
  C 137.81 108.60 135.75 156.17 158.54 193.61
  C 179.00 227.23 215.91 246.00 255.17 243.91
  C 294.43 241.83 329.14 219.24 345.92 183.64
  C 364.60 143.99 357.50 96.91 327.68 65.03
  C 305.73 41.58 275.77 29.95 243.87 31.65"
/>
<path stroke="#807f7f" vector-effect="non-scaling-stroke" d="
  M 242.27 60.60
  L 245.24 60.60
  A 0.41 0.40 63.3 0 0 245.48 59.87
  Q 243.75 58.57 244.22 55.27
  A 0.64 0.64 0.0 0 1 244.94 54.72
  Q 246.57 54.93 249.08 53.80
  Q 253.50 51.80 250.80 47.49
  A 1.45 1.44 -6.0 0 0 250.04 46.88
  C 248.38 46.28 245.66 45.66 243.69 46.33
  Q 242.85 46.61 241.36 46.31
  A 0.42 0.42 0.0 0 0 241.02 47.05
  C 242.41 48.15 242.14 49.76 242.21 51.30
  Q 242.55 58.07 241.86 60.03
  A 0.43 0.43 0.0 0 0 242.27 60.60"
/>
<path stroke="#807f7f" vector-effect="non-scaling-stroke" d="
  M 265.62 62.20
  L 269.68 62.20
  A 0.22 0.22 0.0 0 0 269.82 61.82
  Q 269.05 61.14 268.48 59.29
  Q 266.59 53.17 265.36 47.46
  A 0.48 0.48 0.0 0 0 264.48 47.32
  L 263.47 49.08
  A 1.24 1.21 51.9 0 0 263.36 50.08
  L 266.50 60.09
  A 0.64 0.64 0.0 0 1 266.27 60.80
  L 265.37 61.45
  A 0.42 0.41 26.8 0 0 265.62 62.20"
/>
<path stroke="#807f7f" vector-effect="non-scaling-stroke" d="
  M 293.19 57.06
  A 0.20 0.20 0.0 0 0 293.39 56.72
  Q 291.80 55.55 289.68 55.34
  A 0.22 0.22 0.0 0 0 289.51 55.72
  Q 290.79 56.90 289.99 58.70
  Q 288.62 61.80 287.56 64.07
  Q 285.72 68.02 281.62 66.01
  C 277.56 64.02 281.40 57.00 283.08 53.88
  A 0.98 0.98 0.0 0 1 284.12 53.39
  L 284.41 53.44
  A 0.41 0.41 0.0 0 0 284.79 52.77
  Q 283.49 51.30 281.00 50.78
  A 0.32 0.32 0.0 0 0 280.68 51.28
  L 281.48 52.38
  A 0.77 0.77 0.0 0 1 281.49 53.27
  Q 281.10 53.86 278.47 58.78
  C 275.51 64.33 281.33 69.12 286.33 66.70
  A 1.71 1.71 0.0 0 0 287.13 65.90
  L 291.21 57.39
  A 0.69 0.57 84.7 0 1 291.34 57.20
  Q 292.04 56.53 293.19 57.06"
/>
<path stroke="#807f7f" vector-effect="non-scaling-stroke" d="
  M 262.67 51.31
  Q 262.64 51.31 262.62 51.30
  A 0.15 0.15 0.0 0 0 262.42 51.35
  L 256.86 60.41
  A 0.28 0.27 15.7 0 0 257.10 60.83
  L 259.22 60.83
  A 0.23 0.22 12.7 0 0 259.42 60.71
  Q 259.56 60.39 259.25 60.26
  A 0.97 0.89 27.6 0 1 258.76 58.91
  Q 261.56 54.69 262.83 51.39
  A 0.14 0.07 -1.0 0 0 262.67 51.31"
/>
<path stroke="#807f7f" vector-effect="non-scaling-stroke" d="
  M 220.41 65.83
  Q 222.13 65.44 224.32 64.34
  A 0.31 0.31 0.0 0 0 224.40 63.85
  L 213.98 53.43
  A 0.47 0.47 0.0 0 0 213.18 53.77
  L 213.57 67.50
  A 0.82 0.79 65.3 0 1 213.39 68.01
  Q 213.26 68.16 213.22 68.22
  A 0.37 0.37 0.0 0 0 213.60 68.79
  L 214.85 68.55
  A 0.41 0.40 -14.3 0 0 215.16 68.04
  L 214.03 64.47
  A 1.13 1.13 0.0 0 1 215.00 63.01
  L 219.74 62.53
  A 0.97 0.96 51.6 0 1 220.15 62.58
  Q 221.33 63.01 222.44 63.94
  A 0.36 0.36 0.0 0 1 222.37 64.54
  L 220.31 65.54
  A 0.15 0.15 0.0 0 0 220.41 65.83"
/>
<path stroke="#807f7f" vector-effect="non-scaling-stroke" d="
  M 264.5677 56.8305
  A 1.77 0.26 -2.9 0 0 262.7868 56.6603
  A 1.77 0.26 -2.9 0 0 261.0323 57.0095
  A 1.77 0.26 -2.9 0 0 262.8132 57.1797
  A 1.77 0.26 -2.9 0 0 264.5677 56.8305"
/>
<path stroke="#807f7f" vector-effect="non-scaling-stroke" d="
  M 293.32 72.91
  L 299.44 77.27
  A 0.87 0.86 -71.3 0 1 299.80 78.01
  L 299.77 78.61
  A 0.78 0.78 0.0 0 0 301.01 79.26
  Q 302.39 78.27 303.22 77.08
  A 0.41 0.41 0.0 0 0 302.75 76.46
  L 301.16 76.96
  A 1.17 1.17 0.0 0 1 300.14 76.80
  L 296.66 74.32
  A 0.56 0.56 0.0 0 1 296.45 73.98
  Q 296.33 73.40 296.89 73.26
  Q 297.40 73.13 297.66 72.76
  C 300.33 68.95 301.70 66.84 305.05 64.59
  A 0.46 0.45 47.6 0 0 305.08 63.86
  L 302.33 61.70
  A 0.27 0.27 0.0 0 0 301.89 61.96
  Q 301.97 62.41 302.60 62.90
  A 0.26 0.24 38.5 0 1 302.65 63.25
  L 295.34 72.53
  A 0.83 0.82 28.8 0 1 294.43 72.79
  Q 293.78 72.57 293.51 72.49
  A 0.24 0.23 69.9 0 0 293.32 72.91"
/>
<path stroke="#807f7f" vector-effect="non-scaling-stroke" d="
  M 190.77 68.19
  Q 195.64 72.21 198.66 78.41
  A 0.61 0.61 0.0 0 0 199.60 78.60
  Q 200.75 77.63 201.91 77.41
  A 0.21 0.21 0.0 0 0 201.96 77.02
  Q 199.41 75.75 197.68 72.29
  A 0.38 0.38 0.0 0 1 198.04 71.74
  Q 203.31 71.97 207.26 73.68
  A 0.33 0.32 22.0 0 0 207.69 73.50
  L 207.80 73.22
  A 0.56 0.55 25.5 0 0 207.55 72.52
  Q 204.61 70.91 201.21 70.62
  A 0.76 0.75 -75.2 0 1 200.59 69.55
  Q 201.47 67.69 201.30 65.65
  A 1.19 1.17 -74.0 0 0 200.83 64.79
  Q 198.10 62.75 194.96 64.05
  A 0.19 0.19 0.0 0 0 195.00 64.41
  Q 197.43 64.91 197.48 64.94
  Q 200.48 66.96 199.56 69.73
  A 2.12 2.06 -65.9 0 1 196.54 70.93
  Q 195.70 70.45 193.92 68.54
  Q 192.12 66.61 193.80 64.88
  A 0.23 0.22 -48.3 0 0 193.79 64.55
  L 193.74 64.50
  A 0.19 0.18 43.7 0 0 193.49 64.50
  Q 192.29 65.62 191.91 66.99
  A 0.99 0.99 0.0 0 1 191.05 67.70
  Q 190.91 67.71 190.90 67.72
  A 0.27 0.26 60.7 0 0 190.77 68.19"
/>
<path stroke="#807f7f" vector-effect="non-scaling-stroke" d="
  M 316.17 89.55
  Q 315.80 89.82 314.43 91.74
  A 0.58 0.58 0.0 0 1 313.49 91.74
  L 309.74 86.54
  A 0.49 0.49 0.0 0 1 309.85 85.85
  L 318.61 79.52
  A 0.64 0.64 0.0 0 1 319.39 79.54
  C 321.25 81.01 323.08 82.77 322.28 85.11
  A 0.24 0.24 0.0 0 0 322.63 85.40
  Q 324.01 84.64 323.95 83.88
  A 0.44 0.42 -65.5 0 0 323.88 83.68
  L 318.14 75.74
  A 0.27 0.27 0.0 0 0 317.66 75.96
  Q 317.72 76.19 317.86 76.64
  A 1.06 1.05 -28.1 0 1 317.51 77.77
  Q 312.23 82.00 309.05 84.25
  C 308.49 84.65 308.00 84.55 307.41 84.66
  A 0.37 0.37 0.0 0 0 307.19 85.26
  L 313.69 92.97
  A 0.56 0.56 0.0 0 0 314.60 92.89
  L 316.41 89.76
  A 0.16 0.16 0.0 0 0 316.17 89.55"
/>
<path stroke="#807f7f" vector-effect="non-scaling-stroke" d="
  M 187.39 91.07
  A 0.31 0.30 37.4 0 0 187.81 91.02
  L 193.14 84.25
  A 0.28 0.28 0.0 0 0 193.19 83.98
  Q 192.56 82.34 191.11 81.07
  A 0.28 0.28 0.0 0 0 190.65 81.32
  Q 190.80 82.27 191.58 83.15
  A 1.47 1.46 -47.0 0 1 191.64 85.03
  L 188.76 88.68
  A 1.02 1.00 38.2 0 1 187.34 88.84
  L 183.54 85.85
  A 0.85 0.85 0.0 0 1 183.40 84.65
  L 184.76 82.92
  A 0.90 0.90 0.0 0 1 186.03 82.77
  Q 186.80 83.38 187.08 83.44
  A 0.67 0.67 0.0 0 0 187.77 82.40
  Q 187.15 81.50 186.19 81.15
  Q 185.52 80.91 184.56 81.92
  Q 184.12 82.39 182.42 83.82
  A 0.97 0.95 35.8 0 1 181.44 83.97
  Q 180.14 83.45 179.20 82.68
  A 1.00 0.99 -51.2 0 1 179.05 81.29
  L 181.65 77.99
  A 0.95 0.95 0.0 0 1 183.02 77.87
  Q 183.70 78.47 184.50 78.22
  A 0.46 0.46 0.0 0 0 184.65 77.42
  L 182.42 75.66
  A 0.63 0.62 39.0 0 0 181.55 75.75
  C 180.86 76.56 180.92 77.61 179.99 78.56
  Q 178.31 80.28 177.19 82.18
  A 0.78 0.77 34.4 0 0 177.38 83.18
  L 187.39 91.07"
/>
<path stroke="#807f7f" vector-effect="non-scaling-stroke" d="
  M 318.62 86.57
  Q 318.76 86.31 318.79 86.18
  A 0.63 0.63 0.0 0 0 318.40 85.45
  Q 315.19 84.26 314.99 84.65
  Q 314.78 85.03 317.57 87.02
  A 0.63 0.63 0.0 0 0 318.39 86.93
  Q 318.48 86.83 318.62 86.57"
/>
<path stroke="#807f7f" vector-effect="non-scaling-stroke" d="
  M 331.66 103.79
  L 333.77 102.76
  A 0.56 0.55 65.4 0 0 334.03 102.04
  L 330.18 93.11
  A 0.33 0.28 -84.8 0 0 330.09 92.98
  Q 328.77 91.91 327.09 93.02
  A 0.26 0.26 0.0 0 0 327.22 93.49
  Q 329.39 93.56 330.40 95.38
  A 1.62 1.10 -30.3 0 1 329.57 97.13
  Q 326.42 99.03 321.61 100.85
  Q 319.29 101.72 318.67 100.59
  A 0.13 0.12 -63.7 0 0 318.44 100.67
  Q 318.48 100.93 319.84 104.33
  A 0.31 0.31 0.0 0 0 320.42 104.33
  L 320.87 103.19
  A 0.66 0.63 -3.3 0 1 321.18 102.86
  L 330.71 98.21
  A 0.69 0.68 59.0 0 1 331.57 98.43
  Q 332.43 99.67 332.85 101.97
  A 0.62 0.61 77.0 0 1 332.42 102.67
  Q 331.51 102.94 331.42 103.62
  A 0.17 0.16 -8.8 0 0 331.66 103.79"
/>
<path stroke="#800108" vector-effect="non-scaling-stroke" d="
  M 272.98 111.37
  A 0.61 0.61 0.0 0 0 274.19 111.28
  L 274.19 94.28
  A 0.65 0.65 0.0 0 0 273.54 93.63
  L 208.50 93.63
  A 0.77 0.77 0.0 0 0 207.73 94.40
  L 207.73 111.29
  A 0.47 0.47 0.0 0 0 208.64 111.45
  C 210.92 105.18 213.09 99.98 219.88 97.66
  Q 227.06 95.21 234.81 95.68
  A 0.75 0.74 3.2 0 1 235.51 96.45
  Q 234.96 109.87 235.04 126.00
  Q 235.05 128.92 235.72 131.96
  A 0.51 0.51 0.0 0 0 236.46 132.31
  Q 240.63 130.10 245.90 129.15
  A 1.20 1.19 84.6 0 0 246.88 127.96
  C 246.79 121.31 245.99 116.63 246.48 110.03
  Q 246.77 106.11 246.37 97.17
  A 1.18 1.18 0.0 0 1 247.52 95.94
  C 252.09 95.82 256.67 95.56 260.99 96.88
  Q 271.33 100.06 272.98 111.37"
/>
<path stroke="#807f7f" vector-effect="non-scaling-stroke" d="
  M 170.75 99.12
  L 174.70 99.12
  A 0.61 0.61 0.0 0 1 175.31 99.73
  L 175.31 101.61
  A 0.47 0.47 0.0 0 0 176.16 101.88
  Q 176.52 101.37 176.86 100.82
  C 178.04 98.88 179.86 99.13 181.23 100.92
  A 0.29 0.29 0.0 0 0 181.72 100.87
  L 182.91 98.40
  A 0.44 0.43 -77.4 0 0 182.52 97.78
  L 167.73 97.78
  A 0.32 0.32 0.0 0 0 167.58 98.38
  Q 168.83 99.04 169.24 99.53
  Q 172.15 103.00 175.44 106.18
  A 0.22 0.22 0.0 0 0 175.73 106.19
  L 175.96 105.98
  A 0.03 0.02 -38.0 0 0 175.97 105.94
  L 170.51 99.64
  A 0.32 0.31 -20.4 0 1 170.75 99.12"
/>
<path stroke="#807f7f" vector-effect="non-scaling-stroke" d="
  M 177.32 108.40
  Q 177.86 108.80 178.46 108.42
  A 0.70 0.69 -7.3 0 0 178.73 108.07
  Q 179.21 106.67 178.83 106.38
  Q 178.45 106.10 177.23 106.96
  A 0.70 0.69 80.9 0 0 176.98 107.31
  Q 176.78 108.00 177.32 108.40"
/>
<path stroke="#807f7f" vector-effect="non-scaling-stroke" d="
  M 334.12 111.40
  Q 337.41 111.41 337.20 115.27
  A 0.69 0.68 -6.4 0 1 336.69 115.90
  L 327.04 118.35
  A 1.00 0.98 50.2 0 1 326.36 118.28
  L 325.02 117.64
  A 0.30 0.30 0.0 0 0 324.60 118.00
  L 325.53 120.95
  A 0.24 0.24 0.0 0 0 325.93 121.05
  L 326.85 120.12
  A 1.25 1.22 15.4 0 1 327.45 119.79
  L 337.10 117.64
  A 0.64 0.63 -13.5 0 1 337.86 118.10
  Q 338.60 121.12 336.92 123.13
  A 0.35 0.35 0.0 0 0 337.18 123.71
  Q 337.82 123.74 339.19 122.64
  A 1.00 1.00 0.0 0 0 339.54 121.61
  L 337.94 115.42
  A 0.76 0.54 49.5 0 1 337.92 115.19
  C 338.13 112.49 337.76 110.40 334.10 111.21
  A 0.10 0.10 0.0 0 0 334.12 111.40"
/>
<path stroke="#807f7f" vector-effect="non-scaling-stroke" d="
  M 161.65 116.58
  L 162.52 115.84
  A 0.89 0.87 -57.2 0 1 163.30 115.66
  L 173.92 118.19
  A 0.93 0.91 -2.2 0 1 174.58 118.79
  L 174.94 119.81
  A 0.03 0.02 0.0 0 0 174.97 119.83
  L 175.23 119.81
  A 0.36 0.36 0.0 0 0 175.54 119.36
  Q 175.15 117.88 175.90 116.65
  A 0.46 0.46 0.0 0 0 175.48 115.95
  Q 169.07 116.35 163.61 113.42
  A 0.60 0.60 0.0 0 0 162.77 113.72
  L 161.63 116.57
  A 0.01 0.01 0.0 0 0 161.65 116.58"
/>
<path stroke="#807f7f" vector-effect="non-scaling-stroke" d="
  M 268.15 157.31
  Q 281.42 161.31 291.63 153.83
  C 297.30 149.68 300.04 142.92 299.81 136.02
  C 299.50 126.82 294.77 120.26 286.09 117.99
  Q 281.42 116.77 279.07 116.65
  Q 274.49 116.41 250.74 116.55
  A 0.34 0.33 14.2 0 0 250.48 116.70
  Q 250.36 116.88 250.52 117.30
  A 0.42 0.41 -4.4 0 0 250.85 117.57
  Q 255.26 118.24 255.30 122.70
  C 255.33 125.32 255.48 128.09 255.63 129.56
  A 1.02 1.02 0.0 0 0 256.23 130.39
  Q 260.40 132.26 263.06 135.90
  A 0.45 0.45 0.0 0 0 263.87 135.63
  L 263.87 118.89
  A 0.64 0.63 89.5 0 1 264.49 118.25
  Q 271.30 118.08 275.80 118.46
  C 282.18 119.00 288.73 122.50 290.33 129.17
  Q 292.35 137.59 289.42 146.40
  Q 286.04 156.52 275.01 157.13
  Q 270.47 157.38 268.28 156.85
  A 0.23 0.23 0.0 0 0 268.00 157.02
  L 267.99 157.04
  A 0.23 0.23 0.0 0 0 268.15 157.31"
/>
<path stroke="#807f7f" vector-effect="non-scaling-stroke" d="
  M 340.71 122.84
  Q 340.57 123.06 340.57 123.24
  A 0.18 0.18 0.0 0 0 340.90 123.34
  Q 340.98 123.23 340.99 122.92
  A 0.15 0.15 0.0 0 0 340.71 122.84"
/>
<path stroke="#807f7f" vector-effect="non-scaling-stroke" d="
  M 161.71 137.34
  Q 159.45 136.17 160.26 132.77
  A 0.57 0.57 0.0 0 1 160.90 132.34
  Q 165.85 133.06 171.73 133.04
  Q 171.98 133.04 172.38 133.27
  Q 173.13 133.71 173.16 133.71
  A 0.24 0.23 -15.9 0 0 173.38 133.32
  Q 172.98 132.90 173.07 130.52
  A 0.37 0.37 0.0 0 0 172.41 130.28
  L 172.04 130.74
  A 0.84 0.83 18.8 0 1 171.38 131.06
  L 161.74 131.06
  A 1.51 1.51 0.0 0 1 160.40 128.84
  Q 161.11 127.49 162.50 126.36
  A 0.49 0.48 47.5 0 0 162.53 125.62
  L 162.47 125.56
  A 0.57 0.57 0.0 0 0 161.75 125.51
  C 158.87 127.55 159.62 132.14 159.57 137.15
  A 0.94 0.91 -74.0 0 0 159.99 137.93
  Q 160.90 138.49 161.50 138.43
  A 0.58 0.58 0.0 0 0 161.71 137.34"
/>
<path stroke="#800108" vector-effect="non-scaling-stroke" d="
  M 259.90 135.66
  C 259.15 133.01 251.34 131.90 248.56 131.73
  Q 244.15 131.46 239.62 134.01
  Q 233.27 137.59 230.07 140.83
  Q 221.64 149.37 218.34 152.57
  C 209.56 161.09 202.24 164.29 190.14 161.92
  A 1.31 1.27 -21.6 0 1 189.63 161.71
  L 185.43 158.84
  A 0.44 0.44 0.0 0 0 184.81 158.97
  L 184.80 158.98
  A 0.27 0.26 -51.4 0 0 184.83 159.32
  Q 188.01 162.37 191.99 163.22
  C 202.04 165.36 208.76 162.73 217.97 157.68
  Q 219.89 156.63 226.41 150.56
  Q 234.37 143.15 244.44 137.97
  Q 252.13 134.01 259.48 136.08
  A 0.34 0.34 0.0 0 0 259.90 135.66"
/>
<path stroke="#807f7f" vector-effect="non-scaling-stroke" d="
  M 327.22 132.62
  L 327.22 140.81
  A 0.93 0.92 -78.4 0 0 327.78 141.66
  Q 328.93 142.15 330.47 141.76
  A 0.33 0.32 -45.3 0 0 330.47 141.13
  L 328.57 140.67
  A 1.20 1.19 6.8 0 1 327.65 139.51
  L 327.65 134.46
  A 0.59 0.59 0.0 0 1 328.29 133.87
  L 336.30 134.58
  A 0.90 0.86 -52.0 0 0 336.71 134.52
  L 339.45 133.40
  A 0.60 0.59 -9.0 0 1 340.27 133.99
  L 339.88 139.27
  A 0.72 0.71 -16.3 0 1 339.58 139.81
  L 338.50 140.59
  A 0.36 0.35 -54.2 0 0 338.60 141.22
  Q 339.77 141.57 340.44 141.30
  A 0.80 0.80 0.0 0 0 340.93 140.36
  C 340.16 137.36 341.14 135.15 341.03 132.49
  A 0.56 0.56 0.0 0 0 340.34 131.97
  Q 335.53 133.11 327.85 132.07
  A 0.56 0.56 0.0 0 0 327.22 132.62"
/>
<path stroke="#807f7f" vector-effect="non-scaling-stroke" d="
  M 333.27 137.12
  Q 333.28 138.62 333.92 140.09
  A 0.79 0.79 0.0 0 0 334.81 140.54
  L 334.87 140.54
  A 0.54 0.53 -14.9 0 0 335.29 139.82
  L 334.17 136.95
  A 0.47 0.46 34.2 0 0 333.27 137.12"
/>
<path stroke="#807f7f" vector-effect="non-scaling-stroke" d="
  M 269.45 185.90
  Q 266.68 185.28 264.79 183.38
  Q 263.62 182.21 263.64 178.37
  Q 263.66 175.74 263.83 142.43
  A 2.84 2.84 0.0 0 0 262.05 139.78
  L 257.17 137.82
  A 1.40 1.40 0.0 0 0 255.25 139.12
  L 255.25 181.12
  A 1.99 1.89 -35.4 0 1 255.11 181.84
  L 254.36 183.71
  A 2.06 2.06 0.0 0 0 256.27 186.53
  L 269.38 186.53
  A 0.32 0.32 0.0 0 0 269.45 185.90"
/>
<path stroke="#800108" vector-effect="non-scaling-stroke" d="
  M 228.36 186.26
  A 0.20 0.20 0.0 0 0 228.44 186.64
  L 250.85 186.64
  A 0.30 0.30 0.0 0 0 251.01 186.09
  C 247.55 183.88 246.37 182.01 246.42 177.71
  Q 246.67 156.34 245.98 141.23
  A 0.68 0.68 0.0 0 0 245.03 140.64
  Q 240.03 142.74 236.23 146.08
  A 2.44 2.43 70.0 0 0 235.40 147.87
  Q 235.02 170.05 234.94 177.06
  C 234.90 181.01 234.14 183.68 230.70 185.21
  Q 228.68 186.11 228.36 186.26"
/>
<path stroke="#800108" vector-effect="non-scaling-stroke" d="
  M 298.80 185.22
  L 298.08 184.71
  A 0.94 0.91 18.3 0 1 297.69 183.96
  L 297.69 180.95
  A 0.83 0.83 0.0 0 1 298.49 180.12
  L 299.34 180.10
  A 0.91 0.91 0.0 0 0 299.44 178.30
  Q 299.32 178.28 298.23 177.99
  A 0.54 0.54 0.0 0 1 297.84 177.47
  L 297.84 165.95
  A 0.77 0.77 0.0 0 0 296.44 165.50
  L 286.75 179.11
  A 0.66 0.66 0.0 0 0 287.29 180.16
  L 294.17 180.16
  A 0.94 0.94 0.0 0 1 295.08 180.87
  Q 295.34 181.87 295.59 183.23
  C 295.81 184.38 294.58 185.01 294.64 185.62
  A 0.74 0.74 0.0 0 0 295.46 186.29
  L 298.61 185.95
  A 0.40 0.40 0.0 0 0 298.80 185.22"
/>
<path stroke="#800108" vector-effect="non-scaling-stroke" d="
  M 272.37 170.16
  A 0.25 0.25 0.0 0 0 272.80 170.36
  L 274.94 167.92
  A 0.92 0.92 0.0 0 1 275.36 167.64
  Q 280.56 165.96 281.33 171.04
  Q 281.94 174.98 278.83 177.84
  Q 276.81 179.71 271.48 185.10
  A 0.53 0.53 0.0 0 0 271.86 186.01
  L 282.36 186.01
  A 2.10 2.09 -79.7 0 0 284.32 184.64
  L 284.49 184.19
  A 0.71 0.71 0.0 0 0 283.63 183.38
  Q 280.01 184.18 275.96 183.64
  A 0.39 0.39 0.0 0 1 275.74 182.98
  Q 278.91 179.74 281.94 176.42
  Q 285.04 173.05 284.19 168.70
  A 1.62 1.57 -76.0 0 0 283.68 167.82
  Q 279.11 163.86 273.79 167.32
  A 2.17 2.17 0.0 0 0 273.12 167.99
  Q 272.56 168.84 272.37 170.16"
/>
<path stroke="#800108" vector-effect="non-scaling-stroke" d="
  M 167.26 173.49
  Q 169.38 175.01 171.71 173.32
  A 1.36 1.32 78.0 0 0 172.24 172.48
  Q 172.58 170.58 171.51 169.14
  A 2.38 2.37 55.9 0 0 168.35 168.53
  Q 166.14 169.91 166.72 172.65
  A 1.40 1.36 -78.6 0 0 167.26 173.49"
/>
<path stroke="#800108" vector-effect="non-scaling-stroke" d="
  M 334.54 171.29
  A 2.95 2.95 0.0 0 0 331.59 168.34
  A 2.95 2.95 0.0 0 0 328.64 171.29
  A 2.95 2.95 0.0 0 0 331.59 174.24
  A 2.95 2.95 0.0 0 0 334.54 171.29"
/>
<path stroke="#807f7f" vector-effect="non-scaling-stroke" d="
  M 215.61 207.27
  Q 214.45 207.31 211.54 205.52
  A 0.13 0.13 0.0 0 0 211.37 205.71
  L 212.09 206.71
  A 0.74 0.71 39.4 0 1 212.17 207.40
  L 207.85 218.17
  A 0.81 0.81 0.0 0 1 207.11 218.68
  Q 206.92 218.68 206.75 218.63
  A 0.32 0.32 0.0 0 0 206.35 218.94
  Q 206.36 219.61 206.86 219.67
  Q 208.80 219.92 210.10 220.84
  C 212.45 222.52 215.72 223.86 217.25 220.61
  A 0.23 0.23 0.0 0 0 216.91 220.32
  L 214.69 221.93
  A 1.30 1.30 0.0 0 1 213.28 222.00
  L 209.64 219.90
  A 0.69 0.68 -64.6 0 1 209.35 219.06
  L 213.56 208.60
  A 0.99 0.98 9.0 0 1 214.41 207.99
  Q 215.79 207.91 215.84 207.86
  A 0.34 0.34 0.0 0 0 215.61 207.27"
/>
<path stroke="#807f7f" vector-effect="non-scaling-stroke" d="
  M 284.46 207.99
  L 287.05 207.81
  A 0.50 0.50 0.0 0 0 287.51 207.27
  L 287.45 206.35
  A 0.46 0.46 0.0 0 0 286.73 206.01
  L 284.37 207.72
  A 0.15 0.15 0.0 0 0 284.46 207.99"
/>
<path stroke="#807f7f" vector-effect="non-scaling-stroke" d="
  M 269.26 213.62
  Q 273.84 217.44 278.79 224.17
  A 0.64 0.64 0.0 0 0 279.94 223.75
  L 279.24 213.71
  A 0.41 0.41 0.0 0 1 279.96 213.41
  L 286.88 221.61
  A 0.37 0.36 -65.3 0 0 287.52 221.37
  L 287.52 208.87
  A 0.23 0.22 87.7 0 0 287.28 208.64
  L 286.88 208.67
  A 0.04 0.04 0.0 0 0 286.84 208.71
  L 286.65 217.78
  A 0.34 0.34 0.0 0 1 286.05 217.99
  Q 280.01 210.89 278.81 209.71
  A 0.64 0.64 0.0 0 0 277.79 210.45
  L 278.65 212.22
  A 0.62 0.46 36.7 0 1 278.68 212.32
  L 279.04 220.57
  A 0.35 0.34 23.7 0 1 278.43 220.80
  L 273.05 214.42
  A 1.05 1.03 36.3 0 1 272.88 213.37
  L 273.52 211.78
  A 0.10 0.09 -70.6 0 0 273.47 211.66
  L 273.22 211.56
  A 0.33 0.31 20.7 0 0 272.80 211.74
  C 272.03 213.78 270.99 213.05 269.38 213.21
  A 0.23 0.23 0.0 0 0 269.26 213.62"
/>
<path stroke="#807f7f" vector-effect="non-scaling-stroke" d="
  M 234.14 227.82
  L 235.59 227.42
  A 0.27 0.27 0.0 0 0 235.77 227.09
  L 232.36 214.85
  A 2.60 0.82 74.4 0 0 230.87 212.56
  L 230.48 212.67
  A 2.60 0.82 74.4 0 0 230.39 215.40
  L 233.81 227.64
  A 0.27 0.27 0.0 0 0 234.14 227.82"
/>
<path stroke="#807f7f" vector-effect="non-scaling-stroke" d="
  M 253.99 226.69
  Q 254.15 227.99 254.89 228.84
  A 2.08 2.04 77.5 0 0 255.78 229.42
  Q 258.39 230.25 261.12 229.15
  C 263.58 228.16 264.80 225.21 262.83 223.00
  C 261.59 221.60 259.23 221.37 257.09 220.91
  A 1.77 1.73 -13.3 0 1 256.16 220.35
  C 253.63 217.40 256.86 214.64 260.34 215.86
  A 0.61 0.58 80.3 0 1 260.62 216.07
  L 261.96 217.93
  A 0.28 0.28 0.0 0 0 262.46 217.77
  L 262.46 216.02
  A 0.58 0.58 0.0 0 0 261.90 215.44
  Q 261.29 215.42 259.84 214.95
  C 255.09 213.41 250.98 220.15 256.77 222.55
  C 258.21 223.14 262.77 222.99 262.11 226.48
  Q 261.48 229.84 257.28 229.12
  Q 256.49 228.98 254.43 226.50
  A 0.25 0.25 0.0 0 0 253.99 226.69"
/>
<path stroke="#807f7f" vector-effect="non-scaling-stroke" d="
  M 242.49 229.43
  Q 241.69 228.50 241.95 226.97
  Q 243.18 219.75 243.35 217.49
  A 0.95 0.94 82.2 0 1 243.96 216.68
  Q 244.81 216.35 244.88 216.12
  A 0.47 0.47 0.0 0 0 244.42 215.51
  L 241.83 215.57
  A 0.74 0.73 -0.8 0 0 241.11 216.30
  Q 241.15 217.24 239.50 218.95
  Q 238.68 219.79 235.89 224.56
  A 0.07 0.05 46.6 0 0 235.90 224.63
  L 236.17 224.95
  A 0.30 0.29 40.1 0 0 236.65 224.91
  L 240.39 218.44
  A 0.29 0.29 0.0 0 1 240.94 218.58
  Q 241.00 222.73 240.19 227.82
  Q 240.10 228.42 239.78 228.62
  Q 238.94 229.13 238.92 229.18
  A 0.35 0.35 0.0 0 0 239.33 229.66
  Q 241.37 229.10 242.33 229.63
  A 0.13 0.13 0.0 0 0 242.49 229.43"
/>
<path stroke="#807f7f" vector-effect="non-scaling-stroke" d="
  M 229.48 216.79
  Q 228.50 223.01 228.26 224.76
  Q 228.09 226.03 226.23 226.32
  A 0.16 0.15 -0.5 0 0 226.10 226.44
  L 226.07 226.71
  A 0.43 0.43 0.0 0 0 226.56 227.19
  Q 228.02 227.00 229.42 227.83
  A 0.32 0.31 77.9 0 0 229.76 227.30
  L 229.28 226.97
  A 1.10 1.09 -68.4 0 1 228.84 225.95
  L 230.02 216.88
  A 0.27 0.27 0.0 0 0 229.80 216.57
  L 229.79 216.57
  A 0.27 0.26 8.6 0 0 229.48 216.79"
/>
<path stroke="#807f7f" vector-effect="non-scaling-stroke" d="
  M 243.94 47.20
  L 244.19 53.79
  A 0.64 0.64 0.0 0 0 244.85 54.41
  L 245.06 54.40
  A 4.57 3.77 -2.2 0 0 249.48 50.46
  L 249.47 50.12
  A 4.57 3.77 -2.2 0 0 244.76 46.52
  L 244.55 46.53
  A 0.64 0.64 0.0 0 0 243.94 47.20"
/>
<path stroke="#807f7f" vector-effect="non-scaling-stroke" d="
  M 213.92 56.27
  L 213.92 61.55
  A 0.95 0.94 88.0 0 0 214.93 62.50
  L 218.97 62.22
  A 0.28 0.28 0.0 0 0 219.17 61.76
  L 214.39 56.10
  A 0.27 0.27 0.0 0 0 213.92 56.27"
/>
<path stroke="#800108" vector-effect="non-scaling-stroke" d="
  M 295.02 170.32
  A 0.26 0.26 0.0 0 0 294.55 170.17
  L 289.26 177.59
  A 0.50 0.49 -74.5 0 0 289.70 178.37
  L 294.41 178.05
  A 0.66 0.66 0.0 0 0 295.02 177.39
  L 295.02 170.32"
/>
</g>
<path fill="#000000" d="
  M 512.00 0.00
  L 512.00 270.00
  L 0.00 270.00
  L 0.00 0.00
  L 512.00 0.00
  Z
  M 141.7415 137.2057
  A 107.77 107.61 -179.7 0 0 248.9466 245.3785
  A 107.77 107.61 -179.7 0 0 357.2785 138.3343
  A 107.77 107.61 -179.7 0 0 250.0734 30.1615
  A 107.77 107.61 -179.7 0 0 141.7415 137.2057
  Z"
/>
<path fill="#fffefe" d="
  M 141.7415 137.2057
  A 107.77 107.61 -179.7 0 1 250.0734 30.1615
  A 107.77 107.61 -179.7 0 1 357.2785 138.3343
  A 107.77 107.61 -179.7 0 1 248.9466 245.3785
  A 107.77 107.61 -179.7 0 1 141.7415 137.2057
  Z
  M 243.87 31.65
  C 211.97 33.35 183.42 48.09 164.08 73.74
  C 137.81 108.60 135.75 156.17 158.54 193.61
  C 179.00 227.23 215.91 246.00 255.17 243.91
  C 294.43 241.83 329.14 219.24 345.92 183.64
  C 364.60 143.99 357.50 96.91 327.68 65.03
  C 305.73 41.58 275.77 29.95 243.87 31.65
  Z"
/>
<path fill="#000000" d="
  M 255.17 243.91
  C 215.91 246.00 179.00 227.23 158.54 193.61
  C 135.75 156.17 137.81 108.60 164.08 73.74
  C 183.42 48.09 211.97 33.35 243.87 31.65
  C 275.77 29.95 305.73 41.58 327.68 65.03
  C 357.50 96.91 364.60 143.99 345.92 183.64
  C 329.14 219.24 294.43 241.83 255.17 243.91
  Z
  M 242.27 60.60
  L 245.24 60.60
  A 0.41 0.40 63.3 0 0 245.48 59.87
  Q 243.75 58.57 244.22 55.27
  A 0.64 0.64 0.0 0 1 244.94 54.72
  Q 246.57 54.93 249.08 53.80
  Q 253.50 51.80 250.80 47.49
  A 1.45 1.44 -6.0 0 0 250.04 46.88
  C 248.38 46.28 245.66 45.66 243.69 46.33
  Q 242.85 46.61 241.36 46.31
  A 0.42 0.42 0.0 0 0 241.02 47.05
  C 242.41 48.15 242.14 49.76 242.21 51.30
  Q 242.55 58.07 241.86 60.03
  A 0.43 0.43 0.0 0 0 242.27 60.60
  Z
  M 265.62 62.20
  L 269.68 62.20
  A 0.22 0.22 0.0 0 0 269.82 61.82
  Q 269.05 61.14 268.48 59.29
  Q 266.59 53.17 265.36 47.46
  A 0.48 0.48 0.0 0 0 264.48 47.32
  L 263.47 49.08
  A 1.24 1.21 51.9 0 0 263.36 50.08
  L 266.50 60.09
  A 0.64 0.64 0.0 0 1 266.27 60.80
  L 265.37 61.45
  A 0.42 0.41 26.8 0 0 265.62 62.20
  Z
  M 293.19 57.06
  A 0.20 0.20 0.0 0 0 293.39 56.72
  Q 291.80 55.55 289.68 55.34
  A 0.22 0.22 0.0 0 0 289.51 55.72
  Q 290.79 56.90 289.99 58.70
  Q 288.62 61.80 287.56 64.07
  Q 285.72 68.02 281.62 66.01
  C 277.56 64.02 281.40 57.00 283.08 53.88
  A 0.98 0.98 0.0 0 1 284.12 53.39
  L 284.41 53.44
  A 0.41 0.41 0.0 0 0 284.79 52.77
  Q 283.49 51.30 281.00 50.78
  A 0.32 0.32 0.0 0 0 280.68 51.28
  L 281.48 52.38
  A 0.77 0.77 0.0 0 1 281.49 53.27
  Q 281.10 53.86 278.47 58.78
  C 275.51 64.33 281.33 69.12 286.33 66.70
  A 1.71 1.71 0.0 0 0 287.13 65.90
  L 291.21 57.39
  A 0.69 0.57 84.7 0 1 291.34 57.20
  Q 292.04 56.53 293.19 57.06
  Z
  M 262.67 51.31
  Q 262.64 51.31 262.62 51.30
  A 0.15 0.15 0.0 0 0 262.42 51.35
  L 256.86 60.41
  A 0.28 0.27 15.7 0 0 257.10 60.83
  L 259.22 60.83
  A 0.23 0.22 12.7 0 0 259.42 60.71
  Q 259.56 60.39 259.25 60.26
  A 0.97 0.89 27.6 0 1 258.76 58.91
  Q 261.56 54.69 262.83 51.39
  A 0.14 0.07 -1.0 0 0 262.67 51.31
  Z
  M 220.41 65.83
  Q 222.13 65.44 224.32 64.34
  A 0.31 0.31 0.0 0 0 224.40 63.85
  L 213.98 53.43
  A 0.47 0.47 0.0 0 0 213.18 53.77
  L 213.57 67.50
  A 0.82 0.79 65.3 0 1 213.39 68.01
  Q 213.26 68.16 213.22 68.22
  A 0.37 0.37 0.0 0 0 213.60 68.79
  L 214.85 68.55
  A 0.41 0.40 -14.3 0 0 215.16 68.04
  L 214.03 64.47
  A 1.13 1.13 0.0 0 1 215.00 63.01
  L 219.74 62.53
  A 0.97 0.96 51.6 0 1 220.15 62.58
  Q 221.33 63.01 222.44 63.94
  A 0.36 0.36 0.0 0 1 222.37 64.54
  L 220.31 65.54
  A 0.15 0.15 0.0 0 0 220.41 65.83
  Z
  M 264.5677 56.8305
  A 1.77 0.26 -2.9 0 0 262.7868 56.6603
  A 1.77 0.26 -2.9 0 0 261.0323 57.0095
  A 1.77 0.26 -2.9 0 0 262.8132 57.1797
  A 1.77 0.26 -2.9 0 0 264.5677 56.8305
  Z
  M 293.32 72.91
  L 299.44 77.27
  A 0.87 0.86 -71.3 0 1 299.80 78.01
  L 299.77 78.61
  A 0.78 0.78 0.0 0 0 301.01 79.26
  Q 302.39 78.27 303.22 77.08
  A 0.41 0.41 0.0 0 0 302.75 76.46
  L 301.16 76.96
  A 1.17 1.17 0.0 0 1 300.14 76.80
  L 296.66 74.32
  A 0.56 0.56 0.0 0 1 296.45 73.98
  Q 296.33 73.40 296.89 73.26
  Q 297.40 73.13 297.66 72.76
  C 300.33 68.95 301.70 66.84 305.05 64.59
  A 0.46 0.45 47.6 0 0 305.08 63.86
  L 302.33 61.70
  A 0.27 0.27 0.0 0 0 301.89 61.96
  Q 301.97 62.41 302.60 62.90
  A 0.26 0.24 38.5 0 1 302.65 63.25
  L 295.34 72.53
  A 0.83 0.82 28.8 0 1 294.43 72.79
  Q 293.78 72.57 293.51 72.49
  A 0.24 0.23 69.9 0 0 293.32 72.91
  Z
  M 190.77 68.19
  Q 195.64 72.21 198.66 78.41
  A 0.61 0.61 0.0 0 0 199.60 78.60
  Q 200.75 77.63 201.91 77.41
  A 0.21 0.21 0.0 0 0 201.96 77.02
  Q 199.41 75.75 197.68 72.29
  A 0.38 0.38 0.0 0 1 198.04 71.74
  Q 203.31 71.97 207.26 73.68
  A 0.33 0.32 22.0 0 0 207.69 73.50
  L 207.80 73.22
  A 0.56 0.55 25.5 0 0 207.55 72.52
  Q 204.61 70.91 201.21 70.62
  A 0.76 0.75 -75.2 0 1 200.59 69.55
  Q 201.47 67.69 201.30 65.65
  A 1.19 1.17 -74.0 0 0 200.83 64.79
  Q 198.10 62.75 194.96 64.05
  A 0.19 0.19 0.0 0 0 195.00 64.41
  Q 197.43 64.91 197.48 64.94
  Q 200.48 66.96 199.56 69.73
  A 2.12 2.06 -65.9 0 1 196.54 70.93
  Q 195.70 70.45 193.92 68.54
  Q 192.12 66.61 193.80 64.88
  A 0.23 0.22 -48.3 0 0 193.79 64.55
  L 193.74 64.50
  A 0.19 0.18 43.7 0 0 193.49 64.50
  Q 192.29 65.62 191.91 66.99
  A 0.99 0.99 0.0 0 1 191.05 67.70
  Q 190.91 67.71 190.90 67.72
  A 0.27 0.26 60.7 0 0 190.77 68.19
  Z
  M 316.17 89.55
  Q 315.80 89.82 314.43 91.74
  A 0.58 0.58 0.0 0 1 313.49 91.74
  L 309.74 86.54
  A 0.49 0.49 0.0 0 1 309.85 85.85
  L 318.61 79.52
  A 0.64 0.64 0.0 0 1 319.39 79.54
  C 321.25 81.01 323.08 82.77 322.28 85.11
  A 0.24 0.24 0.0 0 0 322.63 85.40
  Q 324.01 84.64 323.95 83.88
  A 0.44 0.42 -65.5 0 0 323.88 83.68
  L 318.14 75.74
  A 0.27 0.27 0.0 0 0 317.66 75.96
  Q 317.72 76.19 317.86 76.64
  A 1.06 1.05 -28.1 0 1 317.51 77.77
  Q 312.23 82.00 309.05 84.25
  C 308.49 84.65 308.00 84.55 307.41 84.66
  A 0.37 0.37 0.0 0 0 307.19 85.26
  L 313.69 92.97
  A 0.56 0.56 0.0 0 0 314.60 92.89
  L 316.41 89.76
  A 0.16 0.16 0.0 0 0 316.17 89.55
  Z
  M 187.39 91.07
  A 0.31 0.30 37.4 0 0 187.81 91.02
  L 193.14 84.25
  A 0.28 0.28 0.0 0 0 193.19 83.98
  Q 192.56 82.34 191.11 81.07
  A 0.28 0.28 0.0 0 0 190.65 81.32
  Q 190.80 82.27 191.58 83.15
  A 1.47 1.46 -47.0 0 1 191.64 85.03
  L 188.76 88.68
  A 1.02 1.00 38.2 0 1 187.34 88.84
  L 183.54 85.85
  A 0.85 0.85 0.0 0 1 183.40 84.65
  L 184.76 82.92
  A 0.90 0.90 0.0 0 1 186.03 82.77
  Q 186.80 83.38 187.08 83.44
  A 0.67 0.67 0.0 0 0 187.77 82.40
  Q 187.15 81.50 186.19 81.15
  Q 185.52 80.91 184.56 81.92
  Q 184.12 82.39 182.42 83.82
  A 0.97 0.95 35.8 0 1 181.44 83.97
  Q 180.14 83.45 179.20 82.68
  A 1.00 0.99 -51.2 0 1 179.05 81.29
  L 181.65 77.99
  A 0.95 0.95 0.0 0 1 183.02 77.87
  Q 183.70 78.47 184.50 78.22
  A 0.46 0.46 0.0 0 0 184.65 77.42
  L 182.42 75.66
  A 0.63 0.62 39.0 0 0 181.55 75.75
  C 180.86 76.56 180.92 77.61 179.99 78.56
  Q 178.31 80.28 177.19 82.18
  A 0.78 0.77 34.4 0 0 177.38 83.18
  L 187.39 91.07
  Z
  M 318.62 86.57
  Q 318.76 86.31 318.79 86.18
  A 0.63 0.63 0.0 0 0 318.40 85.45
  Q 315.19 84.26 314.99 84.65
  Q 314.78 85.03 317.57 87.02
  A 0.63 0.63 0.0 0 0 318.39 86.93
  Q 318.48 86.83 318.62 86.57
  Z
  M 331.66 103.79
  L 333.77 102.76
  A 0.56 0.55 65.4 0 0 334.03 102.04
  L 330.18 93.11
  A 0.33 0.28 -84.8 0 0 330.09 92.98
  Q 328.77 91.91 327.09 93.02
  A 0.26 0.26 0.0 0 0 327.22 93.49
  Q 329.39 93.56 330.40 95.38
  A 1.62 1.10 -30.3 0 1 329.57 97.13
  Q 326.42 99.03 321.61 100.85
  Q 319.29 101.72 318.67 100.59
  A 0.13 0.12 -63.7 0 0 318.44 100.67
  Q 318.48 100.93 319.84 104.33
  A 0.31 0.31 0.0 0 0 320.42 104.33
  L 320.87 103.19
  A 0.66 0.63 -3.3 0 1 321.18 102.86
  L 330.71 98.21
  A 0.69 0.68 59.0 0 1 331.57 98.43
  Q 332.43 99.67 332.85 101.97
  A 0.62 0.61 77.0 0 1 332.42 102.67
  Q 331.51 102.94 331.42 103.62
  A 0.17 0.16 -8.8 0 0 331.66 103.79
  Z
  M 272.98 111.37
  A 0.61 0.61 0.0 0 0 274.19 111.28
  L 274.19 94.28
  A 0.65 0.65 0.0 0 0 273.54 93.63
  L 208.50 93.63
  A 0.77 0.77 0.0 0 0 207.73 94.40
  L 207.73 111.29
  A 0.47 0.47 0.0 0 0 208.64 111.45
  C 210.92 105.18 213.09 99.98 219.88 97.66
  Q 227.06 95.21 234.81 95.68
  A 0.75 0.74 3.2 0 1 235.51 96.45
  Q 234.96 109.87 235.04 126.00
  Q 235.05 128.92 235.72 131.96
  A 0.51 0.51 0.0 0 0 236.46 132.31
  Q 240.63 130.10 245.90 129.15
  A 1.20 1.19 84.6 0 0 246.88 127.96
  C 246.79 121.31 245.99 116.63 246.48 110.03
  Q 246.77 106.11 246.37 97.17
  A 1.18 1.18 0.0 0 1 247.52 95.94
  C 252.09 95.82 256.67 95.56 260.99 96.88
  Q 271.33 100.06 272.98 111.37
  Z
  M 170.75 99.12
  L 174.70 99.12
  A 0.61 0.61 0.0 0 1 175.31 99.73
  L 175.31 101.61
  A 0.47 0.47 0.0 0 0 176.16 101.88
  Q 176.52 101.37 176.86 100.82
  C 178.04 98.88 179.86 99.13 181.23 100.92
  A 0.29 0.29 0.0 0 0 181.72 100.87
  L 182.91 98.40
  A 0.44 0.43 -77.4 0 0 182.52 97.78
  L 167.73 97.78
  A 0.32 0.32 0.0 0 0 167.58 98.38
  Q 168.83 99.04 169.24 99.53
  Q 172.15 103.00 175.44 106.18
  A 0.22 0.22 0.0 0 0 175.73 106.19
  L 175.96 105.98
  A 0.03 0.02 -38.0 0 0 175.97 105.94
  L 170.51 99.64
  A 0.32 0.31 -20.4 0 1 170.75 99.12
  Z
  M 177.32 108.40
  Q 177.86 108.80 178.46 108.42
  A 0.70 0.69 -7.3 0 0 178.73 108.07
  Q 179.21 106.67 178.83 106.38
  Q 178.45 106.10 177.23 106.96
  A 0.70 0.69 80.9 0 0 176.98 107.31
  Q 176.78 108.00 177.32 108.40
  Z
  M 334.12 111.40
  Q 337.41 111.41 337.20 115.27
  A 0.69 0.68 -6.4 0 1 336.69 115.90
  L 327.04 118.35
  A 1.00 0.98 50.2 0 1 326.36 118.28
  L 325.02 117.64
  A 0.30 0.30 0.0 0 0 324.60 118.00
  L 325.53 120.95
  A 0.24 0.24 0.0 0 0 325.93 121.05
  L 326.85 120.12
  A 1.25 1.22 15.4 0 1 327.45 119.79
  L 337.10 117.64
  A 0.64 0.63 -13.5 0 1 337.86 118.10
  Q 338.60 121.12 336.92 123.13
  A 0.35 0.35 0.0 0 0 337.18 123.71
  Q 337.82 123.74 339.19 122.64
  A 1.00 1.00 0.0 0 0 339.54 121.61
  L 337.94 115.42
  A 0.76 0.54 49.5 0 1 337.92 115.19
  C 338.13 112.49 337.76 110.40 334.10 111.21
  A 0.10 0.10 0.0 0 0 334.12 111.40
  Z
  M 161.65 116.58
  L 162.52 115.84
  A 0.89 0.87 -57.2 0 1 163.30 115.66
  L 173.92 118.19
  A 0.93 0.91 -2.2 0 1 174.58 118.79
  L 174.94 119.81
  A 0.03 0.02 0.0 0 0 174.97 119.83
  L 175.23 119.81
  A 0.36 0.36 0.0 0 0 175.54 119.36
  Q 175.15 117.88 175.90 116.65
  A 0.46 0.46 0.0 0 0 175.48 115.95
  Q 169.07 116.35 163.61 113.42
  A 0.60 0.60 0.0 0 0 162.77 113.72
  L 161.63 116.57
  A 0.01 0.01 0.0 0 0 161.65 116.58
  Z
  M 268.15 157.31
  Q 281.42 161.31 291.63 153.83
  C 297.30 149.68 300.04 142.92 299.81 136.02
  C 299.50 126.82 294.77 120.26 286.09 117.99
  Q 281.42 116.77 279.07 116.65
  Q 274.49 116.41 250.74 116.55
  A 0.34 0.33 14.2 0 0 250.48 116.70
  Q 250.36 116.88 250.52 117.30
  A 0.42 0.41 -4.4 0 0 250.85 117.57
  Q 255.26 118.24 255.30 122.70
  C 255.33 125.32 255.48 128.09 255.63 129.56
  A 1.02 1.02 0.0 0 0 256.23 130.39
  Q 260.40 132.26 263.06 135.90
  A 0.45 0.45 0.0 0 0 263.87 135.63
  L 263.87 118.89
  A 0.64 0.63 89.5 0 1 264.49 118.25
  Q 271.30 118.08 275.80 118.46
  C 282.18 119.00 288.73 122.50 290.33 129.17
  Q 292.35 137.59 289.42 146.40
  Q 286.04 156.52 275.01 157.13
  Q 270.47 157.38 268.28 156.85
  A 0.23 0.23 0.0 0 0 268.00 157.02
  L 267.99 157.04
  A 0.23 0.23 0.0 0 0 268.15 157.31
  Z
  M 340.71 122.84
  Q 340.57 123.06 340.57 123.24
  A 0.18 0.18 0.0 0 0 340.90 123.34
  Q 340.98 123.23 340.99 122.92
  A 0.15 0.15 0.0 0 0 340.71 122.84
  Z
  M 161.71 137.34
  Q 159.45 136.17 160.26 132.77
  A 0.57 0.57 0.0 0 1 160.90 132.34
  Q 165.85 133.06 171.73 133.04
  Q 171.98 133.04 172.38 133.27
  Q 173.13 133.71 173.16 133.71
  A 0.24 0.23 -15.9 0 0 173.38 133.32
  Q 172.98 132.90 173.07 130.52
  A 0.37 0.37 0.0 0 0 172.41 130.28
  L 172.04 130.74
  A 0.84 0.83 18.8 0 1 171.38 131.06
  L 161.74 131.06
  A 1.51 1.51 0.0 0 1 160.40 128.84
  Q 161.11 127.49 162.50 126.36
  A 0.49 0.48 47.5 0 0 162.53 125.62
  L 162.47 125.56
  A 0.57 0.57 0.0 0 0 161.75 125.51
  C 158.87 127.55 159.62 132.14 159.57 137.15
  A 0.94 0.91 -74.0 0 0 159.99 137.93
  Q 160.90 138.49 161.50 138.43
  A 0.58 0.58 0.0 0 0 161.71 137.34
  Z
  M 259.90 135.66
  C 259.15 133.01 251.34 131.90 248.56 131.73
  Q 244.15 131.46 239.62 134.01
  Q 233.27 137.59 230.07 140.83
  Q 221.64 149.37 218.34 152.57
  C 209.56 161.09 202.24 164.29 190.14 161.92
  A 1.31 1.27 -21.6 0 1 189.63 161.71
  L 185.43 158.84
  A 0.44 0.44 0.0 0 0 184.81 158.97
  L 184.80 158.98
  A 0.27 0.26 -51.4 0 0 184.83 159.32
  Q 188.01 162.37 191.99 163.22
  C 202.04 165.36 208.76 162.73 217.97 157.68
  Q 219.89 156.63 226.41 150.56
  Q 234.37 143.15 244.44 137.97
  Q 252.13 134.01 259.48 136.08
  A 0.34 0.34 0.0 0 0 259.90 135.66
  Z
  M 327.22 132.62
  L 327.22 140.81
  A 0.93 0.92 -78.4 0 0 327.78 141.66
  Q 328.93 142.15 330.47 141.76
  A 0.33 0.32 -45.3 0 0 330.47 141.13
  L 328.57 140.67
  A 1.20 1.19 6.8 0 1 327.65 139.51
  L 327.65 134.46
  A 0.59 0.59 0.0 0 1 328.29 133.87
  L 336.30 134.58
  A 0.90 0.86 -52.0 0 0 336.71 134.52
  L 339.45 133.40
  A 0.60 0.59 -9.0 0 1 340.27 133.99
  L 339.88 139.27
  A 0.72 0.71 -16.3 0 1 339.58 139.81
  L 338.50 140.59
  A 0.36 0.35 -54.2 0 0 338.60 141.22
  Q 339.77 141.57 340.44 141.30
  A 0.80 0.80 0.0 0 0 340.93 140.36
  C 340.16 137.36 341.14 135.15 341.03 132.49
  A 0.56 0.56 0.0 0 0 340.34 131.97
  Q 335.53 133.11 327.85 132.07
  A 0.56 0.56 0.0 0 0 327.22 132.62
  Z
  M 333.27 137.12
  Q 333.28 138.62 333.92 140.09
  A 0.79 0.79 0.0 0 0 334.81 140.54
  L 334.87 140.54
  A 0.54 0.53 -14.9 0 0 335.29 139.82
  L 334.17 136.95
  A 0.47 0.46 34.2 0 0 333.27 137.12
  Z
  M 269.45 185.90
  Q 266.68 185.28 264.79 183.38
  Q 263.62 182.21 263.64 178.37
  Q 263.66 175.74 263.83 142.43
  A 2.84 2.84 0.0 0 0 262.05 139.78
  L 257.17 137.82
  A 1.40 1.40 0.0 0 0 255.25 139.12
  L 255.25 181.12
  A 1.99 1.89 -35.4 0 1 255.11 181.84
  L 254.36 183.71
  A 2.06 2.06 0.0 0 0 256.27 186.53
  L 269.38 186.53
  A 0.32 0.32 0.0 0 0 269.45 185.90
  Z
  M 228.36 186.26
  A 0.20 0.20 0.0 0 0 228.44 186.64
  L 250.85 186.64
  A 0.30 0.30 0.0 0 0 251.01 186.09
  C 247.55 183.88 246.37 182.01 246.42 177.71
  Q 246.67 156.34 245.98 141.23
  A 0.68 0.68 0.0 0 0 245.03 140.64
  Q 240.03 142.74 236.23 146.08
  A 2.44 2.43 70.0 0 0 235.40 147.87
  Q 235.02 170.05 234.94 177.06
  C 234.90 181.01 234.14 183.68 230.70 185.21
  Q 228.68 186.11 228.36 186.26
  Z
  M 298.80 185.22
  L 298.08 184.71
  A 0.94 0.91 18.3 0 1 297.69 183.96
  L 297.69 180.95
  A 0.83 0.83 0.0 0 1 298.49 180.12
  L 299.34 180.10
  A 0.91 0.91 0.0 0 0 299.44 178.30
  Q 299.32 178.28 298.23 177.99
  A 0.54 0.54 0.0 0 1 297.84 177.47
  L 297.84 165.95
  A 0.77 0.77 0.0 0 0 296.44 165.50
  L 286.75 179.11
  A 0.66 0.66 0.0 0 0 287.29 180.16
  L 294.17 180.16
  A 0.94 0.94 0.0 0 1 295.08 180.87
  Q 295.34 181.87 295.59 183.23
  C 295.81 184.38 294.58 185.01 294.64 185.62
  A 0.74 0.74 0.0 0 0 295.46 186.29
  L 298.61 185.95
  A 0.40 0.40 0.0 0 0 298.80 185.22
  Z
  M 272.37 170.16
  A 0.25 0.25 0.0 0 0 272.80 170.36
  L 274.94 167.92
  A 0.92 0.92 0.0 0 1 275.36 167.64
  Q 280.56 165.96 281.33 171.04
  Q 281.94 174.98 278.83 177.84
  Q 276.81 179.71 271.48 185.10
  A 0.53 0.53 0.0 0 0 271.86 186.01
  L 282.36 186.01
  A 2.10 2.09 -79.7 0 0 284.32 184.64
  L 284.49 184.19
  A 0.71 0.71 0.0 0 0 283.63 183.38
  Q 280.01 184.18 275.96 183.64
  A 0.39 0.39 0.0 0 1 275.74 182.98
  Q 278.91 179.74 281.94 176.42
  Q 285.04 173.05 284.19 168.70
  A 1.62 1.57 -76.0 0 0 283.68 167.82
  Q 279.11 163.86 273.79 167.32
  A 2.17 2.17 0.0 0 0 273.12 167.99
  Q 272.56 168.84 272.37 170.16
  Z
  M 167.26 173.49
  Q 169.38 175.01 171.71 173.32
  A 1.36 1.32 78.0 0 0 172.24 172.48
  Q 172.58 170.58 171.51 169.14
  A 2.38 2.37 55.9 0 0 168.35 168.53
  Q 166.14 169.91 166.72 172.65
  A 1.40 1.36 -78.6 0 0 167.26 173.49
  Z
  M 334.54 171.29
  A 2.95 2.95 0.0 0 0 331.59 168.34
  A 2.95 2.95 0.0 0 0 328.64 171.29
  A 2.95 2.95 0.0 0 0 331.59 174.24
  A 2.95 2.95 0.0 0 0 334.54 171.29
  Z
  M 215.61 207.27
  Q 214.45 207.31 211.54 205.52
  A 0.13 0.13 0.0 0 0 211.37 205.71
  L 212.09 206.71
  A 0.74 0.71 39.4 0 1 212.17 207.40
  L 207.85 218.17
  A 0.81 0.81 0.0 0 1 207.11 218.68
  Q 206.92 218.68 206.75 218.63
  A 0.32 0.32 0.0 0 0 206.35 218.94
  Q 206.36 219.61 206.86 219.67
  Q 208.80 219.92 210.10 220.84
  C 212.45 222.52 215.72 223.86 217.25 220.61
  A 0.23 0.23 0.0 0 0 216.91 220.32
  L 214.69 221.93
  A 1.30 1.30 0.0 0 1 213.28 222.00
  L 209.64 219.90
  A 0.69 0.68 -64.6 0 1 209.35 219.06
  L 213.56 208.60
  A 0.99 0.98 9.0 0 1 214.41 207.99
  Q 215.79 207.91 215.84 207.86
  A 0.34 0.34 0.0 0 0 215.61 207.27
  Z
  M 284.46 207.99
  L 287.05 207.81
  A 0.50 0.50 0.0 0 0 287.51 207.27
  L 287.45 206.35
  A 0.46 0.46 0.0 0 0 286.73 206.01
  L 284.37 207.72
  A 0.15 0.15 0.0 0 0 284.46 207.99
  Z
  M 269.26 213.62
  Q 273.84 217.44 278.79 224.17
  A 0.64 0.64 0.0 0 0 279.94 223.75
  L 279.24 213.71
  A 0.41 0.41 0.0 0 1 279.96 213.41
  L 286.88 221.61
  A 0.37 0.36 -65.3 0 0 287.52 221.37
  L 287.52 208.87
  A 0.23 0.22 87.7 0 0 287.28 208.64
  L 286.88 208.67
  A 0.04 0.04 0.0 0 0 286.84 208.71
  L 286.65 217.78
  A 0.34 0.34 0.0 0 1 286.05 217.99
  Q 280.01 210.89 278.81 209.71
  A 0.64 0.64 0.0 0 0 277.79 210.45
  L 278.65 212.22
  A 0.62 0.46 36.7 0 1 278.68 212.32
  L 279.04 220.57
  A 0.35 0.34 23.7 0 1 278.43 220.80
  L 273.05 214.42
  A 1.05 1.03 36.3 0 1 272.88 213.37
  L 273.52 211.78
  A 0.10 0.09 -70.6 0 0 273.47 211.66
  L 273.22 211.56
  A 0.33 0.31 20.7 0 0 272.80 211.74
  C 272.03 213.78 270.99 213.05 269.38 213.21
  A 0.23 0.23 0.0 0 0 269.26 213.62
  Z
  M 234.14 227.82
  L 235.59 227.42
  A 0.27 0.27 0.0 0 0 235.77 227.09
  L 232.36 214.85
  A 2.60 0.82 74.4 0 0 230.87 212.56
  L 230.48 212.67
  A 2.60 0.82 74.4 0 0 230.39 215.40
  L 233.81 227.64
  A 0.27 0.27 0.0 0 0 234.14 227.82
  Z
  M 253.99 226.69
  Q 254.15 227.99 254.89 228.84
  A 2.08 2.04 77.5 0 0 255.78 229.42
  Q 258.39 230.25 261.12 229.15
  C 263.58 228.16 264.80 225.21 262.83 223.00
  C 261.59 221.60 259.23 221.37 257.09 220.91
  A 1.77 1.73 -13.3 0 1 256.16 220.35
  C 253.63 217.40 256.86 214.64 260.34 215.86
  A 0.61 0.58 80.3 0 1 260.62 216.07
  L 261.96 217.93
  A 0.28 0.28 0.0 0 0 262.46 217.77
  L 262.46 216.02
  A 0.58 0.58 0.0 0 0 261.90 215.44
  Q 261.29 215.42 259.84 214.95
  C 255.09 213.41 250.98 220.15 256.77 222.55
  C 258.21 223.14 262.77 222.99 262.11 226.48
  Q 261.48 229.84 257.28 229.12
  Q 256.49 228.98 254.43 226.50
  A 0.25 0.25 0.0 0 0 253.99 226.69
  Z
  M 242.49 229.43
  Q 241.69 228.50 241.95 226.97
  Q 243.18 219.75 243.35 217.49
  A 0.95 0.94 82.2 0 1 243.96 216.68
  Q 244.81 216.35 244.88 216.12
  A 0.47 0.47 0.0 0 0 244.42 215.51
  L 241.83 215.57
  A 0.74 0.73 -0.8 0 0 241.11 216.30
  Q 241.15 217.24 239.50 218.95
  Q 238.68 219.79 235.89 224.56
  A 0.07 0.05 46.6 0 0 235.90 224.63
  L 236.17 224.95
  A 0.30 0.29 40.1 0 0 236.65 224.91
  L 240.39 218.44
  A 0.29 0.29 0.0 0 1 240.94 218.58
  Q 241.00 222.73 240.19 227.82
  Q 240.10 228.42 239.78 228.62
  Q 238.94 229.13 238.92 229.18
  A 0.35 0.35 0.0 0 0 239.33 229.66
  Q 241.37 229.10 242.33 229.63
  A 0.13 0.13 0.0 0 0 242.49 229.43
  Z
  M 229.48 216.79
  Q 228.50 223.01 228.26 224.76
  Q 228.09 226.03 226.23 226.32
  A 0.16 0.15 -0.5 0 0 226.10 226.44
  L 226.07 226.71
  A 0.43 0.43 0.0 0 0 226.56 227.19
  Q 228.02 227.00 229.42 227.83
  A 0.32 0.31 77.9 0 0 229.76 227.30
  L 229.28 226.97
  A 1.10 1.09 -68.4 0 1 228.84 225.95
  L 230.02 216.88
  A 0.27 0.27 0.0 0 0 229.80 216.57
  L 229.79 216.57
  A 0.27 0.26 8.6 0 0 229.48 216.79
  Z"
/>
<g>
<path fill="#fffefe" d="
  M 241.86 60.03
  Q 242.55 58.07 242.21 51.30
  C 242.14 49.76 242.41 48.15 241.02 47.05
  A 0.42 0.42 0.0 0 1 241.36 46.31
  Q 242.85 46.61 243.69 46.33
  C 245.66 45.66 248.38 46.28 250.04 46.88
  A 1.45 1.44 -6.0 0 1 250.80 47.49
  Q 253.50 51.80 249.08 53.80
  Q 246.57 54.93 244.94 54.72
  A 0.64 0.64 0.0 0 0 244.22 55.27
  Q 243.75 58.57 245.48 59.87
  A 0.41 0.40 63.3 0 1 245.24 60.60
  L 242.27 60.60
  A 0.43 0.43 0.0 0 1 241.86 60.03
  Z
  M 243.94 47.20
  L 244.19 53.79
  A 0.64 0.64 0.0 0 0 244.85 54.41
  L 245.06 54.40
  A 4.57 3.77 -2.2 0 0 249.48 50.46
  L 249.47 50.12
  A 4.57 3.77 -2.2 0 0 244.76 46.52
  L 244.55 46.53
  A 0.64 0.64 0.0 0 0 243.94 47.20
  Z"
/>
<path fill="#fffefe" d="
  M 265.37 61.45
  L 266.27 60.80
  A 0.64 0.64 0.0 0 0 266.50 60.09
  L 263.36 50.08
  A 1.24 1.21 51.9 0 1 263.47 49.08
  L 264.48 47.32
  A 0.48 0.48 0.0 0 1 265.36 47.46
  Q 266.59 53.17 268.48 59.29
  Q 269.05 61.14 269.82 61.82
  A 0.22 0.22 0.0 0 1 269.68 62.20
  L 265.62 62.20
  A 0.42 0.41 26.8 0 1 265.37 61.45
  Z"
/>
<path fill="#fffefe" d="
  M 293.19 57.06
  Q 292.04 56.53 291.34 57.20
  A 0.69 0.57 84.7 0 0 291.21 57.39
  L 287.13 65.90
  A 1.71 1.71 0.0 0 1 286.33 66.70
  C 281.33 69.12 275.51 64.33 278.47 58.78
  Q 281.10 53.86 281.49 53.27
  A 0.77 0.77 0.0 0 0 281.48 52.38
  L 280.68 51.28
  A 0.32 0.32 0.0 0 1 281.00 50.78
  Q 283.49 51.30 284.79 52.77
  A 0.41 0.41 0.0 0 1 284.41 53.44
  L 284.12 53.39
  A 0.98 0.98 0.0 0 0 283.08 53.88
  C 281.40 57.00 277.56 64.02 281.62 66.01
  Q 285.72 68.02 287.56 64.07
  Q 288.62 61.80 289.99 58.70
  Q 290.79 56.90 289.51 55.72
  A 0.22 0.22 0.0 0 1 289.68 55.34
  Q 291.80 55.55 293.39 56.72
  A 0.20 0.20 0.0 0 1 293.19 57.06
  Z"
/>
<path fill="#fffefe" d="
  M 262.83 51.39
  Q 261.56 54.69 258.76 58.91
  A 0.97 0.89 27.6 0 0 259.25 60.26
  Q 259.56 60.39 259.42 60.71
  A 0.23 0.22 12.7 0 1 259.22 60.83
  L 257.10 60.83
  A 0.28 0.27 15.7 0 1 256.86 60.41
  L 262.42 51.35
  A 0.15 0.15 0.0 0 1 262.62 51.30
  Q 262.64 51.31 262.67 51.31
  A 0.14 0.07 -1.0 0 1 262.83 51.39
  Z"
/>
<path fill="#fffefe" d="
  M 220.31 65.54
  L 222.37 64.54
  A 0.36 0.36 0.0 0 0 222.44 63.94
  Q 221.33 63.01 220.15 62.58
  A 0.97 0.96 51.6 0 0 219.74 62.53
  L 215.00 63.01
  A 1.13 1.13 0.0 0 0 214.03 64.47
  L 215.16 68.04
  A 0.41 0.40 -14.3 0 1 214.85 68.55
  L 213.60 68.79
  A 0.37 0.37 0.0 0 1 213.22 68.22
  Q 213.26 68.16 213.39 68.01
  A 0.82 0.79 65.3 0 0 213.57 67.50
  L 213.18 53.77
  A 0.47 0.47 0.0 0 1 213.98 53.43
  L 224.40 63.85
  A 0.31 0.31 0.0 0 1 224.32 64.34
  Q 222.13 65.44 220.41 65.83
  A 0.15 0.15 0.0 0 1 220.31 65.54
  Z
  M 213.92 56.27
  L 213.92 61.55
  A 0.95 0.94 88.0 0 0 214.93 62.50
  L 218.97 62.22
  A 0.28 0.28 0.0 0 0 219.17 61.76
  L 214.39 56.10
  A 0.27 0.27 0.0 0 0 213.92 56.27
  Z"
/>
<ellipse fill="#fffefe" cx="0.00" cy="0.00" transform="translate(262.80,56.92) rotate(-2.9)" rx="1.77" ry="0.26"/>
<path fill="#fffefe" d="
  M 293.51 72.49
  Q 293.78 72.57 294.43 72.79
  A 0.83 0.82 28.8 0 0 295.34 72.53
  L 302.65 63.25
  A 0.26 0.24 38.5 0 0 302.60 62.90
  Q 301.97 62.41 301.89 61.96
  A 0.27 0.27 0.0 0 1 302.33 61.70
  L 305.08 63.86
  A 0.46 0.45 47.6 0 1 305.05 64.59
  C 301.70 66.84 300.33 68.95 297.66 72.76
  Q 297.40 73.13 296.89 73.26
  Q 296.33 73.40 296.45 73.98
  A 0.56 0.56 0.0 0 0 296.66 74.32
  L 300.14 76.80
  A 1.17 1.17 0.0 0 0 301.16 76.96
  L 302.75 76.46
  A 0.41 0.41 0.0 0 1 303.22 77.08
  Q 302.39 78.27 301.01 79.26
  A 0.78 0.78 0.0 0 1 299.77 78.61
  L 299.80 78.01
  A 0.87 0.86 -71.3 0 0 299.44 77.27
  L 293.32 72.91
  A 0.24 0.23 69.9 0 1 293.51 72.49
  Z"
/>
<path fill="#fffefe" d="
  M 190.90 67.72
  Q 190.91 67.71 191.05 67.70
  A 0.99 0.99 0.0 0 0 191.91 66.99
  Q 192.29 65.62 193.49 64.50
  A 0.19 0.18 43.7 0 1 193.74 64.50
  L 193.79 64.55
  A 0.23 0.22 -48.3 0 1 193.80 64.88
  Q 192.12 66.61 193.92 68.54
  Q 195.70 70.45 196.54 70.93
  A 2.12 2.06 -65.9 0 0 199.56 69.73
  Q 200.48 66.96 197.48 64.94
  Q 197.43 64.91 195.00 64.41
  A 0.19 0.19 0.0 0 1 194.96 64.05
  Q 198.10 62.75 200.83 64.79
  A 1.19 1.17 -74.0 0 1 201.30 65.65
  Q 201.47 67.69 200.59 69.55
  A 0.76 0.75 -75.2 0 0 201.21 70.62
  Q 204.61 70.91 207.55 72.52
  A 0.56 0.55 25.5 0 1 207.80 73.22
  L 207.69 73.50
  A 0.33 0.32 22.0 0 1 207.26 73.68
  Q 203.31 71.97 198.04 71.74
  A 0.38 0.38 0.0 0 0 197.68 72.29
  Q 199.41 75.75 201.96 77.02
  A 0.21 0.21 0.0 0 1 201.91 77.41
  Q 200.75 77.63 199.60 78.60
  A 0.61 0.61 0.0 0 1 198.66 78.41
  Q 195.64 72.21 190.77 68.19
  A 0.27 0.26 60.7 0 1 190.90 67.72
  Z"
/>
<path fill="#fffefe" d="
  M 316.41 89.76
  L 314.60 92.89
  A 0.56 0.56 0.0 0 1 313.69 92.97
  L 307.19 85.26
  A 0.37 0.37 0.0 0 1 307.41 84.66
  C 308.00 84.55 308.49 84.65 309.05 84.25
  Q 312.23 82.00 317.51 77.77
  A 1.06 1.05 -28.1 0 0 317.86 76.64
  Q 317.72 76.19 317.66 75.96
  A 0.27 0.27 0.0 0 1 318.14 75.74
  L 323.88 83.68
  A 0.44 0.42 -65.5 0 1 323.95 83.88
  Q 324.01 84.64 322.63 85.40
  A 0.24 0.24 0.0 0 1 322.28 85.11
  C 323.08 82.77 321.25 81.01 319.39 79.54
  A 0.64 0.64 0.0 0 0 318.61 79.52
  L 309.85 85.85
  A 0.49 0.49 0.0 0 0 309.74 86.54
  L 313.49 91.74
  A 0.58 0.58 0.0 0 0 314.43 91.74
  Q 315.80 89.82 316.17 89.55
  A 0.16 0.16 0.0 0 1 316.41 89.76
  Z"
/>
<path fill="#fffefe" d="
  M 187.39 91.07
  L 177.38 83.18
  A 0.78 0.77 34.4 0 1 177.19 82.18
  Q 178.31 80.28 179.99 78.56
  C 180.92 77.61 180.86 76.56 181.55 75.75
  A 0.63 0.62 39.0 0 1 182.42 75.66
  L 184.65 77.42
  A 0.46 0.46 0.0 0 1 184.50 78.22
  Q 183.70 78.47 183.02 77.87
  A 0.95 0.95 0.0 0 0 181.65 77.99
  L 179.05 81.29
  A 1.00 0.99 -51.2 0 0 179.20 82.68
  Q 180.14 83.45 181.44 83.97
  A 0.97 0.95 35.8 0 0 182.42 83.82
  Q 184.12 82.39 184.56 81.92
  Q 185.52 80.91 186.19 81.15
  Q 187.15 81.50 187.77 82.40
  A 0.67 0.67 0.0 0 1 187.08 83.44
  Q 186.80 83.38 186.03 82.77
  A 0.90 0.90 0.0 0 0 184.76 82.92
  L 183.40 84.65
  A 0.85 0.85 0.0 0 0 183.54 85.85
  L 187.34 88.84
  A 1.02 1.00 38.2 0 0 188.76 88.68
  L 191.64 85.03
  A 1.47 1.46 -47.0 0 0 191.58 83.15
  Q 190.80 82.27 190.65 81.32
  A 0.28 0.28 0.0 0 1 191.11 81.07
  Q 192.56 82.34 193.19 83.98
  A 0.28 0.28 0.0 0 1 193.14 84.25
  L 187.81 91.02
  A 0.31 0.30 37.4 0 1 187.39 91.07
  Z"
/>
<path fill="#fffefe" d="
  M 318.62 86.57
  Q 318.48 86.83 318.39 86.93
  A 0.63 0.63 0.0 0 1 317.57 87.02
  Q 314.78 85.03 314.99 84.65
  Q 315.19 84.26 318.40 85.45
  A 0.63 0.63 0.0 0 1 318.79 86.18
  Q 318.76 86.31 318.62 86.57
  Z"
/>
<path fill="#fffefe" d="
  M 331.42 103.62
  Q 331.51 102.94 332.42 102.67
  A 0.62 0.61 77.0 0 0 332.85 101.97
  Q 332.43 99.67 331.57 98.43
  A 0.69 0.68 59.0 0 0 330.71 98.21
  L 321.18 102.86
  A 0.66 0.63 -3.3 0 0 320.87 103.19
  L 320.42 104.33
  A 0.31 0.31 0.0 0 1 319.84 104.33
  Q 318.48 100.93 318.44 100.67
  A 0.13 0.12 -63.7 0 1 318.67 100.59
  Q 319.29 101.72 321.61 100.85
  Q 326.42 99.03 329.57 97.13
  A 1.62 1.10 -30.3 0 0 330.40 95.38
  Q 329.39 93.56 327.22 93.49
  A 0.26 0.26 0.0 0 1 327.09 93.02
  Q 328.77 91.91 330.09 92.98
  A 0.33 0.28 -84.8 0 1 330.18 93.11
  L 334.03 102.04
  A 0.56 0.55 65.4 0 1 333.77 102.76
  L 331.66 103.79
  A 0.17 0.16 -8.8 0 1 331.42 103.62
  Z"
/>
<path fill="#ff0110" d="
  M 272.98 111.37
  Q 271.33 100.06 260.99 96.88
  C 256.67 95.56 252.09 95.82 247.52 95.94
  A 1.18 1.18 0.0 0 0 246.37 97.17
  Q 246.77 106.11 246.48 110.03
  C 245.99 116.63 246.79 121.31 246.88 127.96
  A 1.20 1.19 84.6 0 1 245.90 129.15
  Q 240.63 130.10 236.46 132.31
  A 0.51 0.51 0.0 0 1 235.72 131.96
  Q 235.05 128.92 235.04 126.00
  Q 234.96 109.87 235.51 96.45
  A 0.75 0.74 3.2 0 0 234.81 95.68
  Q 227.06 95.21 219.88 97.66
  C 213.09 99.98 210.92 105.18 208.64 111.45
  A 0.47 0.47 0.0 0 1 207.73 111.29
  L 207.73 94.40
  A 0.77 0.77 0.0 0 1 208.50 93.63
  L 273.54 93.63
  A 0.65 0.65 0.0 0 1 274.19 94.28
  L 274.19 111.28
  A 0.61 0.61 0.0 0 1 272.98 111.37
  Z"
/>
<path fill="#fffefe" d="
  M 170.75 99.12
  A 0.32 0.31 -20.4 0 0 170.51 99.64
  L 175.97 105.94
  A 0.03 0.02 -38.0 0 1 175.96 105.98
  L 175.73 106.19
  A 0.22 0.22 0.0 0 1 175.44 106.18
  Q 172.15 103.00 169.24 99.53
  Q 168.83 99.04 167.58 98.38
  A 0.32 0.32 0.0 0 1 167.73 97.78
  L 182.52 97.78
  A 0.44 0.43 -77.4 0 1 182.91 98.40
  L 181.72 100.87
  A 0.29 0.29 0.0 0 1 181.23 100.92
  C 179.86 99.13 178.04 98.88 176.86 100.82
  Q 176.52 101.37 176.16 101.88
  A 0.47 0.47 0.0 0 1 175.31 101.61
  L 175.31 99.73
  A 0.61 0.61 0.0 0 0 174.70 99.12
  L 170.75 99.12
  Z"
/>
<path fill="#fffefe" d="
  M 178.83 106.38
  Q 179.21 106.67 178.73 108.07
  A 0.70 0.69 -7.3 0 1 178.46 108.42
  Q 177.86 108.80 177.32 108.40
  Q 176.78 108.00 176.98 107.31
  A 0.70 0.69 80.9 0 1 177.23 106.96
  Q 178.45 106.10 178.83 106.38
  Z"
/>
<path fill="#fffefe" d="
  M 334.10 111.21
  C 337.76 110.40 338.13 112.49 337.92 115.19
  A 0.76 0.54 49.5 0 0 337.94 115.42
  L 339.54 121.61
  A 1.00 1.00 0.0 0 1 339.19 122.64
  Q 337.82 123.74 337.18 123.71
  A 0.35 0.35 0.0 0 1 336.92 123.13
  Q 338.60 121.12 337.86 118.10
  A 0.64 0.63 -13.5 0 0 337.10 117.64
  L 327.45 119.79
  A 1.25 1.22 15.4 0 0 326.85 120.12
  L 325.93 121.05
  A 0.24 0.24 0.0 0 1 325.53 120.95
  L 324.60 118.00
  A 0.30 0.30 0.0 0 1 325.02 117.64
  L 326.36 118.28
  A 1.00 0.98 50.2 0 0 327.04 118.35
  L 336.69 115.90
  A 0.69 0.68 -6.4 0 0 337.20 115.27
  Q 337.41 111.41 334.12 111.40
  A 0.10 0.10 0.0 0 1 334.10 111.21
  Z"
/>
<path fill="#fffefe" d="
  M 161.63 116.57
  L 162.77 113.72
  A 0.60 0.60 0.0 0 1 163.61 113.42
  Q 169.07 116.35 175.48 115.95
  A 0.46 0.46 0.0 0 1 175.90 116.65
  Q 175.15 117.88 175.54 119.36
  A 0.36 0.36 0.0 0 1 175.23 119.81
  L 174.97 119.83
  A 0.03 0.02 -0.0 0 1 174.94 119.81
  L 174.58 118.79
  A 0.93 0.91 -2.2 0 0 173.92 118.19
  L 163.30 115.66
  A 0.89 0.87 -57.2 0 0 162.52 115.84
  L 161.65 116.58
  A 0.01 0.01 0.0 0 1 161.63 116.57
  Z"
/>
<path fill="#fffefe" d="
  M 268.15 157.31
  A 0.23 0.23 0.0 0 1 267.99 157.04
  L 268.00 157.02
  A 0.23 0.23 0.0 0 1 268.28 156.85
  Q 270.47 157.38 275.01 157.13
  Q 286.04 156.52 289.42 146.40
  Q 292.35 137.59 290.33 129.17
  C 288.73 122.50 282.18 119.00 275.80 118.46
  Q 271.30 118.08 264.49 118.25
  A 0.64 0.63 89.5 0 0 263.87 118.89
  L 263.87 135.63
  A 0.45 0.45 0.0 0 1 263.06 135.90
  Q 260.40 132.26 256.23 130.39
  A 1.02 1.02 0.0 0 1 255.63 129.56
  C 255.48 128.09 255.33 125.32 255.30 122.70
  Q 255.26 118.24 250.85 117.57
  A 0.42 0.41 -4.4 0 1 250.52 117.30
  Q 250.36 116.88 250.48 116.70
  A 0.34 0.33 14.2 0 1 250.74 116.55
  Q 274.49 116.41 279.07 116.65
  Q 281.42 116.77 286.09 117.99
  C 294.77 120.26 299.50 126.82 299.81 136.02
  C 300.04 142.92 297.30 149.68 291.63 153.83
  Q 281.42 161.31 268.15 157.31
  Z"
/>
<path fill="#fffefe" d="
  M 340.99 122.92
  Q 340.98 123.23 340.90 123.34
  A 0.18 0.18 0.0 0 1 340.57 123.24
  Q 340.57 123.06 340.71 122.84
  A 0.15 0.15 0.0 0 1 340.99 122.92
  Z"
/>
<path fill="#fffefe" d="
  M 161.50 138.43
  Q 160.90 138.49 159.99 137.93
  A 0.94 0.91 -74.0 0 1 159.57 137.15
  C 159.62 132.14 158.87 127.55 161.75 125.51
  A 0.57 0.57 0.0 0 1 162.47 125.56
  L 162.53 125.62
  A 0.49 0.48 47.5 0 1 162.50 126.36
  Q 161.11 127.49 160.40 128.84
  A 1.51 1.51 0.0 0 0 161.74 131.06
  L 171.38 131.06
  A 0.84 0.83 18.8 0 0 172.04 130.74
  L 172.41 130.28
  A 0.37 0.37 0.0 0 1 173.07 130.52
  Q 172.98 132.90 173.38 133.32
  A 0.24 0.23 -15.9 0 1 173.16 133.71
  Q 173.13 133.71 172.38 133.27
  Q 171.98 133.04 171.73 133.04
  Q 165.85 133.06 160.90 132.34
  A 0.57 0.57 0.0 0 0 160.26 132.77
  Q 159.45 136.17 161.71 137.34
  A 0.58 0.58 0.0 0 1 161.50 138.43
  Z"
/>
<path fill="#ff0110" d="
  M 259.48 136.08
  Q 252.13 134.01 244.44 137.97
  Q 234.37 143.15 226.41 150.56
  Q 219.89 156.63 217.97 157.68
  C 208.76 162.73 202.04 165.36 191.99 163.22
  Q 188.01 162.37 184.83 159.32
  A 0.27 0.26 -51.4 0 1 184.80 158.98
  L 184.81 158.97
  A 0.44 0.44 0.0 0 1 185.43 158.84
  L 189.63 161.71
  A 1.31 1.27 -21.6 0 0 190.14 161.92
  C 202.24 164.29 209.56 161.09 218.34 152.57
  Q 221.64 149.37 230.07 140.83
  Q 233.27 137.59 239.62 134.01
  Q 244.15 131.46 248.56 131.73
  C 251.34 131.90 259.15 133.01 259.90 135.66
  A 0.34 0.34 0.0 0 1 259.48 136.08
  Z"
/>
<path fill="#fffefe" d="
  M 327.85 132.07
  Q 335.53 133.11 340.34 131.97
  A 0.56 0.56 0.0 0 1 341.03 132.49
  C 341.14 135.15 340.16 137.36 340.93 140.36
  A 0.80 0.80 0.0 0 1 340.44 141.30
  Q 339.77 141.57 338.60 141.22
  A 0.36 0.35 -54.2 0 1 338.50 140.59
  L 339.58 139.81
  A 0.72 0.71 -16.3 0 0 339.88 139.27
  L 340.27 133.99
  A 0.60 0.59 -9.0 0 0 339.45 133.40
  L 336.71 134.52
  A 0.90 0.86 -52.0 0 1 336.30 134.58
  L 328.29 133.87
  A 0.59 0.59 0.0 0 0 327.65 134.46
  L 327.65 139.51
  A 1.20 1.19 6.8 0 0 328.57 140.67
  L 330.47 141.13
  A 0.33 0.32 -45.3 0 1 330.47 141.76
  Q 328.93 142.15 327.78 141.66
  A 0.93 0.92 -78.4 0 1 327.22 140.81
  L 327.22 132.62
  A 0.56 0.56 0.0 0 1 327.85 132.07
  Z"
/>
<path fill="#fffefe" d="
  M 333.27 137.12
  A 0.47 0.46 34.2 0 1 334.17 136.95
  L 335.29 139.82
  A 0.54 0.53 -14.9 0 1 334.87 140.54
  L 334.81 140.54
  A 0.79 0.79 0.0 0 1 333.92 140.09
  Q 333.28 138.62 333.27 137.12
  Z"
/>
<path fill="#fffefe" d="
  M 269.45 185.90
  A 0.32 0.32 0.0 0 1 269.38 186.53
  L 256.27 186.53
  A 2.06 2.06 0.0 0 1 254.36 183.71
  L 255.11 181.84
  A 1.99 1.89 -35.4 0 0 255.25 181.12
  L 255.25 139.12
  A 1.40 1.40 0.0 0 1 257.17 137.82
  L 262.05 139.78
  A 2.84 2.84 0.0 0 1 263.83 142.43
  Q 263.66 175.74 263.64 178.37
  Q 263.62 182.21 264.79 183.38
  Q 266.68 185.28 269.45 185.90
  Z"
/>
<path fill="#ff0110" d="
  M 228.36 186.26
  Q 228.68 186.11 230.70 185.21
  C 234.14 183.68 234.90 181.01 234.94 177.06
  Q 235.02 170.05 235.40 147.87
  A 2.44 2.43 70.0 0 1 236.23 146.08
  Q 240.03 142.74 245.03 140.64
  A 0.68 0.68 0.0 0 1 245.98 141.23
  Q 246.67 156.34 246.42 177.71
  C 246.37 182.01 247.55 183.88 251.01 186.09
  A 0.30 0.30 0.0 0 1 250.85 186.64
  L 228.44 186.64
  A 0.20 0.20 0.0 0 1 228.36 186.26
  Z"
/>
<path fill="#ff0110" d="
  M 298.61 185.95
  L 295.46 186.29
  A 0.74 0.74 0.0 0 1 294.64 185.62
  C 294.58 185.01 295.81 184.38 295.59 183.23
  Q 295.34 181.87 295.08 180.87
  A 0.94 0.94 0.0 0 0 294.17 180.16
  L 287.29 180.16
  A 0.66 0.66 0.0 0 1 286.75 179.11
  L 296.44 165.50
  A 0.77 0.77 0.0 0 1 297.84 165.95
  L 297.84 177.47
  A 0.54 0.54 0.0 0 0 298.23 177.99
  Q 299.32 178.28 299.44 178.30
  A 0.91 0.91 0.0 0 1 299.34 180.10
  L 298.49 180.12
  A 0.83 0.83 0.0 0 0 297.69 180.95
  L 297.69 183.96
  A 0.94 0.91 18.3 0 0 298.08 184.71
  L 298.80 185.22
  A 0.40 0.40 0.0 0 1 298.61 185.95
  Z
  M 295.02 170.32
  A 0.26 0.26 0.0 0 0 294.55 170.17
  L 289.26 177.59
  A 0.50 0.49 -74.5 0 0 289.70 178.37
  L 294.41 178.05
  A 0.66 0.66 0.0 0 0 295.02 177.39
  L 295.02 170.32
  Z"
/>
<path fill="#ff0110" d="
  M 272.37 170.16
  Q 272.56 168.84 273.12 167.99
  A 2.17 2.17 0.0 0 1 273.79 167.32
  Q 279.11 163.86 283.68 167.82
  A 1.62 1.57 -76.0 0 1 284.19 168.70
  Q 285.04 173.05 281.94 176.42
  Q 278.91 179.74 275.74 182.98
  A 0.39 0.39 0.0 0 0 275.96 183.64
  Q 280.01 184.18 283.63 183.38
  A 0.71 0.71 0.0 0 1 284.49 184.19
  L 284.32 184.64
  A 2.10 2.09 -79.7 0 1 282.36 186.01
  L 271.86 186.01
  A 0.53 0.53 0.0 0 1 271.48 185.10
  Q 276.81 179.71 278.83 177.84
  Q 281.94 174.98 281.33 171.04
  Q 280.56 165.96 275.36 167.64
  A 0.92 0.92 0.0 0 0 274.94 167.92
  L 272.80 170.36
  A 0.25 0.25 0.0 0 1 272.37 170.16
  Z"
/>
<path fill="#ff0110" d="
  M 166.72 172.65
  Q 166.14 169.91 168.35 168.53
  A 2.38 2.37 55.9 0 1 171.51 169.14
  Q 172.58 170.58 172.24 172.48
  A 1.36 1.32 78.0 0 1 171.71 173.32
  Q 169.38 175.01 167.26 173.49
  A 1.40 1.36 -78.6 0 1 166.72 172.65
  Z"
/>
<circle fill="#ff0110" cx="331.59" cy="171.29" r="2.95"/>
<path fill="#fffefe" d="
  M 215.84 207.86
  Q 215.79 207.91 214.41 207.99
  A 0.99 0.98 9.0 0 0 213.56 208.60
  L 209.35 219.06
  A 0.69 0.68 -64.6 0 0 209.64 219.90
  L 213.28 222.00
  A 1.30 1.30 0.0 0 0 214.69 221.93
  L 216.91 220.32
  A 0.23 0.23 0.0 0 1 217.25 220.61
  C 215.72 223.86 212.45 222.52 210.10 220.84
  Q 208.80 219.92 206.86 219.67
  Q 206.36 219.61 206.35 218.94
  A 0.32 0.32 0.0 0 1 206.75 218.63
  Q 206.92 218.68 207.11 218.68
  A 0.81 0.81 0.0 0 0 207.85 218.17
  L 212.17 207.40
  A 0.74 0.71 39.4 0 0 212.09 206.71
  L 211.37 205.71
  A 0.13 0.13 0.0 0 1 211.54 205.52
  Q 214.45 207.31 215.61 207.27
  A 0.34 0.34 0.0 0 1 215.84 207.86
  Z"
/>
<path fill="#fffefe" d="
  M 284.37 207.72
  L 286.73 206.01
  A 0.46 0.46 0.0 0 1 287.45 206.35
  L 287.51 207.27
  A 0.50 0.50 0.0 0 1 287.05 207.81
  L 284.46 207.99
  A 0.15 0.15 0.0 0 1 284.37 207.72
  Z"
/>
<path fill="#fffefe" d="
  M 269.38 213.21
  C 270.99 213.05 272.03 213.78 272.80 211.74
  A 0.33 0.31 20.7 0 1 273.22 211.56
  L 273.47 211.66
  A 0.10 0.09 -70.6 0 1 273.52 211.78
  L 272.88 213.37
  A 1.05 1.03 36.3 0 0 273.05 214.42
  L 278.43 220.80
  A 0.35 0.34 23.7 0 0 279.04 220.57
  L 278.68 212.32
  A 0.62 0.46 36.7 0 0 278.65 212.22
  L 277.79 210.45
  A 0.64 0.64 0.0 0 1 278.81 209.71
  Q 280.01 210.89 286.05 217.99
  A 0.34 0.34 0.0 0 0 286.65 217.78
  L 286.84 208.71
  A 0.04 0.04 0.0 0 1 286.88 208.67
  L 287.28 208.64
  A 0.23 0.22 87.7 0 1 287.52 208.87
  L 287.52 221.37
  A 0.37 0.36 -65.3 0 1 286.88 221.61
  L 279.96 213.41
  A 0.41 0.41 0.0 0 0 279.24 213.71
  L 279.94 223.75
  A 0.64 0.64 0.0 0 1 278.79 224.17
  Q 273.84 217.44 269.26 213.62
  A 0.23 0.23 0.0 0 1 269.38 213.21
  Z"
/>
<path fill="#fffefe" d="
  M 234.14 227.82
  A 0.27 0.27 0.0 0 1 233.81 227.64
  L 230.39 215.40
  A 2.60 0.82 74.4 0 1 230.48 212.67
  L 230.87 212.56
  A 2.60 0.82 74.4 0 1 232.36 214.85
  L 235.77 227.09
  A 0.27 0.27 0.0 0 1 235.59 227.42
  L 234.14 227.82
  Z"
/>
<path fill="#fffefe" d="
  M 254.43 226.50
  Q 256.49 228.98 257.28 229.12
  Q 261.48 229.84 262.11 226.48
  C 262.77 222.99 258.21 223.14 256.77 222.55
  C 250.98 220.15 255.09 213.41 259.84 214.95
  Q 261.29 215.42 261.90 215.44
  A 0.58 0.58 0.0 0 1 262.46 216.02
  L 262.46 217.77
  A 0.28 0.28 0.0 0 1 261.96 217.93
  L 260.62 216.07
  A 0.61 0.58 80.3 0 0 260.34 215.86
  C 256.86 214.64 253.63 217.40 256.16 220.35
  A 1.77 1.73 -13.3 0 0 257.09 220.91
  C 259.23 221.37 261.59 221.60 262.83 223.00
  C 264.80 225.21 263.58 228.16 261.12 229.15
  Q 258.39 230.25 255.78 229.42
  A 2.08 2.04 77.5 0 1 254.89 228.84
  Q 254.15 227.99 253.99 226.69
  A 0.25 0.25 0.0 0 1 254.43 226.50
  Z"
/>
<path fill="#fffefe" d="
  M 242.33 229.63
  Q 241.37 229.10 239.33 229.66
  A 0.35 0.35 0.0 0 1 238.92 229.18
  Q 238.94 229.13 239.78 228.62
  Q 240.10 228.42 240.19 227.82
  Q 241.00 222.73 240.94 218.58
  A 0.29 0.29 0.0 0 0 240.39 218.44
  L 236.65 224.91
  A 0.30 0.29 40.1 0 1 236.17 224.95
  L 235.90 224.63
  A 0.07 0.05 46.6 0 1 235.89 224.56
  Q 238.68 219.79 239.50 218.95
  Q 241.15 217.24 241.11 216.30
  A 0.74 0.73 -0.8 0 1 241.83 215.57
  L 244.42 215.51
  A 0.47 0.47 0.0 0 1 244.88 216.12
  Q 244.81 216.35 243.96 216.68
  A 0.95 0.94 82.2 0 0 243.35 217.49
  Q 243.18 219.75 241.95 226.97
  Q 241.69 228.50 242.49 229.43
  A 0.13 0.13 0.0 0 1 242.33 229.63
  Z"
/>
<path fill="#fffefe" d="
  M 229.48 216.79
  A 0.27 0.26 8.6 0 1 229.79 216.57
  L 229.80 216.57
  A 0.27 0.27 0.0 0 1 230.02 216.88
  L 228.84 225.95
  A 1.10 1.09 -68.4 0 0 229.28 226.97
  L 229.76 227.30
  A 0.32 0.31 77.9 0 1 229.42 227.83
  Q 228.02 227.00 226.56 227.19
  A 0.43 0.43 0.0 0 1 226.07 226.71
  L 226.10 226.44
  A 0.16 0.15 -0.5 0 1 226.23 226.32
  Q 228.09 226.03 228.26 224.76
  Q 228.50 223.01 229.48 216.79
  Z"
/>
</g>
<g>
<path fill="#000000" d="
  M 243.94 47.20
  A 0.64 0.64 0.0 0 1 244.55 46.53
  L 244.76 46.52
  A 4.57 3.77 -2.2 0 1 249.47 50.12
  L 249.48 50.46
  A 4.57 3.77 -2.2 0 1 245.06 54.40
  L 244.85 54.41
  A 0.64 0.64 0.0 0 1 244.19 53.79
  L 243.94 47.20
  Z"
/>
<path fill="#000000" d="
  M 214.39 56.10
  L 219.17 61.76
  A 0.28 0.28 0.0 0 1 218.97 62.22
  L 214.93 62.50
  A 0.95 0.94 88.0 0 1 213.92 61.55
  L 213.92 56.27
  A 0.27 0.27 0.0 0 1 214.39 56.10
  Z"
/>
<path fill="#000000" d="
  M 295.02 170.32
  L 295.02 177.39
  A 0.66 0.66 0.0 0 1 294.41 178.05
  L 289.70 178.37
  A 0.50 0.49 -74.5 0 1 289.26 177.59
  L 294.55 170.17
  A 0.26 0.26 0.0 0 1 295.02 170.32
  Z"
/>
</g>
</svg>
