<?xml version="1.0" encoding="UTF-8" standalone="no"?>
<!DOCTYPE svg PUBLIC "-//W3C//DTD SVG 1.1//EN" "http://www.w3.org/Graphics/SVG/1.1/DTD/svg11.dtd">
<svg xmlns="http://www.w3.org/2000/svg" version="1.1" viewBox="115 27 220 220">
<g stroke-width="2.00" fill="none" stroke-linecap="butt">
<path stroke="#800009" vector-effect="non-scaling-stroke" d="
  M 173.18 91.49
  A 0.68 0.68 0.0 0 0 174.52 91.58
  C 176.70 81.73 181.75 73.74 191.49 69.79
  Q 198.64 66.90 203.06 66.99
  Q 209.04 67.11 213.47 66.44
  A 1.64 1.64 0.0 0 1 215.35 68.06
  L 215.35 125.30
  A 0.41 0.41 0.0 0 0 215.96 125.66
  Q 218.17 124.45 223.68 121.58
  C 227.18 119.77 230.60 119.28 234.25 118.45
  A 0.85 0.85 0.0 0 0 234.91 117.62
  L 234.91 67.68
  A 1.01 1.00 -2.2 0 1 235.84 66.68
  Q 247.58 65.80 257.80 69.25
  C 268.16 72.76 272.88 81.15 274.67 91.41
  A 0.68 0.67 -25.2 0 0 275.77 91.80
  Q 276.22 91.41 276.20 90.93
  Q 276.04 87.43 276.41 81.32
  C 276.78 75.33 276.28 68.95 276.03 64.15
  A 1.14 1.13 88.4 0 0 274.90 63.07
  L 173.69 63.07
  A 0.77 0.77 0.0 0 0 172.92 63.79
  Q 172.10 78.19 173.18 91.49"
/>
<path stroke="#807f7f" vector-effect="non-scaling-stroke" d="
  M 267.81 160.76
  Q 269.70 161.78 271.98 162.03
  C 286.85 163.67 301.26 161.43 309.90 148.42
  C 313.96 142.31 315.96 133.59 315.33 126.57
  C 314.28 115.00 308.90 105.80 298.09 101.63
  Q 290.45 98.69 282.76 98.62
  Q 270.76 98.50 242.31 98.67
  A 1.40 1.40 0.0 0 0 241.19 99.26
  L 241.18 99.28
  A 0.44 0.44 0.0 0 0 241.47 99.97
  Q 248.88 101.12 248.85 108.83
  Q 248.84 112.02 248.89 120.96
  A 1.61 1.60 -78.7 0 0 249.87 122.44
  Q 257.42 125.62 262.10 131.61
  A 0.22 0.22 0.0 0 0 262.49 131.48
  L 262.49 101.98
  A 0.70 0.70 0.0 0 1 263.16 101.28
  C 270.39 101.01 278.62 100.53 286.49 103.03
  Q 297.66 106.57 300.70 117.98
  Q 304.34 131.64 298.11 146.54
  C 296.38 150.69 290.98 157.04 285.76 158.87
  C 280.08 160.87 274.28 160.82 267.94 160.33
  A 0.23 0.23 0.0 0 0 267.81 160.76"
/>
<path stroke="#800009" vector-effect="non-scaling-stroke" d="
  M 131.90 167.24
  A 0.35 0.35 0.0 0 0 131.92 167.72
  Q 140.72 176.20 152.40 176.56
  C 161.58 176.84 170.38 175.60 178.22 171.23
  Q 191.49 163.84 201.76 153.90
  C 206.19 149.62 211.73 145.32 215.52 142.28
  C 220.28 138.47 229.13 133.36 235.49 131.79
  Q 244.59 129.54 253.70 130.23
  A 1.34 1.29 55.5 0 1 254.09 130.31
  L 257.86 131.60
  A 0.42 0.41 73.5 0 0 258.25 130.88
  Q 247.63 122.58 234.23 124.22
  C 222.44 125.66 209.59 135.53 201.79 143.86
  C 196.31 149.70 191.90 154.08 186.09 159.83
  Q 178.37 167.45 168.40 171.38
  Q 149.19 178.94 132.67 167.05
  A 0.51 0.50 -51.8 0 0 131.98 167.14
  L 131.90 167.24"
/>
<path stroke="#807f7f" vector-effect="non-scaling-stroke" d="
  M 271.76 208.62
  Q 266.11 208.05 263.66 204.05
  Q 262.17 201.61 262.19 194.67
  Q 262.26 166.22 262.40 139.35
  A 1.24 1.23 23.0 0 0 262.05 138.49
  C 258.78 135.11 254.18 133.95 249.32 133.64
  A 0.52 0.51 -88.0 0 0 248.77 134.16
  Q 248.70 161.83 248.70 198.00
  Q 248.70 202.06 247.07 205.20
  A 1.20 1.19 36.5 0 0 247.28 206.59
  L 250.08 209.39
  A 0.76 0.75 66.4 0 0 250.60 209.60
  L 272.00 209.34
  A 0.05 0.05 0.0 0 0 272.05 209.29
  L 272.05 208.94
  A 0.32 0.32 0.0 0 0 271.76 208.62"
/>
<path stroke="#800009" vector-effect="non-scaling-stroke" d="
  M 204.58 209.39
  Q 223.63 210.41 243.24 209.26
  A 0.48 0.48 0.0 0 0 243.33 208.31
  Q 234.92 206.29 234.86 197.37
  Q 234.64 167.85 234.94 139.12
  A 1.16 1.16 0.0 0 0 233.74 137.95
  Q 232.03 138.01 230.18 138.92
  Q 222.94 142.49 216.78 147.45
  A 3.73 3.72 -19.4 0 0 215.40 150.32
  Q 215.19 175.80 214.82 195.50
  C 214.70 202.18 212.19 208.01 204.64 208.49
  A 0.46 0.45 -2.0 0 0 204.21 208.94
  L 204.21 209.00
  A 0.39 0.39 0.0 0 0 204.58 209.39"
/>
<path stroke="#800009" vector-effect="non-scaling-stroke" d="
  M 279.01 201.73
  Q 284.17 196.47 287.87 193.36
  Q 289.49 192.00 291.59 188.61
  C 295.81 181.83 292.49 173.17 283.73 173.82
  Q 277.71 174.26 274.26 179.62
  A 1.41 1.40 -52.1 0 0 274.48 181.41
  L 274.60 181.52
  A 0.93 0.92 34.7 0 0 276.06 181.26
  Q 279.25 174.85 285.52 177.70
  A 2.22 2.17 82.6 0 1 286.33 178.34
  C 293.42 187.38 279.91 198.85 273.40 204.07
  A 1.24 1.24 0.0 0 0 273.53 206.09
  Q 274.72 206.83 277.00 206.78
  Q 284.29 206.62 292.34 206.11
  A 0.91 0.91 0.0 0 0 293.17 205.36
  L 293.80 201.75
  A 0.50 0.50 0.0 0 0 293.16 201.19
  C 288.66 202.57 284.64 202.56 279.23 202.30
  A 0.34 0.33 -66.4 0 1 279.01 201.73"
/>
<path stroke="#800009" vector-effect="non-scaling-stroke" d="
  M 317.63 204.65
  L 316.21 204.40
  A 0.86 0.86 0.0 0 1 315.49 203.55
  L 315.49 198.03
  A 0.91 0.90 76.7 0 1 315.99 197.22
  Q 316.91 196.74 318.77 196.77
  A 1.07 1.07 0.0 0 0 319.85 195.85
  L 319.88 195.47
  A 0.91 0.91 0.0 0 0 318.97 194.49
  L 316.45 194.49
  A 1.08 1.08 0.0 0 1 315.37 193.42
  Q 315.31 184.77 315.33 175.88
  A 1.29 1.29 0.0 0 0 314.02 174.58
  Q 313.23 174.59 312.61 175.36
  Q 308.42 180.55 297.47 195.35
  A 1.38 1.37 -71.7 0 0 298.57 197.55
  L 309.87 197.55
  A 0.89 0.88 -0.0 0 1 310.76 198.43
  L 310.76 203.37
  A 1.13 1.13 0.0 0 1 310.09 204.40
  L 308.41 205.16
  A 0.58 0.58 0.0 0 0 308.65 206.27
  L 317.49 206.27
  A 0.82 0.82 0.0 0 0 317.63 204.65"
/>
<path stroke="#800009" vector-effect="non-scaling-stroke" d="
  M 310.19 181.04
  L 301.86 192.59
  A 0.82 0.82 0.0 0 0 302.53 193.89
  L 309.96 193.89
  A 0.77 0.77 0.0 0 0 310.73 193.12
  L 310.73 181.21
  A 0.30 0.30 0.0 0 0 310.19 181.04"
/>
</g>
<path fill="#000000" d="
  M 512.00 0.00
  L 512.00 269.00
  L 0.00 269.00
  L 0.00 0.00
  L 512.00 0.00
  Z
  M 173.18 91.49
  A 0.68 0.68 0.0 0 0 174.52 91.58
  C 176.70 81.73 181.75 73.74 191.49 69.79
  Q 198.64 66.90 203.06 66.99
  Q 209.04 67.11 213.47 66.44
  A 1.64 1.64 0.0 0 1 215.35 68.06
  L 215.35 125.30
  A 0.41 0.41 0.0 0 0 215.96 125.66
  Q 218.17 124.45 223.68 121.58
  C 227.18 119.77 230.60 119.28 234.25 118.45
  A 0.85 0.85 0.0 0 0 234.91 117.62
  L 234.91 67.68
  A 1.01 1.00 -2.2 0 1 235.84 66.68
  Q 247.58 65.80 257.80 69.25
  C 268.16 72.76 272.88 81.15 274.67 91.41
  A 0.68 0.67 -25.2 0 0 275.77 91.80
  Q 276.22 91.41 276.20 90.93
  Q 276.04 87.43 276.41 81.32
  C 276.78 75.33 276.28 68.95 276.03 64.15
  A 1.14 1.13 88.4 0 0 274.90 63.07
  L 173.69 63.07
  A 0.77 0.77 0.0 0 0 172.92 63.79
  Q 172.10 78.19 173.18 91.49
  Z
  M 267.81 160.76
  Q 269.70 161.78 271.98 162.03
  C 286.85 163.67 301.26 161.43 309.90 148.42
  C 313.96 142.31 315.96 133.59 315.33 126.57
  C 314.28 115.00 308.90 105.80 298.09 101.63
  Q 290.45 98.69 282.76 98.62
  Q 270.76 98.50 242.31 98.67
  A 1.40 1.40 0.0 0 0 241.19 99.26
  L 241.18 99.28
  A 0.44 0.44 0.0 0 0 241.47 99.97
  Q 248.88 101.12 248.85 108.83
  Q 248.84 112.02 248.89 120.96
  A 1.61 1.60 -78.7 0 0 249.87 122.44
  Q 257.42 125.62 262.10 131.61
  A 0.22 0.22 0.0 0 0 262.49 131.48
  L 262.49 101.98
  A 0.70 0.70 0.0 0 1 263.16 101.28
  C 270.39 101.01 278.62 100.53 286.49 103.03
  Q 297.66 106.57 300.70 117.98
  Q 304.34 131.64 298.11 146.54
  C 296.38 150.69 290.98 157.04 285.76 158.87
  C 280.08 160.87 274.28 160.82 267.94 160.33
  A 0.23 0.23 0.0 0 0 267.81 160.76
  Z
  M 131.90 167.24
  A 0.35 0.35 0.0 0 0 131.92 167.72
  Q 140.72 176.20 152.40 176.56
  C 161.58 176.84 170.38 175.60 178.22 171.23
  Q 191.49 163.84 201.76 153.90
  C 206.19 149.62 211.73 145.32 215.52 142.28
  C 220.28 138.47 229.13 133.36 235.49 131.79
  Q 244.59 129.54 253.70 130.23
  A 1.34 1.29 55.5 0 1 254.09 130.31
  L 257.86 131.60
  A 0.42 0.41 73.5 0 0 258.25 130.88
  Q 247.63 122.58 234.23 124.22
  C 222.44 125.66 209.59 135.53 201.79 143.86
  C 196.31 149.70 191.90 154.08 186.09 159.83
  Q 178.37 167.45 168.40 171.38
  Q 149.19 178.94 132.67 167.05
  A 0.51 0.50 -51.8 0 0 131.98 167.14
  L 131.90 167.24
  Z
  M 271.76 208.62
  Q 266.11 208.05 263.66 204.05
  Q 262.17 201.61 262.19 194.67
  Q 262.26 166.22 262.40 139.35
  A 1.24 1.23 23.0 0 0 262.05 138.49
  C 258.78 135.11 254.18 133.95 249.32 133.64
  A 0.52 0.51 -88.0 0 0 248.77 134.16
  Q 248.70 161.83 248.70 198.00
  Q 248.70 202.06 247.07 205.20
  A 1.20 1.19 36.5 0 0 247.28 206.59
  L 250.08 209.39
  A 0.76 0.75 66.4 0 0 250.60 209.60
  L 272.00 209.34
  A 0.05 0.05 0.0 0 0 272.05 209.29
  L 272.05 208.94
  A 0.32 0.32 0.0 0 0 271.76 208.62
  Z
  M 204.58 209.39
  Q 223.63 210.41 243.24 209.26
  A 0.48 0.48 0.0 0 0 243.33 208.31
  Q 234.92 206.29 234.86 197.37
  Q 234.64 167.85 234.94 139.12
  A 1.16 1.16 0.0 0 0 233.74 137.95
  Q 232.03 138.01 230.18 138.92
  Q 222.94 142.49 216.78 147.45
  A 3.73 3.72 -19.4 0 0 215.40 150.32
  Q 215.19 175.80 214.82 195.50
  C 214.70 202.18 212.19 208.01 204.64 208.49
  A 0.46 0.45 -2.0 0 0 204.21 208.94
  L 204.21 209.00
  A 0.39 0.39 0.0 0 0 204.58 209.39
  Z
  M 279.01 201.73
  Q 284.17 196.47 287.87 193.36
  Q 289.49 192.00 291.59 188.61
  C 295.81 181.83 292.49 173.17 283.73 173.82
  Q 277.71 174.26 274.26 179.62
  A 1.41 1.40 -52.1 0 0 274.48 181.41
  L 274.60 181.52
  A 0.93 0.92 34.7 0 0 276.06 181.26
  Q 279.25 174.85 285.52 177.70
  A 2.22 2.17 82.6 0 1 286.33 178.34
  C 293.42 187.38 279.91 198.85 273.40 204.07
  A 1.24 1.24 0.0 0 0 273.53 206.09
  Q 274.72 206.83 277.00 206.78
  Q 284.29 206.62 292.34 206.11
  A 0.91 0.91 0.0 0 0 293.17 205.36
  L 293.80 201.75
  A 0.50 0.50 0.0 0 0 293.16 201.19
  C 288.66 202.57 284.64 202.56 279.23 202.30
  A 0.34 0.33 -66.4 0 1 279.01 201.73
  Z
  M 317.63 204.65
  L 316.21 204.40
  A 0.86 0.86 0.0 0 1 315.49 203.55
  L 315.49 198.03
  A 0.91 0.90 76.7 0 1 315.99 197.22
  Q 316.91 196.74 318.77 196.77
  A 1.07 1.07 0.0 0 0 319.85 195.85
  L 319.88 195.47
  A 0.91 0.91 0.0 0 0 318.97 194.49
  L 316.45 194.49
  A 1.08 1.08 0.0 0 1 315.37 193.42
  Q 315.31 184.77 315.33 175.88
  A 1.29 1.29 0.0 0 0 314.02 174.58
  Q 313.23 174.59 312.61 175.36
  Q 308.42 180.55 297.47 195.35
  A 1.38 1.37 -71.7 0 0 298.57 197.55
  L 309.87 197.55
  A 0.89 0.88 -0.0 0 1 310.76 198.43
  L 310.76 203.37
  A 1.13 1.13 0.0 0 1 310.09 204.40
  L 308.41 205.16
  A 0.58 0.58 0.0 0 0 308.65 206.27
  L 317.49 206.27
  A 0.82 0.82 0.0 0 0 317.63 204.65
  Z"
/>
<g>
<path fill="#ff0011" d="
  M 173.18 91.49
  Q 172.10 78.19 172.92 63.79
  A 0.77 0.77 0.0 0 1 173.69 63.07
  L 274.90 63.07
  A 1.14 1.13 88.4 0 1 276.03 64.15
  C 276.28 68.95 276.78 75.33 276.41 81.32
  Q 276.04 87.43 276.20 90.93
  Q 276.22 91.41 275.77 91.80
  A 0.68 0.67 -25.2 0 1 274.67 91.41
  C 272.88 81.15 268.16 72.76 257.80 69.25
  Q 247.58 65.80 235.84 66.68
  A 1.01 1.00 -2.2 0 0 234.91 67.68
  L 234.91 117.62
  A 0.85 0.85 0.0 0 1 234.25 118.45
  C 230.60 119.28 227.18 119.77 223.68 121.58
  Q 218.17 124.45 215.96 125.66
  A 0.41 0.41 0.0 0 1 215.35 125.30
  L 215.35 68.06
  A 1.64 1.64 0.0 0 0 213.47 66.44
  Q 209.04 67.11 203.06 66.99
  Q 198.64 66.90 191.49 69.79
  C 181.75 73.74 176.70 81.73 174.52 91.58
  A 0.68 0.68 0.0 0 1 173.18 91.49
  Z"
/>
<path fill="#fffefd" d="
  M 267.81 160.76
  A 0.23 0.23 0.0 0 1 267.94 160.33
  C 274.28 160.82 280.08 160.87 285.76 158.87
  C 290.98 157.04 296.38 150.69 298.11 146.54
  Q 304.34 131.64 300.70 117.98
  Q 297.66 106.57 286.49 103.03
  C 278.62 100.53 270.39 101.01 263.16 101.28
  A 0.70 0.70 0.0 0 0 262.49 101.98
  L 262.49 131.48
  A 0.22 0.22 0.0 0 1 262.10 131.61
  Q 257.42 125.62 249.87 122.44
  A 1.61 1.60 -78.7 0 1 248.89 120.96
  Q 248.84 112.02 248.85 108.83
  Q 248.88 101.12 241.47 99.97
  A 0.44 0.44 0.0 0 1 241.18 99.28
  L 241.19 99.26
  A 1.40 1.40 0.0 0 1 242.31 98.67
  Q 270.76 98.50 282.76 98.62
  Q 290.45 98.69 298.09 101.63
  C 308.90 105.80 314.28 115.00 315.33 126.57
  C 315.96 133.59 313.96 142.31 309.90 148.42
  C 301.26 161.43 286.85 163.67 271.98 162.03
  Q 269.70 161.78 267.81 160.76
  Z"
/>
<path fill="#ff0011" d="
  M 132.67 167.05
  Q 149.19 178.94 168.40 171.38
  Q 178.37 167.45 186.09 159.83
  C 191.90 154.08 196.31 149.70 201.79 143.86
  C 209.59 135.53 222.44 125.66 234.23 124.22
  Q 247.63 122.58 258.25 130.88
  A 0.42 0.41 73.5 0 1 257.86 131.60
  L 254.09 130.31
  A 1.34 1.29 55.5 0 0 253.70 130.23
  Q 244.59 129.54 235.49 131.79
  C 229.13 133.36 220.28 138.47 215.52 142.28
  C 211.73 145.32 206.19 149.62 201.76 153.90
  Q 191.49 163.84 178.22 171.23
  C 170.38 175.60 161.58 176.84 152.40 176.56
  Q 140.72 176.20 131.92 167.72
  A 0.35 0.35 0.0 0 1 131.90 167.24
  L 131.98 167.14
  A 0.51 0.50 -51.8 0 1 132.67 167.05
  Z"
/>
<path fill="#fffefd" d="
  M 271.76 208.62
  A 0.32 0.32 0.0 0 1 272.05 208.94
  L 272.05 209.29
  A 0.05 0.05 0.0 0 1 272.00 209.34
  L 250.60 209.60
  A 0.76 0.75 66.4 0 1 250.08 209.39
  L 247.28 206.59
  A 1.20 1.19 36.5 0 1 247.07 205.20
  Q 248.70 202.06 248.70 198.00
  Q 248.70 161.83 248.77 134.16
  A 0.52 0.51 -88.0 0 1 249.32 133.64
  C 254.18 133.95 258.78 135.11 262.05 138.49
  A 1.24 1.23 23.0 0 1 262.40 139.35
  Q 262.26 166.22 262.19 194.67
  Q 262.17 201.61 263.66 204.05
  Q 266.11 208.05 271.76 208.62
  Z"
/>
<path fill="#ff0011" d="
  M 204.58 209.39
  A 0.39 0.39 0.0 0 1 204.21 209.00
  L 204.21 208.94
  A 0.46 0.45 -2.0 0 1 204.64 208.49
  C 212.19 208.01 214.70 202.18 214.82 195.50
  Q 215.19 175.80 215.40 150.32
  A 3.73 3.72 -19.4 0 1 216.78 147.45
  Q 222.94 142.49 230.18 138.92
  Q 232.03 138.01 233.74 137.95
  A 1.16 1.16 0.0 0 1 234.94 139.12
  Q 234.64 167.85 234.86 197.37
  Q 234.92 206.29 243.33 208.31
  A 0.48 0.48 0.0 0 1 243.24 209.26
  Q 223.63 210.41 204.58 209.39
  Z"
/>
<path fill="#ff0011" d="
  M 279.01 201.73
  A 0.34 0.33 -66.4 0 0 279.23 202.30
  C 284.64 202.56 288.66 202.57 293.16 201.19
  A 0.50 0.50 0.0 0 1 293.80 201.75
  L 293.17 205.36
  A 0.91 0.91 0.0 0 1 292.34 206.11
  Q 284.29 206.62 277.00 206.78
  Q 274.72 206.83 273.53 206.09
  A 1.24 1.24 0.0 0 1 273.40 204.07
  C 279.91 198.85 293.42 187.38 286.33 178.34
  A 2.22 2.17 82.6 0 0 285.52 177.70
  Q 279.25 174.85 276.06 181.26
  A 0.93 0.92 34.7 0 1 274.60 181.52
  L 274.48 181.41
  A 1.41 1.40 -52.1 0 1 274.26 179.62
  Q 277.71 174.26 283.73 173.82
  C 292.49 173.17 295.81 181.83 291.59 188.61
  Q 289.49 192.00 287.87 193.36
  Q 284.17 196.47 279.01 201.73
  Z"
/>
<path fill="#ff0011" d="
  M 317.63 204.65
  A 0.82 0.82 0.0 0 1 317.49 206.27
  L 308.65 206.27
  A 0.58 0.58 0.0 0 1 308.41 205.16
  L 310.09 204.40
  A 1.13 1.13 0.0 0 0 310.76 203.37
  L 310.76 198.43
  A 0.89 0.88 -0.0 0 0 309.87 197.55
  L 298.57 197.55
  A 1.38 1.37 -71.7 0 1 297.47 195.35
  Q 308.42 180.55 312.61 175.36
  Q 313.23 174.59 314.02 174.58
  A 1.29 1.29 0.0 0 1 315.33 175.88
  Q 315.31 184.77 315.37 193.42
  A 1.08 1.08 0.0 0 0 316.45 194.49
  L 318.97 194.49
  A 0.91 0.91 0.0 0 1 319.88 195.47
  L 319.85 195.85
  A 1.07 1.07 0.0 0 1 318.77 196.77
  Q 316.91 196.74 315.99 197.22
  A 0.91 0.90 76.7 0 0 315.49 198.03
  L 315.49 203.55
  A 0.86 0.86 0.0 0 0 316.21 204.40
  L 317.63 204.65
  Z
  M 310.19 181.04
  L 301.86 192.59
  A 0.82 0.82 0.0 0 0 302.53 193.89
  L 309.96 193.89
  A 0.77 0.77 0.0 0 0 310.73 193.12
  L 310.73 181.21
  A 0.30 0.30 0.0 0 0 310.19 181.04
  Z"
/>
</g>
<path fill="#000000" d="
  M 310.19 181.04
  A 0.30 0.30 0.0 0 1 310.73 181.21
  L 310.73 193.12
  A 0.77 0.77 0.0 0 1 309.96 193.89
  L 302.53 193.89
  A 0.82 0.82 0.0 0 1 301.86 192.59
  L 310.19 181.04
  Z"
/>
</svg>
